<svg width="16" height="16" viewBox="0 0 16 16" fill="none" xmlns="http://www.w3.org/2000/svg">
<path fill-rule="evenodd" clip-rule="evenodd" d="M13 1C14.1046 1 15 1.89543 15 3V11C15 12.1046 14.1046 13 13 13H5.47214C5.16165 13 4.85542 13.0723 4.57771 13.2111L1 15V3C1 1.89543 1.89543 1 3 1H13ZM12 8H4C3.44772 8 3 8.44772 3 9C3 9.55229 3.44772 10 4 10H12C12.5523 10 13 9.55229 13 9C13 8.44772 12.5523 8 12 8ZM12 4H4C3.44772 4 3 4.44772 3 5C3 5.51284 3.38604 5.93551 3.88338 5.99327L4 6H12C12.5523 6 13 5.55228 13 5C13 4.44772 12.5523 4 12 4Z" fill="#555555"/>
</svg>
