<svg width="12" height="12" viewBox="0 0 12 12" fill="#545E6B" xmlns="http://www.w3.org/2000/svg" >
<path fill-rule="evenodd" clip-rule="evenodd" d="M1.5 0.749975C1.91421 0.749975 2.25 1.08576 2.25 1.49997V9.74998H10.5C10.9142 9.74998 11.25 10.0858 11.25 10.5C11.25 10.9142 10.9142 11.25 10.5 11.25H0.75V1.49997C0.75 1.08576 1.08579 0.749975 1.5 0.749975ZM9.82918 1.16451C10.0144 0.794026 10.4649 0.643858 10.8354 0.8291C11.2059 1.01434 11.3561 1.46485 11.1708 1.83533L8.92082 6.33533C8.64443 6.88812 7.85558 6.88812 7.57918 6.33533L6.75 4.67697L5.17082 7.83533C4.98558 8.20581 4.53508 8.35598 4.16459 8.17074C3.79411 7.9855 3.64394 7.53499 3.82918 7.16451L6.07918 2.66451C6.35558 2.11172 7.14443 2.11172 7.42082 2.66451L8.25 4.32287L9.82918 1.16451Z" />
</svg>
