<svg width="12" height="12" viewBox="0 0 12 12" fill="none" xmlns="http://www.w3.org/2000/svg">
<path fill-rule="evenodd" clip-rule="evenodd" d="M7.45521 0.710555C9.46878 -0.315368 11.9285 0.071517 11.9285 0.071517C11.9285 0.071517 12.3154 2.53122 11.2894 4.54478C10.5447 6.00654 8.60156 7.29386 6.8578 8.21107C6.95237 9.52623 6.79936 10.6675 6.31106 11.8897C6.25656 12.0261 6.07233 12.0386 5.99675 11.9126L4.44921 9.33337C3.93946 9.54325 3.62097 9.65709 3.62097 9.65709L2.34289 8.37901C2.34289 8.37901 2.45674 8.06053 2.66661 7.55079L0.0873971 6.00326C-0.0385669 5.92768 -0.0261379 5.74345 0.110277 5.68895C1.33248 5.20066 2.47375 5.04765 3.78891 5.14221C4.70611 3.39845 5.99345 1.45533 7.45521 0.710555ZM6.75 3.75C6.75 2.92157 7.42157 2.25 8.25 2.25C9.07843 2.25 9.75 2.92157 9.75 3.75C9.75 4.57843 9.07843 5.25 8.25 5.25C7.42157 5.25 6.75 4.57843 6.75 3.75Z" fill="#545E6B"/>
<path d="M1.54688 8.90625C0.692544 8.90625 1.86929e-08 9.59881 1.86929e-08 10.4531V12H1.54688C2.40121 12 3.09375 11.3074 3.09375 10.4531C3.09375 10.3329 3.08004 10.2159 3.0541 10.1036C2.93872 10.4849 2.5846 10.7625 2.16563 10.7625H1.2375V9.83437C1.2375 9.41541 1.51511 9.0613 1.89639 8.9459C1.78408 8.91996 1.66708 8.90625 1.54688 8.90625Z" fill="#545E6B"/>
</svg>
