<svg width="12" height="12" viewBox="0 0 12 12" fill="none" xmlns="http://www.w3.org/2000/svg">
<path fill-rule="evenodd" clip-rule="evenodd" d="M4.5 1.80005C6.15685 1.80005 7.5 3.14319 7.5 4.80005C7.5 5.59861 7.18799 6.32429 6.67923 6.86185C8.06307 7.62926 9 9.10524 9 10.8H0C0 9.10524 0.936929 7.62926 2.32109 6.86181C1.81201 6.32429 1.5 5.59861 1.5 4.80005C1.5 3.14319 2.84315 1.80005 4.5 1.80005ZM7.5 1.80005C9.15685 1.80005 10.5 3.14319 10.5 4.80005C10.5 5.59861 10.188 6.32429 9.67923 6.86185C11.0098 7.59974 11.9273 8.99275 11.9959 10.6055L12 10.8H10.5L10.4959 10.6055C10.4273 8.99275 9.50985 7.59974 8.17923 6.86185C8.68799 6.32429 9 5.59861 9 4.80005C9 3.40215 8.04389 2.22756 6.74994 1.89455C6.98976 1.83286 7.24105 1.80005 7.5 1.80005Z" fill="#545E6B"/>
</svg>
