<svg width="12" height="12" viewBox="0 0 12 12" fill="none" xmlns="http://www.w3.org/2000/svg">
<path fill-rule="evenodd" clip-rule="evenodd" d="M3.75 9.75L3.75003 8.398C2.40496 7.61993 1.5 6.16565 1.5 4.5C1.5 2.01472 3.51472 0 6 0C8.48528 0 10.5 2.01472 10.5 4.5C10.5 6.16534 9.59538 7.61939 8.25072 8.39756L8.25 9.75C8.25 10.1642 7.91421 10.5 7.5 10.5V11.25C7.5 11.6642 7.16421 12 6.75 12H5.25C4.83579 12 4.5 11.6642 4.5 11.25V10.5C4.08579 10.5 3.75 10.1642 3.75 9.75ZM6 1.5C4.34315 1.5 3 2.84315 3 4.5C3 5.58423 3.57874 6.56603 4.50111 7.09958L5.25004 7.53281L5.25001 9H6.75026L6.75102 7.53239L7.49939 7.09929C8.42149 6.56566 9 5.58403 9 4.5C9 2.84315 7.65685 1.5 6 1.5Z" fill="#545E6B"/>
</svg>
