<svg width="16" height="16" viewBox="0 0 16 16" fill="#545E6B" xmlns="http://www.w3.org/2000/svg">
<g clip-path="url(#clip0_4310_201)">
<path fill-rule="evenodd" clip-rule="evenodd" d="M1.06839 0L0 1.06839L2.7074 3.77582C1.04711 5.07818 0 6.74426 0 7.82568C0 9.82568 3.58172 13.8257 8 13.8257C9.3688 13.8257 10.6573 13.4418 11.7839 12.8523L13.9582 15.0266L15.0266 13.9582L1.06839 0ZM10.2622 11.3306L8.69672 9.7652C8.47048 9.80488 8.23768 9.8256 8 9.8256C5.79086 9.8256 4 8.0348 4 5.82563C4 5.63682 4.01308 5.45106 4.03839 5.26921C2.83757 6.12401 2 7.16653 2 7.8256C2 9.10424 5.15187 11.8256 8 11.8256C8.75416 11.8256 9.52952 11.6348 10.2622 11.3306ZM14 7.8256C14 8.32616 13.5169 9.04792 12.7581 9.74088L14.1434 11.1262C15.3025 9.98032 16 8.70824 16 7.82568C16 5.82565 12.4182 1.82565 8 1.82565C7.06224 1.82565 6.16217 2.00584 5.32603 2.30886L11.2185 8.20128C11.7096 7.53696 12 6.71521 12 5.82563C12 5.69174 11.9934 5.55939 11.9806 5.42889L11.9606 5.26852C13.1624 6.12401 14 7.16653 14 7.8256Z" fill=""/>
</g>
<defs>
<clipPath id="clip0_4310_201">
<rect width="16" height="15.0266" fill="white"/>
</clipPath>
</defs>
</svg>
