<svg width="16" height="16" viewBox="0 0 16 16" fill="#545E6B" xmlns="http://www.w3.org/2000/svg">
<path fill-rule="evenodd" clip-rule="evenodd" d="M16 8C16 6 12.4183 2 8 2C3.58172 2 0 6 0 8C0 10 3.58172 14 8 14C12.4183 14 16 10 16 8ZM11.9807 5.60321L11.9607 5.44284C13.1625 6.29833 14.0001 7.34085 14.0001 7.99995C14.0001 9.27853 10.8482 12 8.00008 12C5.15195 12 2.00008 9.27853 2.00008 7.99995C2.00008 7.34085 2.83765 6.29833 4.03847 5.44353C4.01316 5.62538 4.00008 5.81114 4.00008 5.99995C4.00008 8.20909 5.79094 9.99995 8.00008 9.99995C10.2092 9.99995 12.0001 8.20909 12.0001 5.99995C12.0001 5.86607 11.9935 5.73372 11.9807 5.60321Z" fill=""/>
</svg>
