<svg width="24" height="24" viewBox="0 0 24 24" fill="gray" xmlns="http://www.w3.org/2000/svg">
<path fill-rule="evenodd" clip-rule="evenodd" d="M12 0C18.6274 0 24 5.37258 24 12C24 18.6274 18.6274 24 12 24C5.37258 24 0 18.6274 0 12C0 5.37258 5.37258 0 12 0ZM12 3C7.02944 3 3 7.02944 3 12C3 16.9706 7.02944 21 12 21C16.9706 21 21 16.9706 21 12C21 7.02944 16.9706 3 12 3ZM18 15C18 14.1716 17.3284 13.5 16.5 13.5H7.5C6.67157 13.5 6 14.1716 6 15C6 15.8284 6.67157 16.5 7.5 16.5H16.5C17.3284 16.5 18 15.8284 18 15ZM7.5 7.5C8.32843 7.5 9 8.17157 9 9C9 9.82843 8.32843 10.5 7.5 10.5C6.67157 10.5 6 9.82843 6 9C6 8.17157 6.67157 7.5 7.5 7.5ZM18 9C18 8.17157 17.3284 7.5 16.5 7.5C15.6716 7.5 15 8.17157 15 9C15 9.82843 15.6716 10.5 16.5 10.5C17.3284 10.5 18 9.82843 18 9Z"/>
</svg>
