<svg width="24" height="24" viewBox="0 0 24 24" fill="gray" xmlns="http://www.w3.org/2000/svg">
<path fill-rule="evenodd" clip-rule="evenodd" d="M12 0C18.6274 0 24 5.37258 24 12C24 18.6274 18.6274 24 12 24C5.37258 24 0 18.6274 0 12C0 5.37258 5.37258 0 12 0ZM12 12C8.78671 12 6.16338 14.526 6.00734 17.7005L6 18H9C9 16.3431 10.3431 15 12 15C13.5815 15 14.8772 16.2238 14.9918 17.7761L15 18H18C18 14.6863 15.3137 12 12 12ZM7.5 6C6.67157 6 6 6.67157 6 7.5C6 8.32843 6.67157 9 7.5 9C8.32843 9 9 8.32843 9 7.5C9 6.67157 8.32843 6 7.5 6ZM16.5 6C15.6716 6 15 6.67157 15 7.5C15 8.32843 15.6716 9 16.5 9C17.3284 9 18 8.32843 18 7.5C18 6.67157 17.3284 6 16.5 6Z" />
</svg>
