<svg width="16" height="16" viewBox="0 0 16 16" fill="none" xmlns="http://www.w3.org/2000/svg">
<g id="Frame">
<path id="Shape" fill-rule="evenodd" clip-rule="evenodd" d="M13.7131 4.57145H14.8571C15.4432 4.57145 15.9263 5.01264 15.9923 5.58103L16 5.71431V16L13.7143 13.7143H5.71427C5.12817 13.7143 4.64512 13.2731 4.5791 12.7047L4.57141 12.5715V11.4286H12.5714C13.1575 11.4286 13.6406 10.9874 13.7066 10.419L13.7143 10.2857L13.7131 4.57145ZM10.2857 0C10.9169 0 11.4286 0.511675 11.4286 1.14286V8C11.4286 8.63118 10.9169 9.14286 10.2857 9.14286H2.28571L0 11.4286V1.14286C0 0.511675 0.511675 0 1.14286 0H10.2857Z" fill="#545E6B"/>
</g>
</svg>
