<svg width="16" height="16" viewBox="0 0 16 16" fill="none" xmlns="http://www.w3.org/2000/svg">
<path d="M8 0C7.44772 0 7 0.447708 7 1V3H9V1C9 0.447708 8.55228 0 8 0Z" fill="#545E6B"/>
<path fill-rule="evenodd" clip-rule="evenodd" d="M8 4C12.4183 4 16 8 16 10C16 12 12.4183 16 8 16C3.58172 16 0 12 0 10C0 8 3.58172 4 8 4ZM11.9607 7.44284L11.9807 7.60321C11.9935 7.73372 12.0001 7.86607 12.0001 7.99995C12.0001 10.2091 10.2092 12 8.00008 12C5.79094 12 4.00008 10.2091 4.00008 7.99995C4.00008 7.81114 4.01316 7.62538 4.03847 7.44353C2.83765 8.29832 2.00008 9.34085 2.00008 9.99995C2.00008 11.2785 5.15195 14 8.00008 14C10.8482 14 14.0001 11.2785 14.0001 9.99995C14.0001 9.34085 13.1625 8.29832 11.9607 7.44284Z" fill="#545E6B"/>
<path d="M0.884033 2.5672C0.607891 2.0889 0.771767 1.47731 1.25006 1.20117C1.72835 0.925034 2.33994 1.0889 2.61609 1.5672L3.78056 3.58412L2.04851 4.58412L0.884033 2.5672Z" fill="#545E6B"/>
<path d="M14.7501 1.20117C14.2718 0.925034 13.6602 1.0889 13.384 1.5672L12.2323 3.56212L13.9643 4.56212L15.1161 2.5672C15.3922 2.0889 15.2284 1.47731 14.7501 1.20117Z" fill="#545E6B"/>
</svg>
