<svg width="12" height="12" viewBox="0 0 12 12" fill="#1B3380" xmlns="http://www.w3.org/2000/svg">
<path fill-rule="evenodd" clip-rule="evenodd" d="M0.85712 0.000140592C1.33049 0.000140592 1.71424 0.383892 1.71424 0.857273V10.2857H11.1426C11.6159 10.2857 11.9997 10.6695 11.9997 11.1429C11.9997 11.6162 11.6159 12 11.1426 12H0V0.857273C0 0.383892 0.383746 0.000140592 0.85712 0.000140592ZM10.3761 0.473999C10.5878 0.0505939 11.1026 -0.121025 11.526 0.0906777C11.9494 0.30238 12.121 0.817237 11.9093 1.24064L9.33796 6.38344C9.02209 7.01519 8.12057 7.01519 7.8047 6.38344L6.85709 4.48819L5.05236 8.09771C4.84066 8.52111 4.32582 8.69273 3.90242 8.48103C3.47902 8.26933 3.3074 7.75447 3.5191 7.33106L6.09046 2.18827C6.40633 1.55652 7.30785 1.55652 7.62372 2.18827L8.57133 4.08351L10.3761 0.473999Z" />
</svg>
