<svg width="16" height="10" viewBox="0 0 16 10" fill="none" xmlns="http://www.w3.org/2000/svg">
<path fill-rule="evenodd" clip-rule="evenodd" d="M10 10H14.7181C15.1638 10 15.3255 9.95359 15.4884 9.86643C15.6514 9.77928 15.7793 9.65139 15.8664 9.48842C15.9536 9.32546 16 9.16382 16 8.71806V1.28196C16 0.836204 15.9536 0.674562 15.8664 0.511599C15.7793 0.348636 15.6514 0.220741 15.4884 0.133588C15.3255 0.0464344 15.1638 2.19345e-05 14.7181 2.19345e-05H10V2.00002H14V8H10V10ZM1.28194 9.99998H6V7.99998H2V1.99999H6V0H1.28194C0.836183 0 0.67454 0.0464115 0.511577 0.133565C0.348614 0.220718 0.22072 0.348614 0.133566 0.511576C0.0464128 0.674539 0 0.836181 0 1.28194V8.71804C0 9.1638 0.0464128 9.32544 0.133566 9.4884C0.22072 9.65136 0.348614 9.77926 0.511577 9.86641C0.67454 9.95356 0.836183 9.99998 1.28194 9.99998ZM7 6.00006H9C9.55229 6.00006 10 5.55235 10 5.00006C10 4.44778 9.55229 4.00007 9 4.00007H7C6.44772 4.00007 6 4.44778 6 5.00006C6 5.55235 6.44772 6.00006 7 6.00006Z" fill="#545E6B"/>
</svg>
