<svg width="16" height="14" viewBox="0 0 16 14" fill="none" xmlns="http://www.w3.org/2000/svg">
<path d="M15.6763 5.73633C16.1079 5.34033 16.1079 4.65967 15.6763 4.26367L11.7106 0.621277C11.3281 0.26994 10.7403 0.269927 10.3577 0.621245L10.2805 0.692186C9.84904 1.08842 9.84904 1.76899 10.2805 2.16523L12.2783 4H2C0.895508 4 0 4.89551 0 6V12C0 13.1045 0.895508 14 2 14H5C5.55228 14 6 13.5523 6 13C6 12.4477 5.55228 12 5 12H3C2.44775 12 2 11.5522 2 11V7C2 6.72461 2.11182 6.4751 2.29199 6.29395C2.47266 6.1123 2.72314 6 3 6H12.2783L10.2805 7.83477C9.84904 8.23101 9.84904 8.91158 10.2805 9.30781L10.3577 9.37876C10.7403 9.73007 11.3281 9.73006 11.7106 9.37872L15.6763 5.73633Z" fill="#545E6B"/>
</svg>
