<svg width="16" height="16" viewBox="0 0 16 16" fill="none" xmlns="http://www.w3.org/2000/svg">
<path fill-rule="evenodd" clip-rule="evenodd" d="M8 0C12.4183 0 16 3.58172 16 8C16 12.4183 12.4183 16 8 16C3.58172 16 0 12.4183 0 8C0 3.58172 3.58172 0 8 0ZM12 8H4C4 10.6667 5.33333 12 8 12C10.5859 12 11.918 10.7463 11.9963 8.23875L12 8ZM11 4C10.4477 4 10 4.44772 10 5C10 5.55228 10.4477 6 11 6C11.5523 6 12 5.55228 12 5C12 4.44772 11.5523 4 11 4ZM5 4C4.44772 4 4 4.44772 4 5C4 5.55228 4.44772 6 5 6C5.55228 6 6 5.55228 6 5C6 4.44772 5.55228 4 5 4Z" fill="#545E6B"/>
</svg>
