<svg width="16" height="16" viewBox="0 0 16 16" fill="none" xmlns="http://www.w3.org/2000/svg">
<path fill-rule="evenodd" clip-rule="evenodd" d="M9.6 1.80218C10.1729 1.94951 10.7294 2.17736 11.2515 2.48572L12.5255 1.21178L14.7882 3.47452L13.5143 4.74846C13.8226 5.27057 14.0505 5.82707 14.1978 6.4H16V9.6H14.1978C14.0505 10.1729 13.8226 10.7294 13.5143 11.2515L14.7882 12.5255L12.5255 14.7882L11.2515 13.5143C10.7294 13.8226 10.1729 14.0505 9.6 14.1978V16H6.4V14.1978C5.82707 14.0505 5.27057 13.8226 4.74846 13.5143L3.47452 14.7882L1.21178 12.5255L2.48572 11.2515C2.17736 10.7294 1.94951 10.1729 1.80218 9.6H0V6.4H1.80218C1.94951 5.82707 2.17736 5.27057 2.48572 4.74846L1.21178 3.47452L3.47452 1.21178L4.74846 2.48572C5.27057 2.17736 5.82707 1.94951 6.4 1.80218V0H9.6V1.80218ZM5.73719 10.2627C6.98686 11.5124 9.01299 11.5124 10.2627 10.2627C11.5123 9.01303 11.5123 6.9869 10.2627 5.73723C9.01299 4.48755 6.98686 4.48755 5.73719 5.73723C4.48751 6.9869 4.48751 9.01303 5.73719 10.2627Z" fill="#545E6B"/>
</svg>
