<svg width="16" height="12" viewBox="0 0 16 12" fill="none" xmlns="http://www.w3.org/2000/svg">
<path fill-rule="evenodd" clip-rule="evenodd" d="M16 11.25C16 11.6642 15.6418 12 15.2 12H0.8C0.358172 12 0 11.6642 0 11.25V0.75C0 0.335786 0.358172 0 0.8 0H15.2C15.6418 0 16 0.335786 16 0.75V11.25ZM2 7.5C1.77909 7.5 1.6 7.33211 1.6 7.125V6.375C1.6 6.16789 1.77909 6 2 6H3.2V3H2C1.77909 3 1.6 2.83211 1.6 2.625V1.875C1.6 1.66789 1.77909 1.5 2 1.5H6C6.22091 1.5 6.4 1.66789 6.4 1.875V2.625C6.4 2.83211 6.22091 3 6 3H4.8V6H6C6.22091 6 6.4 6.16789 6.4 6.375V7.125C6.4 7.33211 6.22091 7.5 6 7.5H2Z" fill="#545E6B"/>
</svg>
