<svg width="16" height="14" viewBox="0 0 16 14" fill="none" xmlns="http://www.w3.org/2000/svg">
<path d="M0.32373 5.73633C-0.10791 5.34033 -0.10791 4.65967 0.32373 4.26367L4.2894 0.621277C4.67192 0.26994 5.25973 0.269927 5.64227 0.621245L5.71951 0.692186C6.15096 1.08842 6.15096 1.76899 5.71951 2.16523L3.72168 4H14C15.1045 4 16 4.89551 16 6V12C16 13.1045 15.1045 14 14 14H11C10.4477 14 10 13.5523 10 13C10 12.4477 10.4477 12 11 12H13C13.5522 12 14 11.5522 14 11V7C14 6.72461 13.8882 6.4751 13.708 6.29395C13.5273 6.1123 13.2769 6 13 6H3.72168L5.71951 7.83477C6.15096 8.23101 6.15096 8.91158 5.71951 9.30781L5.64227 9.37876C5.25973 9.73007 4.67192 9.73006 4.2894 9.37872L0.32373 5.73633Z" fill="#545E6B"/>
</svg>
