<svg width="16" height="16" viewBox="0 0 24 25" fill="#545E6B" xmlns="http://www.w3.org/2000/svg">
<path d="M0.0104596 23.3913C0.000171117 23.062 0.104544 22.7393 0.30559 22.4789C0.771731 21.8423 1.12721 21.1308 1.35695 20.3749C1.61453 19.5447 2.16349 18.8836 2.76952 18.2761C5.75787 15.2825 8.74773 12.289 11.7391 9.29539C11.9238 9.1105 12.2445 8.95579 12.2745 8.75354C12.3016 8.56638 11.9141 8.47431 11.7353 8.30073C11.5194 8.10405 11.3888 7.83008 11.3716 7.53768C11.3545 7.24529 11.4522 6.95782 11.6437 6.73703C12.1094 6.19581 12.6175 5.69285 13.1629 5.23295C13.6195 4.84731 14.1099 4.88127 14.5815 5.18691C14.7753 5.31219 14.8759 5.27295 15.0178 5.12805C15.932 4.2013 16.8499 3.27882 17.7716 2.36063C18.4738 1.66632 19.2353 1.06937 20.2581 0.926731C20.7443 0.84963 21.2424 0.924452 21.6849 1.14107C23.0367 1.815 23.85 2.90098 24.0002 4.42015C24.0753 5.19748 23.6998 5.85933 23.2387 6.44874C22.517 7.36643 21.6166 8.11432 20.8078 8.95126C20.5074 9.26597 20.1935 9.57538 19.8728 9.87348C19.7226 10.0139 19.6903 10.1142 19.812 10.3067C20.2055 10.9308 20.1785 11.2878 19.6873 11.8258C19.266 12.2885 18.8275 12.7367 18.3724 13.1654C17.7175 13.7805 16.9636 13.7141 16.4589 12.9632C16.2336 12.6303 16.1285 12.7367 15.9242 12.939C13.0315 15.8158 10.1355 18.6897 7.23628 21.5605C6.5972 22.1929 5.98892 22.8653 5.17262 23.2857C4.87223 23.4411 4.57184 23.6011 4.23916 23.663C3.63313 23.7815 3.13074 24.0773 2.65012 24.4532C1.82405 25.0969 0.942412 25.032 0.352901 24.3151C0.12845 24.0606 0.00636453 23.7313 0.0104596 23.3913ZM1.61603 23.7785C1.72192 23.7943 1.81879 23.7083 1.92618 23.6442C2.61182 23.2374 3.27792 22.8057 4.06344 22.5876C4.75057 22.3952 5.3153 21.9839 5.8177 21.4767C6.89309 20.3955 7.97223 19.3163 9.05513 18.2391C11.0264 16.2656 12.9909 14.2853 14.9735 12.3247C15.2484 12.053 15.2266 11.9126 14.9607 11.6636C14.3765 11.1172 13.8118 10.5474 13.2681 9.96103C13.03 9.70444 12.9023 9.69161 12.644 9.95273C9.59007 13.0394 6.52811 16.1167 3.45815 19.1847C2.86391 19.7632 2.4534 20.5056 2.27839 21.3182C2.17372 21.7708 1.97907 22.1975 1.70615 22.5725C1.56947 22.7672 1.41402 22.9499 1.28711 23.1491C1.10237 23.4434 1.26308 23.7702 1.61603 23.7792V23.7785Z" fill="#545E6B"/>
</svg>
