<svg width="8" height="14" viewBox="0 0 8 14" fill="#545E6B" xmlns="http://www.w3.org/2000/svg">
<path fill-rule="evenodd" clip-rule="evenodd" d="M1.5 3.5C2.32843 3.5 3 2.82843 3 2C3 1.17157 2.32843 0.5 1.5 0.5C0.671573 0.5 0 1.17157 0 2C0 2.82843 0.671573 3.5 1.5 3.5ZM6.5 3.5C7.32843 3.5 8 2.82843 8 2C8 1.17157 7.32843 0.5 6.5 0.5C5.67157 0.5 5 1.17157 5 2C5 2.82843 5.67157 3.5 6.5 3.5ZM3 12C3 12.8284 2.32843 13.5 1.5 13.5C0.671573 13.5 0 12.8284 0 12C0 11.1716 0.671573 10.5 1.5 10.5C2.32843 10.5 3 11.1716 3 12ZM6.5 8.50195C7.32843 8.50195 8 7.83038 8 7.00195C8 6.17353 7.32843 5.50195 6.5 5.50195C5.67157 5.50195 5 6.17353 5 7.00195C5 7.83038 5.67157 8.50195 6.5 8.50195ZM3 7.00195C3 7.83038 2.32843 8.50195 1.5 8.50195C0.671573 8.50195 0 7.83038 0 7.00195C0 6.17353 0.671573 5.50195 1.5 5.50195C2.32843 5.50195 3 6.17353 3 7.00195ZM6.5 13.502C7.32843 13.502 8 12.8304 8 12.002C8 11.1735 7.32843 10.502 6.5 10.502C5.67157 10.502 5 11.1735 5 12.002C5 12.8304 5.67157 13.502 6.5 13.502Z" />
</svg>
