<svg width="16" height="16" viewBox="0 0 16 16" fill="none" xmlns="http://www.w3.org/2000/svg">
<g id="Union">
<path d="M9 2.39625L2 3.66898V12.3307L9 13.6034V11.4999H10.008C10.3672 11.4999 10.6966 11.4762 11 11.4319V14.8016C11 15.4255 10.435 15.8971 9.82111 15.7855L0.821115 14.1491C0.345625 14.0627 0 13.6485 0 13.1653V2.83441C0 2.35112 0.345624 1.93699 0.821115 1.85054L9.82111 0.214172C10.435 0.102565 11 0.574138 11 1.19804V4.43388C10.9523 4.42902 10.9048 4.42941 10.8575 4.43621C10.5551 4.47975 10.2688 4.49993 10.0092 4.49993H9V2.39625Z" fill="#545E6B"/>
<path d="M7.00522 9.49951V11.9995L3 7.99951L7.00522 3.99951V6.49951H10.0092C10.3195 6.49951 10.6535 6.47547 11 6.42559C11.6468 6.3325 12.3374 6.14928 13 5.86384C14.2735 5.31525 15.4435 4.38912 16 2.99951C16.0002 5.73965 14.3295 8.89692 11 9.42333C10.6846 9.47319 10.3544 9.49987 10.0092 9.49993L7.00522 9.49951Z" fill="#545E6B"/>
</g>
</svg>
