<svg width="16" height="16" viewBox="0 0 16 16" fill="white" xmlns="http://www.w3.org/2000/svg">
<g clip-path="url(#clip0_156_998)">
<path d="M5 1C5.55229 1 6 1.44772 6 2C6 2.55229 5.55229 3 5 3L3 3L3 13L13 13V11C13 10.4477 13.4477 10 14 10C14.5523 10 15 10.4477 15 11V13C15 14.1046 14.1046 15 13 15L3 15C1.89543 15 1 14.1046 1 13L1 3C1 1.89543 1.89543 1 3 1L5 1Z" />
<path d="M10.4912 3.77778H11.5943V1L16 5.44444L11.5943 9.88889L11.5943 7.11111H10.4899C7.2 7.11111 5.55 9.33333 5 11C5 7.11111 6.65 3.77778 10.4912 3.77778Z" />
</g>
<defs>
<clipPath id="clip0_156_998">
<rect width="16" height="16" fill="white"/>
</clipPath>
</defs>
</svg>
