<svg width="14" height="14" viewBox="0 0 14 14" fill="none" xmlns="http://www.w3.org/2000/svg">
<path d="M0.53553 0.535523C-0.17851 1.24955 -0.17851 2.40723 0.53553 3.12126L4.41437 7.00005L0.535637 10.8787C-0.178403 11.5928 -0.178403 12.7504 0.535637 13.4645C1.24968 14.1785 2.40736 14.1785 3.1214 13.4645L7.00014 9.58579L10.8786 13.4642C11.5926 14.1782 12.7503 14.1782 13.4644 13.4642C14.1784 12.7502 14.1784 11.5925 13.4644 10.8785L9.58591 7.00005L13.4645 3.12154C14.1785 2.4075 14.1785 1.24983 13.4645 0.5358C12.7504 -0.178231 11.5927 -0.178231 10.8787 0.5358L7.00014 4.41432L3.1213 0.535523C2.40726 -0.178508 1.24957 -0.178508 0.53553 0.535523Z" fill="#545E6B"/>
</svg>
