<svg width="14" height="16" viewBox="0 0 14 16" fill="none" xmlns="http://www.w3.org/2000/svg">
<path d="M7 0L0 2.90909V7.27273C0 11.3091 2.98667 15.0836 7 16C11.0133 15.0836 14 11.3091 14 7.27273V2.90909L7 0ZM7 2.90909C7.61884 2.90909 8.21233 3.13896 8.64992 3.54813C9.0875 3.9573 9.33333 4.51226 9.33333 5.09091C9.33333 5.66956 9.0875 6.22452 8.64992 6.63369C8.21233 7.04286 7.61884 7.27273 7 7.27273C6.38116 7.27273 5.78767 7.04286 5.35008 6.63369C4.9125 6.22452 4.66667 5.66956 4.66667 5.09091C4.66667 4.51226 4.9125 3.9573 5.35008 3.54813C5.78767 3.13896 6.38116 2.90909 7 2.90909ZM10.99 11.6364C10.0489 12.9818 8.64111 13.9927 7 14.4873C5.35889 13.9927 3.95111 12.9818 3.01 11.6364C2.74556 11.2727 2.52 10.9091 2.33333 10.5236C2.33333 9.32364 4.44111 8.34182 7 8.34182C9.55889 8.34182 11.6667 9.30182 11.6667 10.5236C11.48 10.9091 11.2544 11.2727 10.99 11.6364Z" fill="#545E6B"/>
</svg>
