<svg width="14" height="14" viewBox="0 0 14 14" fill="none" xmlns="http://www.w3.org/2000/svg">
<path d="M6.99992 0.333008C3.31992 0.333008 0.333252 3.31967 0.333252 6.99967C0.333252 10.6797 3.31992 13.6663 6.99992 13.6663C10.6799 13.6663 13.6666 10.6797 13.6666 6.99967C13.6666 3.31967 10.6799 0.333008 6.99992 0.333008ZM7.58659 10.8397V11.6663H6.41992V10.8063C5.92659 10.6863 4.82658 10.293 4.40658 8.83301L5.50659 8.38634C5.54659 8.53301 5.89325 9.77967 7.10658 9.77967C7.72658 9.77967 8.42659 9.45967 8.42659 8.70634C8.42659 8.06634 7.95992 7.73301 6.90658 7.35301C6.17325 7.09301 4.67325 6.66634 4.67325 5.14634C4.67325 5.07967 4.67992 3.54634 6.41992 3.17301V2.33301H7.58659V3.15967C8.81325 3.37301 9.25992 4.35301 9.35992 4.64634L8.30658 5.09301C8.23325 4.85967 7.91325 4.19967 7.03992 4.19967C6.57325 4.19967 5.83325 4.44634 5.83325 5.12634C5.83325 5.75967 6.40659 5.99967 7.59325 6.39301C9.19325 6.94634 9.59992 7.75967 9.59992 8.69301C9.59992 10.4463 7.93325 10.7797 7.58659 10.8397Z" fill="#545E6B"/>
</svg>
