<svg width="16" height="16" viewBox="0 0 16 16" fill="none" xmlns="http://www.w3.org/2000/svg">
<path fill-rule="evenodd" clip-rule="evenodd" d="M9.4 2.57691C9.90131 2.70582 10.3883 2.90519 10.8451 3.175L11.9598 2.0603L13.9397 4.0402L12.825 5.1549C13.0948 5.61175 13.2942 6.09869 13.4231 6.6H15V9.4H13.4231C13.2942 9.90131 13.0948 10.3883 12.825 10.8451L13.9397 11.9598L11.9598 13.9397L10.8451 12.825C10.3883 13.0948 9.90131 13.2942 9.4 13.4231V15H6.6V13.4231C6.09869 13.2942 5.61175 13.0948 5.1549 12.825L4.0402 13.9397L2.0603 11.9598L3.175 10.8451C2.90519 10.3883 2.70582 9.90131 2.57691 9.4H1V6.6H2.57691C2.70582 6.09869 2.90519 5.61175 3.175 5.1549L2.0603 4.0402L4.0402 2.0603L5.1549 3.175C5.61175 2.90519 6.09869 2.70582 6.6 2.57691V1H9.4V2.57691ZM6.0201 9.9799C7.11357 11.0734 8.88643 11.0734 9.9799 9.9799C11.0734 8.88643 11.0734 7.11357 9.9799 6.0201C8.88643 4.92663 7.11357 4.92663 6.0201 6.0201C4.92663 7.11357 4.92663 8.88643 6.0201 9.9799Z" fill="#545E6B"/>
</svg>
