<svg width="58" height="63" viewBox="0 0 58 63" fill="none" xmlns="http://www.w3.org/2000/svg">
<path fill-rule="evenodd" clip-rule="evenodd" d="M53.75 0C54.7442 0.00087526 55.6974 0.396538 56.4 1.1C57.1035 1.80259 57.4991 2.75577 57.5 3.75V58.75C57.5 59.7446 57.1049 60.6984 56.4016 61.4016C55.6984 62.1049 54.7446 62.5 53.75 62.5H13.75C12.7554 62.5 11.8016 62.1049 11.0983 61.4016C10.3951 60.6984 10 59.7446 10 58.75V50H3.75C2.75544 50 1.80161 49.6049 1.09835 48.9016C0.395088 48.1984 0 47.2446 0 46.25V16.25C0 15.2554 0.395088 14.3016 1.09835 13.5983C1.80161 12.8951 2.75544 12.5 3.75 12.5H10V3.75C10 2.75544 10.3951 1.80161 11.0983 1.09835C11.8016 0.395088 12.7554 0 13.75 0H53.75ZM2.8732 47.1268C3.10625 47.3599 3.42048 47.4936 3.75 47.5H36.25C36.5795 47.4936 36.8938 47.3599 37.1268 47.1268C37.3599 46.8938 37.4936 46.5795 37.5 46.25V16.25C37.4936 15.9205 37.3599 15.6062 37.1268 15.3732C36.8938 15.1402 36.5795 15.0064 36.25 15H3.75C3.42048 15.0064 3.10625 15.1402 2.8732 15.3732C2.64015 15.6062 2.5064 15.9205 2.5 16.25V46.25C2.5064 46.5795 2.64015 46.8938 2.8732 47.1268ZM55 58.75V19.45V3.75C54.9936 3.42048 54.8599 3.10625 54.6268 2.8732C54.3938 2.64015 54.0795 2.5064 53.75 2.5H13.75C13.4205 2.5064 13.1062 2.64015 12.8732 2.8732C12.6402 3.10625 12.5064 3.42048 12.5 3.75V12.5H36.25C37.2446 12.5 38.1984 12.8951 38.9016 13.5983C39.6049 14.3016 40 15.2554 40 16.25V46.25C40 47.2446 39.6049 48.1984 38.9016 48.9016C38.1984 49.6049 37.2446 50 36.25 50H12.5V58.75C12.5064 59.0795 12.6402 59.3938 12.8732 59.6268C13.1062 59.8599 13.4205 59.9936 13.75 60H53.75C54.0795 59.9936 54.3938 59.8599 54.6268 59.6268C54.8599 59.3938 54.9936 59.0795 55 58.75ZM21.9952 30.9963L27.8452 38.4963V38.5213C27.9332 38.6318 27.9979 38.759 28.0356 38.8952C28.0732 39.0314 28.083 39.1738 28.0643 39.3138C28.0457 39.4539 27.9989 39.5887 27.9269 39.7103C27.8549 39.8318 27.759 39.9376 27.6452 40.0213C27.3816 40.2266 27.0541 40.3328 26.7202 40.3212C26.5218 40.3372 26.3225 40.3045 26.1395 40.2261C25.9566 40.1477 25.7955 40.0259 25.6702 39.8713L20.4702 33.1213L15.2452 39.8962C15.1147 40.0432 14.9521 40.158 14.77 40.2318C14.5878 40.3055 14.3911 40.3361 14.1952 40.3212C13.8612 40.3328 13.5338 40.2266 13.2702 40.0213C13.1563 39.9376 13.0605 39.8318 12.9885 39.7103C12.9164 39.5887 12.8697 39.4539 12.851 39.3138C12.8323 39.1738 12.8421 39.0314 12.8798 38.8952C12.9174 38.759 12.9822 38.6318 13.0702 38.5213L18.9202 31.0212L13.4202 24.0212C13.2796 23.8346 13.2089 23.6046 13.2202 23.3713C13.22 23.2088 13.2557 23.0484 13.3249 22.9014C13.394 22.7544 13.4949 22.6246 13.6202 22.5213C13.8768 22.2979 14.2049 22.1737 14.5452 22.1712C14.7661 22.1693 14.9845 22.2178 15.1839 22.3131C15.3832 22.4084 15.5581 22.548 15.6952 22.7213L20.4702 28.8963L25.2202 22.7213C25.3373 22.5643 25.4855 22.4331 25.6556 22.336C25.8257 22.2389 26.0139 22.1779 26.2087 22.1567C26.4034 22.1356 26.6003 22.1549 26.7873 22.2133C26.9742 22.2717 27.1471 22.368 27.2952 22.4963C27.4205 22.5996 27.5213 22.7294 27.5905 22.8764C27.6596 23.0234 27.6954 23.1838 27.6952 23.3463C27.7092 23.5842 27.6283 23.8179 27.4702 23.9963L21.9952 30.9963Z" fill="#DCDCDE"/>
</svg>
