<svg width="16" height="16" viewBox="0 0 24 24" fill="none" xmlns="http://www.w3.org/2000/svg">
<path fill-rule="evenodd" clip-rule="evenodd" d="M6.67765 3.64204C5.64385 3.78108 5.00279 4.04791 4.5257 4.5254L4.5254 4.5257C4.04791 5.00279 3.78108 5.64385 3.64204 6.67765C3.50106 7.72582 3.5 9.10036 3.5 11V13C3.5 14.8996 3.50106 16.2742 3.64204 17.3224C3.78108 18.3561 4.04791 18.9972 4.5254 19.4743L4.5257 19.4746C5.00279 19.9521 5.64385 20.2189 6.67765 20.358C7.72582 20.4989 9.10036 20.5 11 20.5H13C14.8996 20.5 16.2742 20.4989 17.3224 20.358C18.3561 20.2189 18.9972 19.9521 19.4743 19.4746L19.4746 19.4743C19.9521 18.9972 20.2189 18.3561 20.358 17.3224C20.4989 16.2742 20.5 14.8996 20.5 13V11C20.5 9.10036 20.4989 7.72582 20.358 6.67765C20.2189 5.64385 19.9521 5.00279 19.4746 4.5257L19.4743 4.5254C18.9972 4.04791 18.3561 3.78108 17.3224 3.64204C16.2742 3.50106 14.8996 3.5 13 3.5H11C9.10036 3.5 7.72582 3.50106 6.67765 3.64204ZM10.9613 2.5L11 2.5H13L13.0387 2.5C14.8914 2.49999 16.3331 2.49999 17.4556 2.65096C18.6002 2.8049 19.4875 3.124 20.1814 3.8183C20.8759 4.51221 21.1951 5.39965 21.349 6.54435C21.5 7.66688 21.5 9.10858 21.5 10.9613V11V13V13.0387C21.5 14.8914 21.5 16.3331 21.349 17.4556C21.1951 18.6003 20.876 19.4877 20.1816 20.1816C19.4877 20.876 18.6003 21.1951 17.4556 21.349C16.3331 21.5 14.8914 21.5 13.0387 21.5H13H11H10.9613C9.10858 21.5 7.66688 21.5 6.54435 21.349C5.39965 21.1951 4.51221 20.8759 3.8183 20.1814C3.124 19.4875 2.8049 18.6002 2.65096 17.4556C2.49999 16.3331 2.49999 14.8914 2.5 13.0387L2.5 13V11L2.5 10.9613C2.49999 9.10858 2.49999 7.66687 2.65096 6.54435C2.80491 5.39973 3.12404 4.51234 3.81845 3.81845C4.51234 3.12404 5.39973 2.80491 6.54435 2.65096C7.66687 2.49999 9.10858 2.49999 10.9613 2.5ZM20.1816 20.1816L20.1817 20.1814L19.828 19.828L20.1814 20.1817L20.1816 20.1816ZM18.998 14.29L18.654 13.947L18.639 13.931L18.6179 13.9099C18.2266 13.5197 17.91 13.2038 17.631 12.969C17.339 12.723 17.055 12.535 16.722 12.435C16.2511 12.293 15.7489 12.293 15.278 12.435C14.945 12.535 14.661 12.723 14.368 12.969C14.0901 13.2037 13.7736 13.5194 13.3826 13.9095L13.361 13.931L13.346 13.947L13.346 13.9471C13.046 14.247 12.846 14.447 12.683 14.581C12.522 14.714 12.452 14.736 12.423 14.741C12.3024 14.7622 12.1782 14.7383 12.074 14.674C12.05 14.658 11.993 14.612 11.893 14.429C11.7548 14.1561 11.628 13.8775 11.513 13.594L11.46 13.47L11.447 13.441C11.083 12.591 10.793 11.914 10.511 11.413C10.224 10.903 9.905 10.498 9.446 10.268C9.03467 10.0619 8.57444 9.97335 8.116 10.012C7.603 10.055 7.157 10.312 6.701 10.679C6.253 11.04 5.732 11.56 5.078 12.215L5.056 12.236L5 12.293V13.707L5.763 12.943C6.444 12.263 6.927 11.781 7.328 11.458C7.728 11.137 7.983 11.027 8.199 11.008C8.47444 10.9848 8.75094 11.038 8.998 11.162C9.192 11.259 9.388 11.456 9.639 11.903C9.892 12.353 10.161 12.978 10.54 13.863L10.594 13.988L10.604 14.011L10.6048 14.0128C10.7584 14.372 10.8882 14.6754 11.014 14.907C11.144 15.146 11.304 15.373 11.548 15.524C11.861 15.7178 12.2344 15.7897 12.597 15.726C12.879 15.676 13.111 15.524 13.32 15.351C13.524 15.183 13.758 14.949 14.036 14.671L14.053 14.654C14.473 14.234 14.766 13.942 15.013 13.734C15.255 13.529 15.419 13.437 15.567 13.392C15.849 13.307 16.151 13.307 16.433 13.392C16.581 13.437 16.745 13.529 16.987 13.733C17.234 13.942 17.527 14.234 17.947 14.654L18.976 15.682C18.989 15.272 18.995 14.812 18.998 14.29ZM18 7.5C18 8.32843 17.3284 9 16.5 9C15.6716 9 15 8.32843 15 7.5C15 6.67157 15.6716 6 16.5 6C17.3284 6 18 6.67157 18 7.5Z"  fill="#545E6B"/>
</svg>
