<svg width="59" height="64" viewBox="0 0 59 64" fill="none" xmlns="http://www.w3.org/2000/svg">
<path d="M54.5 0.75H14.5C13.5054 0.75 12.5516 1.14509 11.8483 1.84835C11.1451 2.55161 10.75 3.50544 10.75 4.5V13.25H4.5C3.50544 13.25 2.55161 13.6451 1.84835 14.3483C1.14509 15.0516 0.75 16.0054 0.75 17V47C0.75 47.9946 1.14509 48.9484 1.84835 49.6516C2.55161 50.3549 3.50544 50.75 4.5 50.75H10.75V59.5C10.75 60.4946 11.1451 61.4484 11.8483 62.1516C12.5516 62.8549 13.5054 63.25 14.5 63.25H54.5C55.4946 63.25 56.4484 62.8549 57.1516 62.1516C57.8549 61.4484 58.25 60.4946 58.25 59.5V4.5C58.25 3.50544 57.8549 2.55161 57.1516 1.84835C56.4484 1.14509 55.4946 0.75 54.5 0.75ZM40.75 23.25H55.75V40.75H40.75V23.25ZM13.25 4.5C13.25 4.16848 13.3817 3.85054 13.6161 3.61612C13.8505 3.3817 14.1685 3.25 14.5 3.25H54.5C54.8315 3.25 55.1495 3.3817 55.3839 3.61612C55.6183 3.85054 55.75 4.16848 55.75 4.5V20.75H40.75V17C40.75 16.0054 40.3549 15.0516 39.6516 14.3483C38.9484 13.6451 37.9946 13.25 37 13.25H13.25V4.5ZM3.25 47V17C3.25 16.6685 3.3817 16.3505 3.61612 16.1161C3.85054 15.8817 4.16848 15.75 4.5 15.75H37C37.3315 15.75 37.6495 15.8817 37.8839 16.1161C38.1183 16.3505 38.25 16.6685 38.25 17V47C38.25 47.3315 38.1183 47.6495 37.8839 47.8839C37.6495 48.1183 37.3315 48.25 37 48.25H4.5C4.16848 48.25 3.85054 48.1183 3.61612 47.8839C3.3817 47.6495 3.25 47.3315 3.25 47ZM54.5 60.75H14.5C14.1685 60.75 13.8505 60.6183 13.6161 60.3839C13.3817 60.1495 13.25 59.8315 13.25 59.5V50.75H37C37.9946 50.75 38.9484 50.3549 39.6516 49.6516C40.3549 48.9484 40.75 47.9946 40.75 47V43.25H55.75V59.5C55.75 59.8315 55.6183 60.1495 55.3839 60.3839C55.1495 60.6183 54.8315 60.75 54.5 60.75ZM14.5375 39.8125L10.7875 24.8125C10.7046 24.4909 10.7529 24.1496 10.9217 23.8636C11.0904 23.5776 11.3659 23.3704 11.6875 23.2875C12.0091 23.2046 12.3504 23.2529 12.6364 23.4217C12.9224 23.5904 13.1296 23.8659 13.2125 24.1875L16.1438 35.9094L19.6312 28.9312C19.7349 28.7232 19.8945 28.5483 20.0922 28.4259C20.2898 28.3036 20.5176 28.2388 20.75 28.2388C20.9824 28.2388 21.2102 28.3036 21.4078 28.4259C21.6055 28.5483 21.7651 28.7232 21.8688 28.9312L25.3562 35.9094L28.2875 24.1875C28.3724 23.8709 28.5784 23.6003 28.8609 23.4341C29.1434 23.2678 29.4799 23.2192 29.798 23.2987C30.116 23.3782 30.3901 23.5795 30.5611 23.8591C30.7322 24.1388 30.7865 24.4744 30.7125 24.7938L26.9625 39.7938C26.9003 40.041 26.764 40.2633 26.5718 40.4309C26.3797 40.5984 26.1409 40.7033 25.8875 40.7313H25.75C25.5178 40.7314 25.2901 40.6669 25.0925 40.5449C24.8949 40.4229 24.7352 40.2483 24.6312 40.0406L20.75 32.2938L16.8688 40.0594C16.7546 40.288 16.5731 40.4761 16.3487 40.5985C16.1243 40.7208 15.8679 40.7714 15.6138 40.7435C15.3598 40.7155 15.1205 40.6104 14.928 40.4423C14.7356 40.2742 14.5993 40.0511 14.5375 39.8031V39.8125Z" fill="#DCDCDE"/>
</svg>
