<svg width="24" height="16" viewBox="0 0 24 16" fill="#9B9B9B" xmlns="http://www.w3.org/2000/svg">
<path fill-rule="evenodd" clip-rule="evenodd" d="M12.0508 0.0899963V1.98669C12.6514 1.98669 13.2584 2.0183 13.8527 2.08152L14.0297 0.184827C13.3848 0.121604 12.6831 0.0899963 12.0508 0.0899963ZM14.0108 15.1118C13.3785 15.175 12.6894 15.213 12.0255 15.213H11.975C11.3118 15.2129 10.6491 15.177 9.98977 15.1055H9.82538L9.19315 15.017L8.85805 14.9664C8.58619 14.9221 8.32064 14.8716 8.05511 14.8147C5.68511 14.3982 3.48799 13.2996 1.73279 11.6535L1.6949 11.6092C1.49213 11.4013 1.30411 11.1795 1.1322 10.9454C1.10461 10.9081 1.07506 10.8722 1.04368 10.8379C0.597185 10.2258 0.280903 9.52864 0.114322 8.7895C0.0976714 8.72745 0.0870537 8.66392 0.0826795 8.59982V8.59963C0.0826795 8.51751 0.0826796 8.43539 0.0384573 8.35326C0.0156101 8.31083 0.0163427 8.22291 0.0171789 8.12254C0.0179624 8.02849 0.018837 7.92352 0.000486368 7.83483V7.67677V7.61987C-0.00453674 7.21504 0.0293594 6.81066 0.101665 6.41231L1.94148 6.87384C1.88032 7.11652 1.8401 7.36399 1.82132 7.61354C1.82249 7.78962 1.83947 7.96525 1.87194 8.13831C1.86892 8.16562 1.86892 8.19317 1.87194 8.22048C1.99189 8.76772 2.23154 9.2816 2.57371 9.72519C2.68845 9.87674 2.81081 10.0223 2.94038 10.1614L3.04788 10.2816C3.22434 10.4598 3.41005 10.6286 3.60425 10.7874C4.20479 11.2631 4.86075 11.6643 5.55782 11.9823C6.65604 12.4741 7.81141 12.8267 8.99712 13.0318C9.28795 13.0823 9.57879 13.1203 9.87593 13.1582H9.9961C10.6595 13.2317 11.3265 13.2697 11.994 13.272C12.5937 13.2723 13.1931 13.2406 13.7895 13.1772L14.0108 15.1118ZM22.1539 8.35326L24 8.79581C23.8165 9.53212 23.4876 10.2243 23.0327 10.8316L21.5027 9.71255C21.8063 9.30627 22.0275 8.8445 22.1539 8.35326ZM4.27435 1.7338C4.88604 1.43057 5.52014 1.17483 6.17104 0.968807L6.75905 2.77065C6.20313 2.94258 5.6601 3.15386 5.13418 3.40288L4.27435 1.7338ZM1.01835 4.40813L2.57369 5.49556C2.88547 5.05527 3.26041 4.66329 3.68642 4.33226L2.51048 2.84651C1.93928 3.29111 1.43648 3.81728 1.01835 4.40813ZM8.09938 0.46301C8.75169 0.335031 9.41005 0.240087 10.0719 0.178518L10.249 2.07521C9.65069 2.13145 9.05559 2.21795 8.46605 2.33441L8.09938 0.46301ZM23.0642 4.45239L21.5027 5.52719C21.7951 5.95296 22.0072 6.42864 22.1286 6.93074L23.9747 6.48184C23.7994 5.75486 23.4907 5.06673 23.0642 4.45239ZM18.9674 3.44714L19.8209 1.7591C20.4459 2.07024 21.0371 2.44525 21.5848 2.87814L20.3962 4.35756C19.9524 4.00593 19.4736 3.70086 18.9674 3.44714ZM16.0023 0.475648L15.6293 2.33441C16.2106 2.4511 16.7847 2.60098 17.3489 2.78331L17.9432 0.981445C17.3069 0.774267 16.6588 0.605359 16.0023 0.475648ZM21.5343 12.3616C20.99 12.7881 20.4056 13.1608 19.7893 13.4743L18.9168 11.7926C19.4242 11.5315 19.9067 11.2246 20.3584 10.8759L21.5343 12.3616ZM15.9833 14.802C16.6391 14.6677 17.2855 14.4903 17.9179 14.2709L17.2983 12.4754C16.7398 12.6692 16.1697 12.8276 15.5913 12.9496L15.9833 14.802Z"/>
</svg>
