<svg width="23" height="24" viewBox="0 0 23 24" fill="#9B9B9B" xmlns="http://www.w3.org/2000/svg">
<path fill-rule="evenodd" clip-rule="evenodd" d="M11.47 2.20001V0C10.3665 0.00121689 9.26892 0.159473 8.21008 0.470001L8.83008 2.58C9.68774 2.32942 10.5765 2.2015 11.47 2.20001ZM14.75 0.470001C15.8108 0.779766 16.8212 1.24121 17.75 1.84001L16.5601 3.69C15.8072 3.20596 14.9888 2.83217 14.13 2.58L14.75 0.470001ZM20.24 4.01001C20.9675 4.84187 21.5706 5.77493 22.03 6.78001L20.03 7.70001C19.6589 6.8834 19.1704 6.1254 18.5801 5.45001L20.24 4.01001ZM2.18005 12.94L0 13.25C0.156799 14.3457 0.470032 15.4133 0.930054 16.42L2.93005 15.51C2.55676 14.6942 2.30408 13.8285 2.18005 12.94ZM5.21008 21.36C4.28223 20.7612 3.44379 20.034 2.71997 19.2L4.40002 17.76C4.98529 18.4303 5.65796 19.0189 6.40002 19.51L5.21008 21.36ZM2.93005 7.70001L0.930054 6.78001C0.471313 7.78724 0.158081 8.85459 0 9.95001L2.18005 10.26C2.3028 9.37444 2.55554 8.51182 2.93005 7.70001ZM5.21008 1.84001L6.40002 3.69C5.64838 4.1802 4.96851 4.77255 4.38 5.45001L2.71997 4C3.44379 3.166 4.28223 2.43879 5.21008 1.84001ZM8.83008 20.63C9.68994 20.8862 10.5828 21.0142 11.48 21.01C12.3156 21.0483 13.1526 20.9777 13.97 20.8C14.397 20.6765 14.8148 20.5228 15.22 20.34C15.6178 20.1576 16.0021 19.947 16.37 19.71C17.1415 19.2146 17.8356 18.6081 18.4301 17.91C18.7025 17.5941 18.9531 17.26 19.1801 16.91L19.27 16.76C19.4611 16.4534 19.6347 16.1362 19.79 15.81C20.2101 14.9253 20.4901 13.9807 20.62 13.01C20.7333 12.1571 20.7333 11.2929 20.62 10.44L22.8 10.13C22.8715 10.6771 22.9083 11.2282 22.91 11.78V12.78V13.11C22.9149 13.1999 22.9149 13.2901 22.91 13.38C22.756 14.4751 22.4462 15.5426 21.99 16.55C21.96 16.61 21.9 16.71 21.9 16.71C21.71 17.1 21.5 17.48 21.28 17.85L21.14 18.07C20.8692 18.4911 20.5684 18.8921 20.24 19.27V19.33C19.5162 20.164 18.6779 20.8912 17.75 21.49H17.6801C17.2578 21.7612 16.8166 22.0018 16.36 22.21H16.26C14.7562 22.8802 13.1264 23.2212 11.48 23.21C10.3773 23.2086 9.28003 23.0538 8.21997 22.75L8.83008 20.63Z" />
</svg>
