<svg width="24" height="24" viewBox="0 0 24 24" fill="#9B9B9B" xmlns="http://www.w3.org/2000/svg">
<path fill-rule="evenodd" clip-rule="evenodd" d="M20.25 7.91748C19.9327 7.17027 19.5191 6.46768 19.0199 5.82749L20.75 4.46749C21.3701 5.26088 21.8843 6.1315 22.2799 7.05748L20.25 7.91748ZM17.25 4.11748C16.6059 3.61874 15.8958 3.21156 15.14 2.90749L15.98 0.907489C16.912 1.29076 17.7896 1.79509 18.59 2.40749L17.25 4.11748ZM12.7999 2.27748C11.9896 2.17789 11.1703 2.17789 10.36 2.27748L10.08 0.0974763C11.0757 -0.0324921 12.0842 -0.0324921 13.08 0.0974763L12.7999 2.27748ZM0.949951 7.04749L2.94995 7.91748C3.27698 7.16574 3.70056 6.45979 4.20996 5.81747L2.47998 4.46748C1.85857 5.25634 1.34409 6.12385 0.949951 7.04749ZM5.93891 4.09296L5.94995 4.10748H5.91992L5.93891 4.09296ZM5.93891 4.09296L4.62 2.35748C5.42075 1.7483 6.29829 1.24731 7.22998 0.867477L8.05994 2.86748C7.30357 3.18393 6.59078 3.59577 5.93891 4.09296ZM0 11.5975C0.000162209 11.0453 0.040262 10.4939 0.119995 9.94748L2.29993 10.2575C2.23145 10.7008 2.19804 11.1489 2.19995 11.5975C2.19995 14.0905 3.19028 16.4814 4.95312 18.2443C6.71597 20.0071 9.10694 20.9975 11.6 20.9975C14.093 20.9975 16.4839 20.0071 18.2467 18.2443C20.0095 16.4814 21 14.0905 21 11.5975C21.0002 11.1493 20.9701 10.7016 20.9099 10.2575L23.08 9.94748C23.16 10.4938 23.2001 11.0453 23.2 11.5975C23.1973 14.6732 21.9743 17.6222 19.7994 19.797C17.6246 21.9718 14.6757 23.1948 11.6 23.1975C8.52428 23.1948 5.57524 21.9718 3.40039 19.797C1.22554 17.6222 0.00264804 14.6732 0 11.5975Z" />
</svg>
