<svg width="24" height="23" viewBox="0 0 24 23" fill="#9B9B9B" xmlns="http://www.w3.org/2000/svg">
<path fill-rule="evenodd" clip-rule="evenodd" d="M10.3302 2.17999L10.0103 0C8.91519 0.159557 7.84799 0.47263 6.84024 0.929993L7.76028 2.92999C8.57724 2.55993 9.44247 2.30743 10.3302 2.17999ZM22.7102 14.76C22.3939 15.82 21.9293 16.83 21.3302 17.76L19.4803 16.58C19.9647 15.8273 20.3385 15.0089 20.5902 14.15L22.7102 14.76ZM19.2102 20.25C18.3748 20.9777 17.4384 21.5806 16.4302 22.04L15.5202 20.04C16.3355 19.6665 17.0932 19.1782 17.7702 18.59L19.2102 20.25ZM1.85025 5.20999C2.44955 4.27956 3.18038 3.44086 4.02017 2.72L5.46023 4.41C4.78244 4.9906 4.18991 5.66389 3.70022 6.41L1.85025 5.20999ZM15.5202 2.92999L16.4302 0.929993C15.4235 0.469955 14.356 0.156773 13.2603 0L12.9502 2.17999C13.8377 2.30873 14.7027 2.56118 15.5202 2.92999ZM21.3703 5.20999L19.5202 6.41C19.0394 5.65128 18.4498 4.96731 17.7702 4.38L19.2102 2.72C20.0442 3.44381 20.7715 4.28214 21.3703 5.20999ZM21.0103 11.48H23.2102C23.2138 10.3769 23.0589 9.27904 22.7503 8.22L20.6403 8.84C20.8891 9.69781 21.0137 10.5868 21.0103 11.48ZM2.58017 8.84C2.32815 9.70076 2.20016 10.5931 2.20016 11.49C2.13778 12.3504 2.19503 13.2153 2.3702 14.06C2.49545 14.4878 2.65255 14.9057 2.84017 15.31C3.02047 15.7089 3.23111 16.0933 3.47018 16.46C3.9645 17.2323 4.56741 17.9294 5.26022 18.53C5.57589 18.7997 5.91006 19.047 6.26022 19.27L6.40011 19.36C6.72323 19.5524 7.05709 19.726 7.40011 19.88C8.28665 20.3045 9.23532 20.5847 10.2102 20.71C11.0588 20.8367 11.9215 20.8367 12.7701 20.71L13.0802 22.89C12.5338 22.9701 11.9823 23.0102 11.4301 23.01C11.2652 23.01 11.0977 22.9975 10.9302 22.985C10.7627 22.9725 10.5952 22.96 10.4301 22.96H10.0902H9.82016C8.72811 22.8012 7.66415 22.4881 6.66012 22.03L6.50021 21.94C6.10781 21.757 5.72708 21.5499 5.36019 21.32L5.14022 21.18C4.72482 20.9093 4.3273 20.612 3.95016 20.29L3.88021 20.24C3.04647 19.5197 2.31918 18.6847 1.72018 17.76C1.72195 17.7469 1.72287 17.7338 1.72287 17.7206C1.72293 17.707 1.72201 17.6935 1.72018 17.68C1.449 17.2577 1.2084 16.8166 1.00021 16.36C1.00357 16.3301 1.00357 16.2999 1.00021 16.27C0.331203 14.7658 -0.00967859 13.1363 0.000209104 11.49C0.00075842 10.3832 0.159023 9.28214 0.47018 8.22L2.58017 8.84Z" />
</svg>
