<svg width="24" height="17" viewBox="0 0 24 17" fill="#9B9B9B" xmlns="http://www.w3.org/2000/svg">
<path fill-rule="evenodd" clip-rule="evenodd" d="M11.9652 0.940002V2.83924C11.3638 2.83924 10.756 2.86456 10.1609 2.93419L9.98365 1.03496C10.6294 0.940002 11.3321 0.940002 11.9651 0.940002H11.9652ZM10.0027 15.9819C10.6357 16.0452 11.3258 16.0832 11.9905 16.0832H12.0412C12.7249 16.0832 13.3833 16.0389 14.029 15.9756C14.0838 15.9721 14.1388 15.9721 14.1936 15.9756L14.8267 15.887L15.1623 15.8363C15.4345 15.792 15.7003 15.7414 15.9662 15.6844C18.3394 15.2673 20.5394 14.1673 22.297 12.519L22.335 12.4747C22.535 12.2637 22.7231 12.0418 22.8985 11.8099L22.9871 11.696C23.433 11.0823 23.7495 10.3845 23.9177 9.64482C23.9237 9.58377 23.9237 9.52227 23.9177 9.46122V9.46103C23.9177 9.3788 23.9177 9.29657 23.962 9.21433C23.9849 9.17183 23.9841 9.08205 23.9833 8.98074C23.9825 8.88589 23.9816 8.78092 24 8.6952V8.53694V8.47996C23.977 8.09329 23.9176 7.70965 23.8227 7.33409L21.9804 7.79623C22.0417 8.03923 22.082 8.28705 22.1008 8.53694C22.0999 8.71117 22.0829 8.88495 22.0501 9.05606C22.0531 9.08553 22.0531 9.11522 22.0501 9.14468C21.93 9.69265 21.69 10.2072 21.3474 10.6514C21.2325 10.8032 21.1099 10.949 20.9802 11.0882L20.8726 11.2085C20.6957 11.3868 20.5098 11.5559 20.3154 11.715C19.7149 12.1908 19.0579 12.5906 18.3593 12.9052C17.2609 13.4027 16.1036 13.758 14.9153 13.9624C14.6241 14.0131 14.3329 14.0574 14.0354 14.0954H13.915C13.2511 14.1742 12.5832 14.2144 11.9146 14.2156C11.314 14.2158 10.7138 14.1841 10.1166 14.1207L10.0027 15.9819ZM1.84862 9.21433L0 9.65748C0.186093 10.3939 0.515227 11.0866 0.968628 11.696L2.5007 10.5754C2.19665 10.1686 1.97511 9.70623 1.84862 9.21433ZM19.7521 2.58601C19.1385 2.28295 18.5038 2.02482 17.8528 1.81365L17.264 3.62425C17.8207 3.79641 18.3644 4.00797 18.891 4.25732L19.7521 2.58601ZM23.0124 5.26392L21.455 6.35281C21.1428 5.91192 20.7674 5.51942 20.3408 5.18795L21.5183 3.70021C22.0903 4.1454 22.5937 4.67227 23.0124 5.26392ZM15.9219 1.31352C15.2687 1.18536 14.6095 1.09027 13.9467 1.02862L13.7694 2.92786C14.3684 2.98209 14.9643 3.06662 15.5548 3.1811L15.9219 1.31352ZM0.936943 5.30824L2.5007 6.38448C2.20903 6.80918 1.99662 7.28319 1.87389 7.78357L0.0253478 7.34041C0.203618 6.61339 0.512476 5.92481 0.936943 5.30824ZM5.03927 4.30164L4.18463 2.605C3.55993 2.92107 2.9683 3.29856 2.4184 3.73188L3.60859 5.21328C4.05146 4.85901 4.53107 4.55337 5.03927 4.30164ZM8.00845 1.32617L8.38194 3.18742C7.79984 3.30426 7.22493 3.45433 6.65999 3.6369L6.06486 1.83264C6.70202 1.62519 7.35107 1.45605 8.00845 1.32617ZM2.46902 13.228C3.01206 13.6479 3.59274 14.0166 4.20365 14.3296L5.0773 12.6456C4.56774 12.3843 4.08437 12.0748 3.63386 11.7213L2.46902 13.228ZM8.04013 15.6717C7.38412 15.5343 6.73712 15.3567 6.10288 15.1399L6.72328 13.342C7.28251 13.536 7.85346 13.6946 8.43264 13.8168L8.04013 15.6717Z" />
</svg>
