<svg width="20" height="20" viewBox="0 0 20 20" fill="none" xmlns="http://www.w3.org/2000/svg">
    <path d="M1.02002 16.7149V3.273C1.02002 2.44822 5.03667 1.77945 9.98132 1.77945C14.9263 1.77945 18.9433 2.44822 18.9433 3.273V16.7149C18.9433 17.5381 14.9263 18.2085 9.98132 18.2085C5.03667 18.2085 1.02002 17.5381 1.02002 16.7149Z"
           stroke-width="1.5" stroke-miterlimit="10.433"/>
    <path d="M1.02002 3.27305L1.03197 3.34972L1.06649 3.42539L1.12357 3.50007L1.20223 3.57342L1.30247 3.64578L1.42328 3.71647L1.56434 3.78584L1.72498 3.85354L1.90453 3.91959L2.10268 3.98398L2.31841 4.04671L2.55174 4.10712L2.80166 4.16586L3.06784 4.22229L3.34963 4.27639L3.64634 4.32849L3.95767 4.37795L4.28293 4.42474L4.6218 4.46922L4.97295 4.51104L5.33671 4.54987L5.71176 4.58572L6.09842 4.61891L6.49504 4.64878L6.90195 4.67566L7.31815 4.69923L7.74332 4.71947L8.17678 4.73607L8.61787 4.74934L9.06594 4.75864L9.52064 4.76461L9.98132 4.7666C14.9263 4.7666 18.9433 4.09616 18.9433 3.27305"
           stroke-width="1.5" stroke-miterlimit="10.433"/>
</svg>
