<svg width="20" height="20" viewBox="0 0 198 210" fill="none" xmlns="http://www.w3.org/2000/svg">
<g clip-path="url(#clip0_138_234)">
<path d="M30.0122 98.3562C29.3907 98.3862 28.7735 98.2395 28.2317 97.9328C27.6899 97.6262 27.2456 97.1722 26.9502 96.6232C20.7448 86.2824 14.4129 75.7781 8.29307 65.6376L1.43533 54.2586C-0.660342 50.7803 -0.464626 47.2326 2.05915 43.0963C6.19748 36.3236 10.3644 29.408 14.3885 22.7171L18.6899 15.5807C19.3341 14.5126 19.9796 13.4458 20.6265 12.3804C22.6162 9.11058 24.6711 5.69771 26.6404 2.32571C27.362 1.09952 28.5933 -0.478153 30.9214 0.139025C32.1446 0.46192 33.6124 1.43061 33.6369 4.18951V5.78763C33.6776 9.8749 33.7224 14.1134 33.592 18.2783C33.592 19.01 33.6573 19.4637 33.8571 19.668C34.0568 19.8724 34.5053 19.9746 35.3574 19.9746C53.2277 19.9214 71.3997 19.9296 88.9682 19.9337H100.621C101.183 19.9337 101.746 19.9541 102.292 19.9746L103.075 19.9991H103.671V78.2264H88.6502L54.0676 78.2632H49.7662C44.9103 78.2632 39.8872 78.2632 34.9456 78.2223C34.3259 78.2223 33.9589 78.2836 33.8162 78.4307C33.6735 78.5779 33.6042 78.9376 33.6165 79.5098C33.7021 83.2864 33.6777 87.1244 33.6573 90.8356V93.382C33.6738 94.1821 33.5832 94.9807 33.3881 95.7567C32.9437 97.318 31.9123 98.2091 30.4037 98.3031L30.0122 98.3562ZM29.9144 1.22624C29.0541 1.22624 28.3936 1.75349 27.6964 2.94289C25.723 6.32306 23.6641 9.72776 21.6703 13.018L19.7377 16.2143L15.4363 23.3506C11.408 30.0415 7.24524 36.9613 3.10283 43.738C0.815532 47.4901 0.61982 50.5392 2.48309 53.6251L9.34093 65C15.4567 75.1528 21.7926 85.653 27.9981 95.9897C28.5322 96.8807 29.1805 97.2158 30.3139 97.1218C31.2843 97.0523 31.9041 96.5087 32.2017 95.4583C32.3678 94.7903 32.4433 94.1029 32.426 93.4147V90.8642C32.4463 87.1611 32.4708 83.3314 32.3851 79.5711C32.3851 78.9294 32.4219 78.1283 32.9356 77.6051C33.4493 77.0819 34.2077 77.0247 34.9742 77.0329C39.9076 77.0942 44.9225 77.086 49.7744 77.0738H54.0757C65.606 77.0738 77.1349 77.0615 88.6625 77.037H102.46V21.2212H102.264C101.73 21.2007 101.175 21.1844 100.633 21.1803H88.9805C71.4078 21.1803 53.2399 21.1803 35.3738 21.2212H35.337C34.4523 21.2212 33.5634 21.1353 32.9926 20.5427C32.4218 19.95 32.3607 19.01 32.3851 18.2579C32.5115 14.1216 32.4667 9.89943 32.426 5.82033V4.22221C32.4056 2.06413 31.3862 1.54913 30.6197 1.36112C30.3916 1.28491 30.1544 1.23956 29.9144 1.22624ZM45.371 61.534C43.3324 61.534 41.2938 61.534 39.3164 61.5013C36.8904 61.4767 35.2392 59.9849 35.1617 57.7982C35.1385 57.3188 35.2121 56.8396 35.3781 56.3894C35.5442 55.9392 35.7992 55.5272 36.128 55.1782C36.5534 54.7615 37.0574 54.4338 37.6103 54.2142C38.1633 53.9946 38.7543 53.8874 39.349 53.8989C40.7638 53.8662 42.203 53.8744 43.5851 53.8989C44.8083 53.8989 46.06 53.8989 47.2913 53.8989C48.6817 53.8989 50.1127 53.8989 51.5275 53.8989C53.9738 53.9562 55.6047 55.4112 55.6536 57.6061C55.6779 58.096 55.603 58.5857 55.4334 59.0458C55.2639 59.5059 55.0032 59.9269 54.667 60.2832C54.2453 60.6923 53.7454 61.0117 53.1976 61.2224C52.6497 61.4331 52.065 61.5307 51.4786 61.5094C49.4237 61.5217 47.3811 61.534 45.371 61.534ZM41.7341 55.1047C40.9472 55.1047 40.1604 55.1047 39.3776 55.1251C38.5029 55.0995 37.6539 55.4229 37.0169 56.0243C36.7995 56.2566 36.6315 56.5307 36.5228 56.83C36.4142 57.1292 36.3673 57.4475 36.3849 57.7655C36.4257 59.2696 37.5795 60.2546 39.3286 60.2751C43.2427 60.316 47.3239 60.316 51.4664 60.2751C51.8895 60.2965 52.3126 60.2331 52.7109 60.0885C53.1093 59.9439 53.4749 59.7211 53.7863 59.4331C54.0094 59.1926 54.1816 58.9092 54.2923 58.6001C54.403 58.291 54.45 57.9626 54.4305 57.6347C54.3938 56.1061 53.297 55.1823 51.499 55.1251C50.1005 55.0924 48.6776 55.1006 47.2995 55.1251C46.06 55.1251 44.8205 55.1251 43.5811 55.1251L41.7341 55.1047ZM78.8364 61.5258H76.9691C75.746 61.5258 74.5228 61.5258 73.2997 61.5258C71.9583 61.5258 70.5679 61.5258 69.198 61.5258C66.6049 61.4767 64.9496 59.9604 64.9822 57.6674C65.0148 55.3744 66.6131 53.9521 69.092 53.9235C73.1692 53.8785 77.2708 53.8785 81.299 53.9235C83.7902 53.9521 85.3762 55.3826 85.3762 57.6592C85.3762 59.9358 83.8065 61.4726 81.193 61.5258C80.4428 61.5217 79.6478 61.5258 78.8772 61.5258H78.8364ZM75.1018 60.2996H76.9773C78.3554 60.2996 79.7864 60.2996 81.1849 60.2996C82.3142 60.2996 84.202 59.8909 84.1694 57.6756C84.1449 56.0693 83.1215 55.1701 81.2827 55.1496C77.2667 55.1047 73.1692 55.1047 69.1042 55.1496C67.3103 55.1701 66.2257 56.1183 66.2053 57.6837C66.1849 59.2492 67.3103 60.2628 69.2225 60.2996C70.5761 60.3282 71.9583 60.32 73.2997 60.2996H75.1018ZM72.1499 44.1549H55.4334C50.1902 44.1549 44.9455 44.1549 39.6996 44.1549C36.7314 44.1549 35.2147 42.9083 35.2147 40.4763C35.1903 40.0018 35.2627 39.5272 35.4274 39.0817C35.5921 38.6361 35.8458 38.2289 36.1729 37.885C36.9394 37.1125 38.1217 36.7201 39.6873 36.7201H55.2378C63.7835 36.7201 72.3374 36.7201 80.8995 36.7201H80.924C82.3836 36.7201 84.4059 36.994 85.2213 39.2747C85.4336 39.8076 85.5116 40.3848 85.4483 40.9551C85.385 41.5255 85.1824 42.0714 84.8584 42.5445C84.1286 43.5867 82.8402 44.1794 81.3195 44.1794C78.2942 44.1385 75.2078 44.1426 72.1703 44.1426L72.1499 44.1549ZM60.2037 42.9287H66.189C71.1468 42.9287 76.2719 42.9287 81.3154 42.9287C81.7982 42.9576 82.2811 42.8699 82.7231 42.6729C83.1651 42.4758 83.5534 42.1753 83.8554 41.7965C84.0625 41.4856 84.1906 41.1286 84.2282 40.7567C84.2659 40.3848 84.2121 40.0092 84.0715 39.6629C83.6271 38.4368 82.7139 37.9218 80.9199 37.9218C72.3633 37.9381 63.808 37.9381 55.2541 37.9218H39.7037C38.4805 37.9218 37.5835 38.1915 37.0535 38.7392C36.8432 38.9717 36.6819 39.2442 36.5789 39.5405C36.4759 39.8369 36.4335 40.151 36.4542 40.4641C36.4542 41.6902 36.8619 42.9164 39.7159 42.9164C44.9592 42.9164 50.2024 42.9164 55.4457 42.9164L60.2037 42.9287Z" fill="black"/>
<path d="M52.0288 194.804L51.5273 194.526C46.7937 191.889 42.7615 188.395 39.777 185.656C23.4193 170.623 13.2753 152.141 9.65882 130.76C8.85398 126.12 8.4312 121.422 8.39486 116.712C8.39486 116.001 8.45199 115.273 8.95348 114.771C9.34081 114.362 9.90753 114.202 10.78 114.202C27.6473 114.247 44.796 114.239 61.382 114.227H64.2971C65.243 114.227 66.5559 114.227 66.6537 116.226C67.2368 128.132 72.4433 137.782 82.147 144.918C82.3875 145.094 82.6077 145.29 82.8197 145.478L83.1011 145.724L83.5088 146.075L82.6934 147.301L81.5395 149.075L52.0288 194.804ZM10.7882 115.429C10.4531 115.386 10.1134 115.459 9.82595 115.637C9.68733 115.78 9.6221 116.119 9.62618 116.704C9.66134 121.348 10.0786 125.981 10.8738 130.556C14.4536 151.671 24.459 169.908 40.6127 184.753C43.4423 187.357 47.2259 190.634 51.6211 193.173L80.5243 148.413L81.6821 146.631L81.8982 146.3C81.7352 146.157 81.5802 146.022 81.4172 145.891C71.4199 138.534 66.0462 128.565 65.4428 116.271C65.402 115.453 65.2838 115.453 64.3134 115.453H61.3942C44.8082 115.453 27.6596 115.474 10.7882 115.429ZM45.8519 161.051C45.339 161.063 44.8299 160.959 44.3625 160.747C43.8952 160.535 43.4816 160.219 43.1528 159.825C42.4682 158.934 42.1175 157.83 42.1621 156.706C42.1621 151.801 42.1295 146.999 42.1621 142.221C42.1621 141.191 42.0765 140.937 41.1387 140.79C38.9778 140.455 37.5956 138.8 37.7832 136.76C37.9707 134.721 39.5731 133.376 41.9623 133.339H42.5902C45.5584 133.286 47.3482 133.253 48.4613 134.398C49.4357 135.395 49.7253 137.071 49.5704 140.798C49.5133 142.274 49.5296 143.782 49.5418 145.241C49.5418 145.928 49.5418 146.615 49.5418 147.285C49.5418 148.258 49.5418 149.226 49.5418 150.199C49.5418 152.353 49.5418 154.511 49.5418 156.669C49.5214 159.314 48.074 161.03 45.8438 161.039L45.8519 161.051ZM44.2211 134.545C43.7318 134.545 43.1977 134.545 42.5902 134.545H41.9623C40.2254 134.569 39.1083 135.436 38.9819 136.85C38.8555 138.264 39.7974 139.302 41.3059 139.56C43.2222 139.858 43.373 141.031 43.3648 142.213C43.32 146.982 43.3322 151.777 43.3648 156.677C43.3211 157.515 43.5705 158.342 44.0702 159.015C44.2867 159.272 44.5593 159.476 44.8668 159.611C45.1743 159.745 45.5086 159.807 45.8438 159.792C47.3809 159.792 48.2901 158.607 48.3227 156.641C48.3227 154.487 48.3227 152.333 48.3227 150.179C48.3227 149.206 48.3227 148.237 48.3227 147.264C48.3227 146.586 48.3227 145.903 48.3227 145.221C48.3227 143.745 48.2901 142.221 48.3553 140.725C48.4858 137.455 48.2738 135.93 47.5929 135.227C47.0221 134.659 45.9335 134.545 44.2211 134.545Z" fill="black"/>
<path d="M111.278 210H94.7985L94.7006 209.963C93.2062 209.502 91.6624 209.219 90.1016 209.121C89.1964 209.031 88.2628 208.933 87.3454 208.77C77.7233 207.029 69.3405 204.315 61.7203 200.473L60.4971 199.835C57.4393 198.261 54.2795 196.635 51.4662 194.477L51.0177 194.129L80.5406 148.413L81.6985 146.631L82.5139 145.376L83.0113 145.654C86.5299 147.636 91.2676 150.027 96.6984 150.968C105.012 152.462 113.586 151.028 120.966 146.909C121.435 146.651 121.92 146.443 122.385 146.239L123.013 145.965L123.522 145.732L123.799 146.222C125.793 149.758 128.109 153.191 130.343 156.506C130.78 157.152 131.212 157.797 131.648 158.439C132.745 160.074 133.841 161.766 134.91 163.393C137.209 166.932 139.586 170.591 142.159 174.02L142.285 174.187V174.4C142.285 174.457 142.285 174.518 142.285 174.576C142.469 174.845 142.656 175.111 142.844 175.393C143.345 176.104 143.863 176.84 144.344 177.592C145.604 179.57 146.942 181.549 148.234 183.461C150.513 186.833 152.866 190.324 154.908 193.945L155.19 194.444L154.713 194.759C144.161 201.744 132.133 206.46 118.956 208.782C118.014 208.945 117.06 209.044 116.134 209.134C114.532 209.227 112.946 209.509 111.409 209.975L111.278 210ZM95.0064 208.774H111.087C112.68 208.298 114.321 208.005 115.979 207.899C116.885 207.813 117.818 207.719 118.711 207.56C131.522 205.304 143.231 200.755 153.53 194.039C151.577 190.634 149.347 187.332 147.186 184.136C145.89 182.215 144.548 180.232 143.28 178.242C142.815 177.514 142.306 176.791 141.812 176.088C141.58 175.753 141.343 175.422 141.115 175.087L140.973 174.878L141.013 174.633C141.015 174.614 141.015 174.595 141.013 174.576C138.473 171.171 136.121 167.558 133.858 164.067C132.802 162.432 131.709 160.765 130.616 159.13L129.316 157.197C127.167 154.013 124.945 150.718 122.992 147.309L122.854 147.371C122.393 147.571 121.952 147.759 121.537 147.988C113.916 152.24 105.063 153.722 96.4782 152.181C91.1208 151.25 86.4524 148.973 82.9053 147.003L82.7096 147.305L81.5558 149.079L52.6486 193.839C55.2661 195.768 58.2017 197.28 61.0435 198.744L62.2667 199.381C69.7768 203.166 78.0494 205.843 87.5452 207.556C88.4177 207.711 89.3269 207.805 90.2076 207.895C91.8359 208 93.4464 208.295 95.0064 208.774ZM105.99 191.693C104.27 191.693 102.696 191.693 101.2 191.64C99.4628 191.599 98.0847 190.823 97.4242 189.539C96.7637 188.256 96.9512 186.711 97.9175 185.292C99.2507 183.343 100.674 181.41 102.048 179.546C102.782 178.544 103.52 177.547 104.245 176.542C105.034 175.492 105.708 174.36 106.255 173.166C106.622 172.324 106.451 171.796 105.68 171.396C105.199 171.15 104.563 170.987 103.891 172.062C103.82 172.191 103.764 172.329 103.723 172.471C103.672 172.628 103.611 172.783 103.54 172.933C102.582 174.935 100.686 175.794 98.7982 175.103C96.9105 174.412 95.9686 172.507 96.4619 170.407C96.7491 169.256 97.2661 168.175 97.9816 167.23C98.6971 166.286 99.5963 165.496 100.625 164.909C101.68 164.288 102.85 163.89 104.065 163.737C105.279 163.585 106.511 163.682 107.686 164.022C108.838 164.368 109.907 164.947 110.828 165.723C111.748 166.499 112.501 167.455 113.038 168.533C113.576 169.611 113.888 170.789 113.955 171.992C114.022 173.196 113.842 174.401 113.427 175.532C112.575 177.854 111.164 179.832 109.798 181.749C109.591 182.039 109.391 182.333 109.179 182.628L108.086 184.16L108.033 184.234H108.367C109.309 184.234 110.121 184.234 110.932 184.234C113.248 184.307 114.879 185.812 114.903 187.892C114.928 189.972 113.24 191.607 110.981 191.64C109.171 191.681 107.523 191.693 105.99 191.693ZM105.044 169.994C105.462 170 105.872 170.108 106.239 170.308C107.589 171.003 108.004 172.225 107.372 173.66C106.793 174.935 106.077 176.142 105.236 177.261C104.508 178.272 103.772 179.276 103.03 180.273C101.66 182.129 100.246 184.05 98.9286 185.995C98.2233 187.034 98.0683 188.125 98.5209 188.991C98.9735 189.858 99.9643 190.397 101.24 190.426C104.05 190.496 107.14 190.5 110.969 190.426C112.534 190.402 113.7 189.322 113.688 187.916C113.676 186.51 112.579 185.525 110.899 185.464C110.116 185.44 109.313 185.444 108.384 185.464H105.664L107.099 183.445C107.507 182.856 107.854 182.39 108.184 181.92L108.812 181.038C110.19 179.1 111.49 177.273 112.285 175.107C112.642 174.133 112.797 173.096 112.739 172.059C112.681 171.023 112.413 170.01 111.95 169.081C111.487 168.153 110.84 167.329 110.047 166.661C109.255 165.993 108.335 165.494 107.344 165.195C106.325 164.901 105.258 164.818 104.206 164.951C103.155 165.085 102.141 165.432 101.228 165.972C100.344 166.473 99.5698 167.149 98.9537 167.959C98.3377 168.77 97.8922 169.697 97.6444 170.685C97.2937 172.185 97.9134 173.468 99.2181 173.954C100.523 174.441 101.742 173.844 102.431 172.401C102.48 172.299 102.517 172.185 102.557 172.074C102.627 171.839 102.726 171.614 102.851 171.404C103.45 170.472 104.213 169.994 105.044 169.994Z" fill="black"/>
<path d="M154.13 195.098L153.812 194.53C151.793 190.945 149.449 187.479 147.186 184.124C145.89 182.207 144.548 180.22 143.28 178.234C142.815 177.506 142.306 176.783 141.812 176.08C141.58 175.745 141.343 175.414 141.115 175.078L140.973 174.87L141.013 174.625C141.015 174.606 141.015 174.586 141.013 174.567C138.469 171.163 136.121 167.55 133.854 164.059C132.802 162.424 131.709 160.757 130.616 159.122L129.316 157.188C127.065 153.853 124.737 150.403 122.719 146.819L122.466 146.373L123.861 145.221C126.715 142.854 129.695 140.406 131.986 137.365C136.585 131.267 139.056 124.695 139.537 117.297C139.745 114.158 139.37 111.006 139.011 107.957L138.803 106.175L143.288 105.084C147.045 104.168 150.801 103.255 154.558 102.345L165.399 99.7377L170.157 98.5932L170.287 98.6177L170.561 98.679L195.338 92.822L195.48 93.4146C197.707 102.718 198.466 112.314 197.731 121.854C197.045 131.731 194.799 141.437 191.077 150.608C183.485 169.127 171.233 183.976 154.668 194.75L154.13 195.098ZM142.253 174.572C142.436 174.841 142.624 175.107 142.811 175.389C143.313 176.1 143.831 176.836 144.312 177.588C145.572 179.562 146.905 181.54 148.197 183.453C150.358 186.649 152.588 189.952 154.554 193.377C170.63 182.775 182.539 168.24 189.956 150.158C193.63 141.107 195.846 131.529 196.52 121.78C197.227 112.572 196.527 103.31 194.445 94.3138L170.552 99.9584L170.402 99.9175L170.206 99.8644L165.721 100.943C162.109 101.815 158.498 102.686 154.888 103.555C151.129 104.463 147.372 105.374 143.619 106.29L140.186 107.107L140.267 107.81C140.634 110.912 141.013 114.121 140.801 117.374C140.3 125.026 137.747 131.806 133.002 138.101C130.625 141.256 127.599 143.749 124.676 146.161L124.077 146.66C126.013 150.04 128.227 153.322 130.368 156.498C130.804 157.143 131.236 157.789 131.672 158.431C132.769 160.066 133.862 161.758 134.934 163.385C137.234 166.924 139.611 170.582 142.183 174.012L142.31 174.179V174.392C142.261 174.461 142.257 174.522 142.253 174.58V174.572ZM160.192 152.786C159.594 152.785 158.997 152.735 158.407 152.639H158.345C154.537 151.609 152.201 149.177 151.394 145.401C150.86 142.895 151.956 140.786 154.06 140.275C154.534 140.135 155.032 140.093 155.523 140.152C156.013 140.211 156.487 140.37 156.914 140.619H156.947C156.629 140.002 156.478 139.313 156.507 138.62C156.539 137.12 157.196 135.26 160.131 134.917C161.322 134.778 161.485 134.099 161.489 133.543C161.528 133.237 161.446 132.926 161.261 132.679C161.076 132.431 160.803 132.265 160.498 132.215C159.935 132.088 159.23 132.113 158.79 133.417C158.133 135.366 156.751 136.331 154.851 136.221C153.306 136.131 152.209 135.301 151.59 133.768C151.303 133.006 151.283 132.169 151.532 131.394C152.503 127.895 154.794 125.647 158.174 124.883C161.627 124.102 164.677 125.12 166.997 127.825C167.282 128.161 167.539 128.512 167.788 128.851C167.898 129.007 168.008 129.158 168.122 129.309L168.171 129.37L168.2 129.444C169.533 132.714 169.378 135.575 167.731 138.183C167.466 138.591 167.519 138.832 167.841 139.409C169.708 142.732 169.549 146.067 167.38 149.059C166.582 150.229 165.506 151.183 164.249 151.835C162.993 152.487 161.595 152.817 160.18 152.795L160.192 152.786ZM158.631 151.433C161.893 151.953 164.514 150.91 166.377 148.327C168.273 145.715 168.416 142.912 166.765 139.997C166.39 139.331 166.043 138.534 166.687 137.516C168.094 135.289 168.224 132.82 167.095 129.971L166.801 129.562C166.557 129.223 166.324 128.904 166.068 128.606C164.029 126.231 161.468 125.373 158.443 126.056C155.491 126.726 153.551 128.622 152.711 131.7C152.528 132.217 152.528 132.781 152.711 133.298C153.143 134.394 153.836 134.933 154.896 134.994C156.266 135.072 157.122 134.447 157.603 133.02C158.15 131.385 159.267 130.682 160.739 131.013C161.318 131.124 161.836 131.444 162.194 131.913C162.553 132.382 162.727 132.967 162.683 133.556C162.683 135.011 161.774 135.951 160.237 136.131C158.533 136.331 157.726 137.128 157.693 138.64C157.66 140.153 158.443 140.966 160.139 141.228C162.418 141.571 162.7 143.091 162.659 143.97C162.668 144.286 162.613 144.6 162.498 144.893C162.383 145.187 162.209 145.454 161.988 145.679C161.767 145.904 161.504 146.082 161.212 146.202C160.921 146.322 160.609 146.381 160.294 146.378C158.141 146.484 157.713 144.628 157.55 143.925C157.293 142.789 156.845 142.016 156.221 141.632C155.932 141.472 155.613 141.373 155.285 141.34C154.956 141.307 154.624 141.341 154.309 141.44C152.866 141.792 152.16 143.267 152.552 145.119C153.29 148.466 155.267 150.547 158.619 151.442L158.631 151.433ZM158.052 141.788C158.396 142.37 158.643 143.005 158.782 143.668C159.079 144.976 159.532 145.209 160.266 145.164C160.43 145.178 160.595 145.156 160.75 145.1C160.905 145.043 161.046 144.953 161.162 144.836C161.279 144.719 161.368 144.578 161.425 144.423C161.481 144.268 161.503 144.102 161.489 143.937C161.513 143.32 161.358 142.666 160.005 142.458C159.311 142.374 158.643 142.149 158.04 141.796L158.052 141.788Z" fill="black"/>
<path d="M139.044 107.389L138.889 106.809C136.753 98.7935 132.92 92.4419 127.171 87.3941C121.759 82.581 115.009 79.5406 107.825 78.68C106.736 78.5451 105.619 78.4552 104.539 78.3694L103.006 78.2427L102.447 78.1936V20.0276L103.03 19.999C108.237 19.7579 113.431 20.4527 118.454 21.123L119.804 21.3029C136.161 24.2702 150.766 31.0265 163.238 41.3918C179.852 55.1945 190.702 72.7044 195.476 93.431L195.615 94.0237L170.536 99.9502L170.385 99.9093L170.206 99.8644L165.721 100.943C162.109 101.815 158.498 102.686 154.888 103.555C151.398 104.397 147.911 105.243 144.426 106.093L139.044 107.389ZM103.675 77.0696L104.641 77.1473C105.733 77.2331 106.867 77.323 107.98 77.462C115.396 78.3535 122.366 81.4902 127.958 86.454C133.666 91.4773 137.686 98.0128 139.892 105.897L144.083 104.879L154.545 102.337L165.387 99.7295L170.145 98.585L170.275 98.6096L170.548 98.6709L194.143 93.0958C189.356 72.8965 178.699 55.8158 162.455 42.3196C150.146 32.1014 135.729 25.4228 119.608 22.4964L118.287 22.3206C113.509 21.683 108.571 21.0249 103.666 21.1843L103.675 77.0696ZM145.808 75.8884C145.074 75.8961 144.358 75.6621 143.769 75.2222C143.289 74.8417 142.899 74.3592 142.626 73.8093C142.354 73.2595 142.207 72.656 142.196 72.0423C142.139 70.8978 142.098 70.0722 141.886 69.8719C141.674 69.6717 140.854 69.6717 139.717 69.6717C139.309 69.6717 138.869 69.6717 138.449 69.6717C137.458 69.6717 136.431 69.7003 135.415 69.6349C134.726 69.6197 134.052 69.4295 133.456 69.0821C132.86 68.7348 132.361 68.2415 132.007 67.6485C131.711 67.0773 131.564 66.44 131.581 65.7965C131.599 65.153 131.779 64.5245 132.105 63.9699L132.675 62.9031C135.048 58.4766 137.499 53.9111 140.353 49.644C141.78 47.5146 143.92 46.644 146.089 47.3143C148.258 47.9846 149.584 49.8852 149.641 52.6032C149.641 53.5474 149.641 54.5038 149.641 55.4316C149.641 55.6605 149.641 55.8894 149.641 56.1224V56.6905C149.641 57.042 149.641 57.3935 149.641 57.7491C149.641 58.542 149.641 59.384 149.641 60.2015C149.588 61.5216 149.616 62.3023 150.864 62.989C151.359 63.2815 151.769 63.7003 152.051 64.2028C152.333 64.7052 152.478 65.2735 152.47 65.8501C152.487 66.4217 152.353 66.9877 152.081 67.4904C151.809 67.993 151.408 68.4143 150.921 68.7112C149.62 69.451 149.563 70.3174 149.62 71.654C149.714 73.8284 148.682 75.2998 146.725 75.7903C146.425 75.8606 146.117 75.8935 145.808 75.8884ZM139.717 68.4455C142.978 68.4455 143.26 68.7112 143.423 71.981C143.426 72.4136 143.524 72.8403 143.711 73.2303C143.898 73.6204 144.168 73.9642 144.503 74.2371C144.775 74.4373 145.088 74.5727 145.419 74.6329C145.751 74.6931 146.091 74.6766 146.416 74.5846C147.81 74.2331 148.454 73.2889 148.385 71.6908C148.32 70.1662 148.417 68.7071 150.301 67.628C150.601 67.442 150.845 67.179 151.009 66.8664C151.173 66.5538 151.251 66.2029 151.235 65.8501C151.246 65.4884 151.162 65.1303 150.99 64.8121C150.818 64.494 150.565 64.2274 150.256 64.0394C148.307 62.9522 148.373 61.3868 148.422 60.132C148.454 59.3472 148.446 58.5379 148.422 57.7573C148.422 57.606 148.422 57.4548 148.422 57.3036V56.6905C148.422 56.2818 148.422 55.8444 148.422 55.4234C148.422 54.5079 148.422 53.5555 148.422 52.6277C148.389 51.1073 147.896 49.1576 145.731 48.4873C144.1 47.9764 142.497 48.6508 141.372 50.3266C138.555 54.5365 136.117 59.0856 133.76 63.4835L133.185 64.5544C132.953 64.928 132.821 65.3554 132.803 65.7952C132.784 66.235 132.879 66.6721 133.079 67.064C133.334 67.478 133.691 67.8199 134.114 68.0573C134.538 68.2948 135.015 68.4199 135.501 68.421C136.467 68.4864 137.47 68.47 138.437 68.4577C138.865 68.4496 139.289 68.4455 139.717 68.4455Z" fill="black"/>
<path d="M141.829 62.6702C141.535 62.6653 141.242 62.638 140.952 62.5884L140.74 62.5557L140.781 62.3473C141.027 61.4238 141.468 60.564 142.073 59.8254L142.342 59.4371L142.575 59.0979L142.705 59.5066C143.223 61.0884 143.28 61.8772 142.909 62.3146C142.767 62.4505 142.596 62.553 142.409 62.6145C142.222 62.676 142.024 62.695 141.829 62.6702ZM141.233 62.2165C141.984 62.3105 142.412 62.2533 142.599 62.0325C142.787 61.8118 142.787 61.1456 142.44 59.9889L142.404 60.038C141.884 60.6927 141.488 61.4363 141.233 62.2328V62.2165Z" fill="black"/>
</g>
<defs>
<clipPath id="clip0_138_234">
<rect width="198" height="210" fill="white"/>
</clipPath>
</defs>
</svg>
