<svg width="24" height="24" viewBox="0 0 24 24" fill="#9B9B9B" xmlns="http://www.w3.org/2000/svg">
<path fill-rule="evenodd" clip-rule="evenodd" d="M3.39758 19.8024C5.573 21.9779 8.52344 23.2 11.6 23.2C14.6765 23.2 17.627 21.9779 19.8024 19.8024C21.9778 17.627 23.2 14.6765 23.2 11.6C23.2 8.52348 21.9778 5.57298 19.8024 3.39755C17.627 1.22213 14.6765 0 11.6 0C8.52344 0 5.573 1.22213 3.39758 3.39755C1.22217 5.57298 0 8.52348 0 11.6C0 14.6765 1.22217 17.627 3.39758 19.8024ZM11.6 21C14.093 21 16.4839 20.0096 18.2467 18.2468C20.0095 16.484 21 14.093 21 11.6C21 9.10696 20.0095 6.71604 18.2467 4.9532C16.4839 3.19036 14.093 2.2 11.6 2.2C9.10693 2.2 6.71594 3.19036 4.95312 4.9532C3.19031 6.71604 2.19995 9.10696 2.19995 11.6C2.19995 14.093 3.19031 16.484 4.95312 18.2468C6.71594 20.0096 9.10693 21 11.6 21Z" />
</svg>
