<svg xmlns:xlink="http://www.w3.org/1999/xlink" xmlns="http://www.w3.org/2000/svg" version="1.0" width="20" height="20"
     viewBox="320 380 600 600" preserveAspectRatio="xMidYMid meet" fill="#9B9B9B">
    <g fill="#000000" fill-opacity="0">
        <path d="M0 644 l0 -644 644 0 644 0 0 644 0 644 -644 0 -644 0 0 -644z m561.8 297.7 c6.6 -3.5 12 -8.8 15.2 -15.2 l2.5 -5 0 -95 0 -95 -3 -5.9 c-3.6 -7.1 -9.9 -12.9 -17.1 -15.6 -5.4 -2 -7.4 -2 -97.9 -2 -92.2 0 -92.4 0 -98.2 2.2 -7.7 2.9 -15.2 10.4 -18.1 18.1 -2.2 5.8 -2.2 6 -2.2 97.6 0 101.5 -0.2 97.6 6.4 106.3 4 5.2 11.5 10.3 17.1 11.7 2.4 0.5 41.9 0.9 97 0.8 l93 -0.2 5.3 -2.8z m306.5 0.6 c6.9 -3.3 14 -10.8 16.6 -17.7 l2.1 -5.8 -0.2 -94.1 -0.3 -94.2 -3 -5.4 c-3.8 -6.8 -10.2 -12.5 -17.2 -15.1 -5.4 -2 -6.8 -2 -99.1 -1.8 l-93.7 0.3 -5.9 3 c-6.5 3.3 -11.8 8.7 -15 15.5 -2.1 4.5 -2.1 5 -2.4 96.9 -0.3 101.4 -0.5 97.8 5.7 107.2 1.7 2.5 5 5.9 7.3 7.6 9 6.4 4.8 6.2 107.3 6 l93 -0.2 4.8 -2.2z m-89.3 -270.5 c6.3 -2.6 137.8 -133.8 141.8 -141.3 3.5 -6.7 3.7 -16 0.3 -22.5 -1.6 -3.1 -22.9 -25.1 -68.9 -71.3 -72.7 -72.8 -72.6 -72.7 -83.4 -72.7 -11.2 0 -10.2 -0.9 -83.4 72.4 -72.4 72.4 -71.6 71.5 -71.8 82.1 -0.2 11.5 -2.5 8.9 69.8 81.3 36.3 36.5 68.1 67.8 70.6 69.5 8.3 5.8 15.7 6.5 25 2.5z m-218.3 -36.7 c6.6 -2.9 14.3 -11.1 16.9 -17.6 1.8 -4.8 1.9 -8.6 1.9 -99 0 -93.9 0 -94 -2.1 -98.6 -3 -6.4 -8.8 -12.5 -14.8 -15.7 l-5.1 -2.7 -94.8 -0.3 -94.9 -0.2 -5.9 2.6 c-7.5 3.4 -13.9 10.2 -16.8 17.8 l-2.1 5.8 0.2 93.6 0.3 93.7 2.4 4.7 c4.3 8.8 12.6 15.5 21.8 17.7 2.2 0.5 44.1 0.9 95.8 0.8 l92 -0.2 5.2 -2.4z"
              fill-opacity="0"></path>
        <path d="M375.7 912.3 c-0.4 -0.3 -0.7 -39.3 -0.7 -86.5 l0 -85.8 86.5 0 86.5 0 -0.2 86.3 -0.3 86.2 -85.6 0.3 c-47 0.1 -85.9 -0.1 -86.2 -0.5z"
              fill-opacity="0"></path>
        <path d="M682.5 911.8 c-0.3 -0.7 -0.4 -39.5 -0.3 -86.3 l0.3 -85 86.3 -0.3 86.2 -0.2 0 86.5 0 86.5 -86 0 c-67.9 0 -86.2 -0.3 -86.5 -1.2z"
              fill-opacity="0"></path>
        <path d="M706.7 581.2 c-51.5 -51.5 -58.7 -59.1 -58.7 -61.7 0 -2.6 7.2 -10.2 58.8 -61.8 55.2 -55.2 58.9 -58.7 62.2 -58.7 3.3 0 6.9 3.4 61.8 58.3 54.8 54.8 58.2 58.4 58.2 61.7 0 3.3 -3.5 7 -58.8 62.3 -51.5 51.5 -59.1 58.7 -61.7 58.7 -2.6 0 -10.2 -7.2 -61.8 -58.8z"
              fill-opacity="0"></path>
        <path d="M375 519 l0 -86 86.5 0 86.5 0 0 86 0 86 -86.5 0 -86.5 0 0 -86z" fill-opacity="0"></path>
    </g>
    <g>
        <path d="M363.5 946.9 c-5.6 -1.4 -13.1 -6.5 -17.1 -11.7 -6.6 -8.7 -6.4 -4.5 -6.4 -109.3 0 -94.6 0 -94.8 2.2 -100.6 2.9 -7.7 10.4 -15.2 18.1 -18.1 5.8 -2.2 6 -2.2 101.2 -2.2 93.5 0 95.5 0 100.9 2 7.2 2.7 13.5 8.5 17.1 15.6 l3 5.9 0 98 0 98 -2.5 5 c-3.2 6.4 -8.6 11.7 -15.2 15.2 l-5.3 2.8 -96 0.2 c-57 0.1 -97.6 -0.3 -100 -0.8z m181.3 -120.6 l0.2 -83.3 -83.5 0 -83.5 0 0 82.8 c0 45.6 0.3 83.2 0.7 83.5 0.3 0.4 37.8 0.6 83.2 0.5 l82.6 -0.3 0.3 -83.2z"
        ></path>
        <path d="M669.5 946.3 c-6.6 -2 -12.9 -6.7 -16.6 -12.2 -6.2 -9.4 -6 -5.5 -5.7 -110.2 0.3 -94.9 0.3 -95.4 2.4 -99.9 3.2 -6.8 8.5 -12.2 15 -15.5 l5.9 -3 96.7 -0.3 c95.3 -0.2 96.7 -0.2 102.1 1.8 7 2.6 13.4 8.3 17.2 15.1 l3 5.4 0.3 97.2 0.2 97.1 -2.1 5.8 c-2.6 6.9 -9.7 14.4 -16.6 17.7 l-4.8 2.2 -96 0.2 c-83.9 0.2 -96.6 0 -101 -1.4z m182.5 -119.8 l0 -83.5 -83.2 0.2 -83.3 0.3 -0.3 82 c-0.1 45.1 0 82.6 0.3 83.3 0.3 0.9 18 1.2 83.5 1.2 l83 0 0 -83.5z"
        ></path>
        <path d="M364.7 639.9 c-9.2 -2.2 -17.5 -8.9 -21.8 -17.7 l-2.4 -4.7 -0.3 -96.7 -0.2 -96.6 2.1 -5.8 c2.9 -7.6 9.3 -14.4 16.8 -17.8 l5.9 -2.6 97.9 0.2 97.8 0.3 5.1 2.7 c6 3.2 11.8 9.3 14.8 15.7 2.1 4.6 2.1 4.6 2.1 101.6 0 93.4 -0.1 97.2 -1.9 102 -2.6 6.5 -10.3 14.7 -16.9 17.6 l-5.2 2.4 -95 0.2 c-53.4 0.1 -96.6 -0.3 -98.8 -0.8z m180.3 -120.9 l0 -83 -83.5 0 -83.5 0 0 83 0 83 83.5 0 83.5 0 0 -83z"
        ></path>
    </g>
    <g>
        <path d="M760 676.7 c-2.5 -0.7 -6.5 -2.7 -9 -4.4 -2.5 -1.7 -34.3 -33 -70.6 -69.5 -74.2 -74.4 -69.9 -69.2 -69.9 -84.3 0.1 -6.3 0.6 -9.1 2.4 -13 1.9 -4 15.8 -18.4 69.5 -72.1 75.3 -75.4 72.1 -72.6 86.1 -72.6 14.1 0 10.1 -3.4 85.2 71.5 47.9 47.8 68 68.5 70 72.1 2.5 4.6 2.8 6 2.8 14.6 0 8.4 -0.3 10.1 -2.7 14.5 -1.9 3.6 -20.9 23.2 -70 72.2 -54.1 54 -68.2 67.6 -72 69.3 -6 2.6 -15.9 3.4 -21.8 1.7z m67.7 -216.4 l-58.7 -58.8 -59 59 -59 59 58.7 58.7 58.8 58.8 59 -59 59 -59 -58.8 -58.7z"
        ></path>
    </g>
</svg>