<svg xmlns:xlink="http://www.w3.org/1999/xlink" xmlns="http://www.w3.org/2000/svg" fill="none" height="20"
     viewBox="0 0 24 24" width="20">
    <path d="M20.0823 3.8775C18.9123 2.7075 17.0023 2.7075 15.8423 3.8775L4.86232 14.8574L3.05233 20.2774C2.96233 20.5374 2.99233 20.7374 3.11233 20.8574C3.23233 20.9774 3.43233 20.9974 3.69233 20.9174L9.1023 19.0974L20.0723 8.12748C21.2422 6.95748 21.2422 5.04749 20.0823 3.8775ZM19.2323 4.72749C19.9323 5.42749 19.9323 6.56748 19.2323 7.27748L18.5323 7.97748L15.9823 5.42749L16.6823 4.72749C17.3823 4.0275 18.5323 4.0275 19.2323 4.72749ZM4.63232 19.3274L5.91232 15.5074L15.1323 6.28748L17.6823 8.83747L8.4623 18.0574L4.63232 19.3274Z"
          fill="#9B9B9B"></path>
</svg>