<svg width="20px" height="20px" viewBox="0 0 19 24" fill="#9B9B9B" xmlns="http://www.w3.org/2000/svg">
    <path  d="M18.4956 7C18.4956 5.62 17.3756 4.5 15.9956 4.5C15.8256 4.5 15.6556 4.52 15.4956 4.55V4C15.4956 2.62 14.3756 1.5 12.9956 1.5C12.7656 1.5 12.5356 1.53 12.3256 1.59C11.9556 0.66 11.0556 0 9.99558 0C8.76558 0 7.74558 0.89 7.53558 2.06C7.36558 2.02 7.18558 2 6.99558 2C5.61558 2 4.49558 3.12 4.49558 4.5V10.39C4.15558 10.08 3.73558 9.85 3.27558 9.73L2.50558 9.52C1.67558 9.29 0.805579 9.61 0.315579 10.35C-0.0644214 10.92 -0.0844213 11.66 0.165579 12.3L2.72558 18.73C3.98558 21.91 7.06558 24 10.4956 24C14.9156 24 18.4956 20.42 18.4956 16V7ZM16.4956 16C16.4956 19.31 13.8056 22 10.4956 22C7.88558 22 5.54558 20.41 4.58558 17.99L1.98558 11.45L2.51558 11.59C2.97558 11.71 3.34558 12.05 3.51558 12.49L4.49558 15H6.49558V4.5C6.49558 4.22 6.71558 4 6.99558 4C7.27558 4 7.49558 4.22 7.49558 4.5V12H9.49558V2.5C9.49558 2.22 9.71558 2 9.99558 2C10.2756 2 10.4956 2.22 10.4956 2.5V12H12.4956V4C12.4956 3.72 12.7156 3.5 12.9956 3.5C13.2756 3.5 13.4956 3.72 13.4956 4V12H15.4956V7C15.4956 6.72 15.7156 6.5 15.9956 6.5C16.2756 6.5 16.4956 6.72 16.4956 7V16Z"/>
</svg>
