<svg width="20px" height="20px" viewBox="0 0 20 20" fill="none" xmlns="http://www.w3.org/2000/svg">
<path d="M13.904 11.0506L11.7827 13.1719L17.7789 19.1681L19.9002 17.0468L13.904 11.0506Z"/>
<path d="M15.5 7.9998C17.43 7.9998 19 6.4298 19 4.4998C19 3.9198 18.84 3.3798 18.59 2.8998L15.89 5.5998L14.4 4.1098L17.1 1.4098C16.62 1.1598 16.08 0.999805 15.5 0.999805C13.57 0.999805 12 2.5698 12 4.4998C12 4.9098 12.08 5.2998 12.21 5.6598L10.36 7.5098L8.58 5.7298L9.29 5.0198L7.88 3.6098L10 1.4898C8.83 0.319805 6.93 0.319805 5.76 1.4898L2.22 5.0298L3.63 6.4398H0.809999L0.0999985 7.1498L3.64 10.6898L4.35 9.9798V7.1498L5.76 8.5598L6.47 7.8498L8.25 9.6298L0.839998 17.0398L2.96 19.1598L14.34 7.7898C14.7 7.9198 15.09 7.9998 15.5 7.9998Z"/>
</svg>
