<svg width="24" height="16" viewBox="0 0 24 16" fill="#9B9B9B" xmlns="http://www.w3.org/2000/svg">
<path fill-rule="evenodd" clip-rule="evenodd" d="M14.0195 0.101435C13.3585 0.0325785 12.6943 -0.00126766 12.0297 4.32468e-05L11.9789 4.32424e-05C11.312 0.00239333 10.6457 0.0404643 9.98289 0.114102L9.81813 0.114102L9.18444 0.196484L8.84857 0.253513C8.57608 0.297871 8.30992 0.34856 8.04378 0.405591C5.66584 0.835168 3.46416 1.94703 1.70692 3.60571L1.66894 3.64373C1.46875 3.85488 1.28045 4.07701 1.10496 4.30909L1.01623 4.42317C0.569185 5.04013 0.250303 5.7404 0.0783876 6.48265L0.0783876 6.67275L0.0403303 6.91355C0.017526 7.08799 0.00487073 7.26359 0.0023492 7.4395C-0.000790297 7.49015 -0.000790302 7.54095 0.00234919 7.5916L0.00234918 7.66129C0.0258954 8.05037 0.085233 8.43644 0.179721 8.8146L2.01742 8.34566C1.95707 8.10248 1.91894 7.85434 1.9034 7.60426C1.90558 7.43021 1.92038 7.25654 1.94773 7.08464L1.94773 7.00225C2.06529 6.45286 2.30576 5.93723 2.65111 5.49408C2.76451 5.34091 2.88731 5.1949 3.0187 5.05686C3.051 5.01364 3.087 4.97335 3.12637 4.93645C3.29864 4.75307 3.4851 4.58355 3.68402 4.42949C4.28485 3.95108 4.94251 3.54881 5.64208 3.23184C6.74322 2.73406 7.90405 2.3805 9.09571 2.17992C9.38087 2.12923 9.67871 2.08486 9.97655 2.05318L10.0969 2.05318C10.7616 1.97639 11.4302 1.93831 12.0994 1.93912L12.0996 1.93912C12.7332 1.93912 13.3034 1.93912 13.899 2.02782L14.0195 0.101435ZM22.1496 6.87553L24 6.4256C23.8137 5.6904 23.4842 4.99917 23.0304 4.39148L21.4969 5.51309C21.8034 5.91901 22.0254 6.38231 22.1496 6.87553ZM12.0487 15.1578L12.0487 13.2567C12.6444 13.2567 13.278 13.225 13.8484 13.1617L14.0321 15.0627C13.3794 15.1198 12.6824 15.1578 12.0487 15.1578ZM4.26069 13.5102C4.87329 13.8153 5.50893 14.0716 6.16175 14.277L6.74469 12.471C6.18954 12.2987 5.64745 12.0869 5.12249 11.8373L4.26069 13.5102ZM0.997199 10.8297L2.55604 9.73978C2.86854 10.1811 3.24434 10.574 3.67133 10.9058L2.49269 12.3949C1.92011 11.9494 1.41622 11.422 0.997199 10.8297ZM8.09444 14.7776C8.74559 14.9089 9.40359 15.0041 10.0653 15.0627L10.2426 13.1617C9.64507 13.1053 9.05079 13.0186 8.46203 12.9019L8.09444 14.7776ZM23.0811 10.7854L21.5159 9.70176C21.8141 9.27709 22.0292 8.79974 22.1496 8.29498L24 8.75124C23.8208 9.47981 23.5093 10.1693 23.0811 10.7854ZM18.9812 11.7866L19.8366 13.4849C20.4646 13.1731 21.0573 12.795 21.6047 12.3569L20.407 10.8804C19.9632 11.2293 19.4855 11.5329 18.9812 11.7866ZM16.0155 14.7712L15.6417 12.9082C16.2243 12.7913 16.7998 12.641 17.3653 12.4583L17.961 14.2643C17.3232 14.472 16.6735 14.6412 16.0155 14.7712ZM21.5603 2.85163C21.0103 2.42719 20.4229 2.05387 19.805 1.73634L18.9369 3.42828C19.4472 3.68685 19.931 3.99458 20.3816 4.34712L21.5603 2.85163ZM15.9966 0.405594C16.6531 0.546077 17.3006 0.72595 17.9356 0.94423L17.3146 2.73757C16.7516 2.54841 16.1783 2.39183 15.5973 2.26863L15.9966 0.405594Z" />
</svg>
