<svg width="24" height="16" viewBox="0 0 24 16" fill="#9B9B9B" xmlns="http://www.w3.org/2000/svg">
<path fill-rule="evenodd" clip-rule="evenodd" d="M9.98585 0.101125C10.6179 0.0379231 11.3068 0 11.9704 0H12.0209C12.6972 0 13.3608 0.0442556 14.0055 0.113777H14.1698L14.8018 0.202249L15.1431 0.252821C15.4128 0.299169 15.6782 0.349724 15.9395 0.404498C18.3111 0.832942 20.507 1.94185 22.2596 3.59616L22.3038 3.63408C22.5035 3.84467 22.6913 4.06623 22.8663 4.29771L22.9485 4.41146C23.3932 5.02748 23.7111 5.72566 23.8838 6.46551C23.8838 6.52871 23.8839 6.59192 23.9155 6.65513C23.9305 6.68529 23.9312 6.72408 23.9319 6.76464C23.9327 6.80907 23.9335 6.85563 23.9533 6.89527C23.978 7.06915 23.9928 7.2443 23.9976 7.41986V7.57786C24.0008 7.59669 24.0008 7.61591 23.9976 7.63474C23.9789 8.02078 23.9217 8.40399 23.827 8.77868L21.9878 8.311C22.0494 8.07064 22.0896 7.8253 22.1079 7.57786C22.1067 7.40184 22.0898 7.22628 22.0573 7.05328V6.97113C21.9374 6.42408 21.6978 5.91038 21.3558 5.46694C21.2411 5.31544 21.1188 5.16989 20.9892 5.03084L20.8818 4.91076C20.7046 4.73102 20.5168 4.56217 20.3193 4.40514C19.72 3.92798 19.0641 3.52678 18.3664 3.21064C17.2693 2.71703 16.114 2.3645 14.9282 2.1615C14.6438 2.11093 14.353 2.07301 14.056 2.03509H13.9296C13.2685 1.96164 12.6039 1.92367 11.9388 1.92133C11.3067 1.92133 10.7316 1.95294 10.1439 2.00982L9.98585 0.101125ZM1.84551 6.88264L0 6.43392C0.184281 5.6823 0.517417 4.97525 0.979652 4.35459L2.51548 5.47324C2.19526 5.89053 1.96692 6.37085 1.84551 6.88264ZM11.9451 15.0988V13.2028H11.945C11.3383 13.2028 10.7316 13.2028 10.1502 13.108L9.96687 15.004C10.6178 15.0988 11.313 15.0988 11.945 15.0988H11.9451ZM19.7189 13.4745C19.1074 13.7777 18.4735 14.0333 17.8228 14.2393L17.235 12.438C17.7891 12.2673 18.3299 12.0561 18.853 11.806L19.7189 13.4745ZM22.9738 10.8011L21.419 9.71407C21.1068 10.1558 20.7296 10.5479 20.3003 10.877L21.4821 12.3622C22.0532 11.9178 22.5558 11.3918 22.9738 10.8011ZM15.8952 14.7449C15.2431 14.8728 14.5849 14.9678 13.9233 15.0293L13.7463 13.1333C14.3424 13.0775 14.9352 12.991 15.5223 12.8741L15.8952 14.7449ZM0.935445 10.7569L2.4965 9.68246C2.20215 9.25715 1.98797 8.78166 1.86449 8.27939L0.0253052 8.72813C0.200553 9.45486 0.509185 10.1428 0.935445 10.7569ZM5.03088 11.7618L4.17135 13.4493C3.54856 13.1382 2.95973 12.7633 2.41434 12.3306L3.60253 10.8517C4.0462 11.2032 4.52484 11.5082 5.03088 11.7618ZM7.99499 14.7323L8.36786 12.8741C7.78656 12.7583 7.21256 12.6084 6.6488 12.4254L6.05474 14.2266C6.69061 14.4345 7.33854 14.6034 7.99499 14.7323ZM2.46487 2.85039C3.00933 2.42274 3.59345 2.04815 4.20923 1.73173L5.08142 3.4192C4.57339 3.67877 4.09091 3.9856 3.64041 4.33563L2.46487 2.85039ZM8.01397 0.404498C7.35892 0.543793 6.71301 0.723205 6.07997 0.941714L6.69308 2.73663C7.25352 2.54293 7.82554 2.38462 8.40582 2.26262L8.01397 0.404498Z" />
</svg>
