<svg width="23" height="24" viewBox="0 0 23 24" fill="#9B9B9B" xmlns="http://www.w3.org/2000/svg">
<path fill-rule="evenodd" clip-rule="evenodd" d="M14.13 2.58027C13.2691 2.32888 12.3768 2.20094 11.48 2.20026C10.6222 2.17303 9.76471 2.26048 8.93005 2.46027C8.50299 2.58376 8.08527 2.73747 7.68005 2.92026C7.28223 3.1027 6.89795 3.31324 6.53003 3.55027C5.75854 4.04568 5.06439 4.65221 4.46997 5.35027C4.19995 5.6681 3.94946 6.00205 3.71997 6.35027L3.63 6.50027C3.43896 6.80691 3.26532 7.12407 3.10999 7.45026C2.68988 8.33495 2.40991 9.27956 2.28003 10.2503C2.22852 10.6583 2.20184 11.069 2.20007 11.4803C2.19983 11.9285 2.22986 12.3761 2.29004 12.8203L0.109985 13.1303C0.0385132 12.5831 0.00177002 12.032 0 11.4803C0 11.3165 0.0123291 11.1527 0.0247192 10.9878C0.0373535 10.8203 0.0500488 10.6515 0.0500488 10.4803V10.1503V9.88027C0.204041 8.78515 0.513794 7.71768 0.969971 6.71027L1.06006 6.55027C1.25006 6.16027 1.46008 5.78027 1.68005 5.41027L1.82007 5.19027C2.09088 4.76919 2.39154 4.36815 2.71997 3.99027V3.93027C3.44379 3.09628 4.28223 2.36905 5.21008 1.77027H5.28003C5.70227 1.49906 6.14337 1.25844 6.59998 1.05027L6.70007 1.00027C8.20392 0.33005 9.83356 -0.0109036 11.48 0.000265814C12.5836 -2.41029e-05 13.6815 0.158259 14.74 0.470267L14.13 2.58027ZM17.75 1.85026C18.6779 2.44904 19.5162 3.17627 20.24 4.01027L18.5601 5.45025C17.9748 4.77994 17.3021 4.19134 16.5601 3.70026L17.75 1.85026ZM20.78 10.2703L22.9601 9.96027C22.802 8.86484 22.4888 7.79749 22.03 6.79027L20.03 7.70025C20.4033 8.51602 20.656 9.38176 20.78 10.2703ZM2.71008 19.1803C1.98254 18.3484 1.37952 17.4153 0.920044 16.4103L2.92004 15.4903C3.2912 16.3069 3.77966 17.0649 4.37 17.7403L2.71008 19.1803ZM8.20007 22.7803C7.14032 22.4678 6.13025 22.0065 5.20007 21.4103L6.39001 19.5603C7.14288 20.0443 7.96124 20.4181 8.82007 20.6703L8.20007 22.7803ZM20.03 15.5103L22.03 16.4303C22.4888 15.423 22.802 14.3557 22.9601 13.2603L20.78 12.9503C20.6526 13.8348 20.4001 14.6968 20.03 15.5103ZM17.75 21.3703L16.5601 19.5203C17.3117 19.0301 17.9916 18.4377 18.5801 17.7603L20.24 19.2103C19.5162 20.0443 18.6779 20.7715 17.75 21.3703ZM11.49 21.0103V23.2103C12.5902 23.2097 13.6847 23.0515 14.74 22.7403L14.13 20.6303C13.2723 20.8808 12.3835 21.0088 11.49 21.0103Z" />
</svg>
