<svg width="24" height="24" viewBox="0 0 24 24" fill="#9B9B9B" xmlns="http://www.w3.org/2000/svg">
<path fill-rule="evenodd" clip-rule="evenodd" d="M21 11.6C21 9.10696 20.0096 6.71604 18.2468 4.9532C16.484 3.19036 14.093 2.2 11.6 2.2C9.10693 2.2 6.71607 3.19036 4.95325 4.9532C3.19043 6.71604 2.19995 9.10696 2.19995 11.6C2.19971 12.0482 2.22986 12.4959 2.29004 12.94L0.119996 13.26C0.0398571 12.7103 -0.000243033 12.1555 1.10806e-06 11.6C1.10806e-06 8.52348 1.22217 5.57298 3.39758 3.39755C5.573 1.22213 8.52344 0 11.6 0C14.6765 0 17.6271 1.22213 19.8025 3.39755C21.9779 5.57298 23.2 8.52348 23.2 11.6C23.2001 12.1522 23.16 12.7037 23.08 13.25L20.91 12.95C20.9699 12.5025 20.9999 12.0515 21 11.6ZM15.17 20.34L16.01 22.34C16.9357 21.9668 17.8095 21.4761 18.61 20.88L17.28 19.13C16.6332 19.6246 15.9236 20.0315 15.17 20.34ZM19.01 17.38L20.75 18.74C21.3599 17.9452 21.8641 17.0746 22.25 16.15L20.25 15.29C19.9291 16.0375 19.5123 16.7401 19.01 17.38ZM11.6 23.2C11.0953 23.1999 10.5911 23.1699 10.09 23.11L10.37 20.92C11.1799 21.025 12 21.025 12.8099 20.92L13.09 23.1C12.5958 23.1635 12.0982 23.1969 11.6 23.2ZM7.18994 22.33C6.25824 21.9502 5.38074 21.4492 4.57996 20.84L5.92004 19.09C6.56659 19.5851 7.27612 19.992 8.03003 20.3L7.18994 22.33ZM2.44995 18.73C1.83209 17.9387 1.31799 17.0717 0.920045 16.15L2.92005 15.28C3.23731 16.0303 3.65076 16.7363 4.15003 17.38L2.44995 18.73Z" />
</svg>
