<svg width="24" height="23" viewBox="0 0 24 23" fill="#9B9B9B" xmlns="http://www.w3.org/2000/svg">
<path fill-rule="evenodd" clip-rule="evenodd" d="M20.63 14.07C20.8827 13.2094 21.0107 12.317 21.01 11.42C21.0601 10.5923 20.9994 9.76167 20.83 8.95C20.7048 8.52217 20.5477 8.10434 20.36 7.7C20.1797 7.30112 19.9691 6.91666 19.73 6.55C19.2357 5.77773 18.6329 5.08059 17.9401 4.48C17.6244 4.21031 17.2902 3.96305 16.9401 3.74001L16.8 3.64999C16.478 3.45571 16.144 3.28204 15.8 3.13001C14.9171 2.70554 13.9717 2.42532 13 2.3C12.1514 2.17333 11.2887 2.17333 10.4401 2.3L10.13 0.119996C10.6763 0.0399139 11.2278 -0.000190058 11.78 6.77137e-07H12.78H13.11H13.39C14.4821 0.158772 15.5461 0.471894 16.55 0.929993L16.6999 1.02C17.0945 1.19872 17.4755 1.40593 17.84 1.64L18.0701 1.78C18.4838 2.05319 18.881 2.35036 19.26 2.67H19.33C20.1614 3.39262 20.8884 4.22726 21.49 5.14999C21.4864 5.17654 21.4864 5.20345 21.49 5.23C21.7536 5.65669 21.994 6.09734 22.21 6.55V6.64C22.8834 8.14279 23.2245 9.77326 23.21 11.42C23.2103 12.5269 23.052 13.628 22.74 14.69L20.63 14.07ZM3.97998 2.66C4.81543 1.93232 5.75183 1.32939 6.76001 0.869996L7.67004 2.87C6.85473 3.24352 6.09704 3.73182 5.42004 4.32001L3.97998 2.66ZM0.459959 8.14999C0.775938 7.08983 1.24054 6.07979 1.83996 5.14999L3.69006 6.33C3.2066 7.08456 2.82971 7.90228 2.57007 8.76L0.459959 8.14999ZM12.9301 20.73L13.25 22.91C14.3422 22.7518 15.4062 22.4386 16.41 21.98L15.5 19.98C14.683 20.3501 13.8178 20.6026 12.9301 20.73ZM21.35 17.7C20.7572 18.6323 20.0294 19.4715 19.1901 20.19L17.75 18.51C18.4256 17.93 19.0149 17.2566 19.5 16.51L21.35 17.7ZM7.69006 20L6.77002 22C7.7807 22.4588 8.85132 22.7719 9.94995 22.93L10.26 20.75C9.37225 20.6226 8.50702 20.3701 7.69006 20ZM1.83996 17.7L3.69006 16.51C4.17364 17.2637 4.763 17.9439 5.44006 18.53L4 20.19C3.16339 19.4688 2.43573 18.6301 1.83996 17.7ZM2.20001 11.43H5.93255e-05C-0.00348071 12.5331 0.151427 13.631 0.46002 14.69L2.57013 14.07C2.32135 13.2122 2.19659 12.3231 2.20001 11.43Z" />
</svg>
