<svg xmlns:xlink="http://www.w3.org/1999/xlink" xmlns="http://www.w3.org/2000/svg" fill="currentColor" viewBox="0 0 24 24" class="icon-3CqDw icon_large-2wsCL" aria-hidden="true" role="presentation" focusable="false" data-testid="svg-icon" width="20"  height="20" >
<path xmlns="http://www.w3.org/2000/svg" d="M1 12C1 11.4477 1.44772 11 2 11H6C6.55228 11 7 11.4477 7 12C7 12.5523 6.55228 13 6 13H2C1.44772 13 1 12.5523 1 12Z" fill="#666666"></path>
<path xmlns="http://www.w3.org/2000/svg" d="M9 12C9 11.4477 9.44771 11 10 11H14C14.5523 11 15 11.4477 15 12C15 12.5523 14.5523 13 14 13H10C9.44771 13 9 12.5523 9 12Z" fill="#666666"></path>
<path xmlns="http://www.w3.org/2000/svg" d="M18 11C17.4477 11 17 11.4477 17 12C17 12.5523 17.4477 13 18 13H22C22.5523 13 23 12.5523 23 12C23 11.4477 22.5523 11 22 11H18Z" fill="#666666"></path>
</svg>