<svg width="80" height="80" viewBox="0 0 80 80" fill="none" xmlns="http://www.w3.org/2000/svg">
<g clip-path="url(#clip0_981_14387)">
<mask id="mask0_981_14387" style="mask-type:luminance" maskUnits="userSpaceOnUse" x="0" y="0" width="80" height="80">
<path d="M80 0H0V80H80V0Z" fill="white"/>
</mask>
<g mask="url(#mask0_981_14387)">
<path d="M63.3333 16.6667V63.3333H16.6667V16.6667H63.3333ZM63.3333 10H16.6667C13 10 10 13 10 16.6667V63.3333C10 67 13 70 16.6667 70H63.3333C67 70 70 67 70 63.3333V16.6667C70 13 67 10 63.3333 10ZM47.1333 39.5333L37.1333 52.4333L30 43.8L20 56.6667H60L47.1333 39.5333Z" fill="#E3E3E5"/>
</g>
</g>
<defs>
<clipPath id="clip0_981_14387">
<rect width="80" height="80" fill="white"/>
</clipPath>
</defs>
</svg>
