<svg xmlns:xlink="http://www.w3.org/1999/xlink" xmlns="http://www.w3.org/2000/svg" width="20" height="20"
     viewBox="0 0 22 18" fill="none">
    <path fill-rule="evenodd" clip-rule="evenodd"
          d="M12.9766 5.10291C12.4053 5.9227 12 7.14367 12 8.99986C12 11.1437 11.5303 12.7977 10.6641 14.0404C9.79408 15.2888 8.59309 16.0229 7.31623 16.4485C6.05405 16.8693 4.69002 16.9985 3.43188 17.0308C2.66585 17.0504 1.86134 17.033 1.14408 17.0174C0.724466 17.0083 0.334715 16.9999 0 16.9999V14.9999C0.43037 14.9999 0.856245 15.0096 1.28911 15.0195C1.95573 15.0348 2.63892 15.0505 3.38062 15.0314C4.55998 15.0012 5.69595 14.8804 6.68377 14.5512C7.65691 14.2268 8.45592 13.7109 9.02335 12.8968C9.59472 12.077 10 10.8561 10 8.99986C10 6.85607 10.4697 5.20204 11.3359 3.95933C12.2059 2.71097 13.4069 1.97681 14.6838 1.55119C15.946 1.13046 17.31 1.00121 18.5681 0.968945C19.3342 0.949302 20.1387 0.966752 20.8559 0.982309C21.2755 0.991411 21.6653 0.999864 22 0.999864V2.99986C21.5696 2.99986 21.1438 2.99011 20.7109 2.98019C20.0443 2.96492 19.3611 2.94927 18.6194 2.96829C17.44 2.99853 16.304 3.11928 15.3162 3.44855C14.3431 3.77294 13.5441 4.28878 12.9766 5.10291Z"
          fill="#666666"></path>
</svg>