<svg width="4" height="21" viewBox="0 0 4 21" fill="none" xmlns="http://www.w3.org/2000/svg">
    <g clip-path="url(#clip0_2021_3948)">
        <path d="M2.77 19.8C2.48652 19.8317 2.20139 19.7568 1.97 19.59C1.9108 19.5339 1.86484 19.4653 1.83544 19.3892C1.80603 19.3131 1.79393 19.2314 1.8 19.15V11.45C1.79722 11.2203 1.74589 10.9937 1.64938 10.7851C1.55287 10.5766 1.41336 10.3908 1.24 10.24C1.40637 10.0895 1.53946 9.90594 1.63073 9.70101C1.722 9.49609 1.76944 9.27435 1.77 9.05001V1.34001C1.77161 1.20704 1.82134 1.07914 1.91 0.980015C2.13997 0.782728 2.43751 0.682352 2.74 0.700015H3.04V0.0300146L2.78 -0.0199854C2.31507 -0.0529931 1.85469 0.0897596 1.49 0.380015C1.35423 0.506835 1.2487 0.662542 1.18119 0.83563C1.11369 1.00872 1.08594 1.19476 1.1 1.38001V9.10001C1.09874 9.20811 1.07585 9.31487 1.03269 9.41398C0.989527 9.5131 0.926959 9.60257 0.848676 9.67712C0.770392 9.75168 0.677976 9.80981 0.576875 9.84809C0.475773 9.88637 0.368031 9.90403 0.26 9.90001H0V10.61H0.29C0.399007 10.6126 0.506434 10.6367 0.606144 10.6808C0.705854 10.7249 0.795891 10.7883 0.871113 10.8672C0.946335 10.9461 1.00527 11.0391 1.04454 11.1408C1.08381 11.2425 1.10266 11.351 1.1 11.46V19.15C1.09068 19.3357 1.1216 19.5212 1.19064 19.6938C1.25968 19.8664 1.36521 20.022 1.5 20.15C1.81335 20.397 2.20098 20.531 2.6 20.53H2.67H3.04V19.78L2.77 19.8Z"
              fill="#9b9b9b"/>
    </g>
    <defs>
        <clipPath id="clip0_2021_3948">
            <rect width="3.04" height="20.51" fill="white"/>
        </clipPath>
    </defs>
</svg>
