<svg xmlns:xlink="http://www.w3.org/1999/xlink" width="20" height="20" viewBox="0 0 18 18" version="1.1"
     xmlns="http://www.w3.org/2000/svg" fill="#9B9B9B">
    <path d="M14 0C16.2091 0 18 1.79086 18 4V14C18 16.2091 16.2091 18 14 18H4C1.79086 18 0 16.2091 0 14V4C0 1.79086 1.79086 0 4 0H14ZM14 2H4C2.94564 2 2.08183 2.81588 2.00549 3.85074L2 4V14C2 15.0544 2.81588 15.9182 3.85074 15.9945L4 16H14C15.0544 16 15.9182 15.1841 15.9945 14.1493L16 14V4C16 2.94564 15.1841 2.08183 14.1493 2.00549L14 2Z"
    ></path>
</svg>