<svg width="20"  id="Layer_1" data-name="Layer 1" xmlns="http://www.w3.org/2000/svg" viewBox="0 0 20.2 18.53">
    <defs>
        <style>.cls-1{fill:#9b9b9b;}</style>
    </defs>
    <path class="cls-1"
          d="M10.1,18.53C5.2,18.53,0,17.91,0,16.77v-15C0,.62,5.2,0,10.1,0S20.2.62,20.2,1.77v15C20.2,17.91,15,18.53,10.1,18.53ZM10.1.2C4.27.2.2,1,.2,1.77v15c0,.74,4.07,1.56,9.9,1.56s9.9-.82,9.9-1.56v-15C20,1,15.93.2,10.1.2Z"/>
    <path class="cls-1"
          d="M10.1,3.53l-1.52,0-1.46,0L5.33,3.33,4.11,3.2,3,3l-1-.18-.55-.13-.46-.15L.67,2.43.36,2.27.24,2.18.15,2.09.07,2,0,1.87V1.78l.2,0v.07l0,.07L.3,2,.37,2l.1.07.28.15.37.14.46.14.53.14.94.18L4.13,3l1.21.13,1.33.1,1.42.07,1.5,0h.51c5.83,0,9.9-.82,9.9-1.56h.2C20.2,2.91,15,3.53,10.1,3.53Z"/>
</svg>