<svg width="2" id="Layer_1" data-name="Layer 1" xmlns="http://www.w3.org/2000/svg" xmlns:xlink="http://www.w3.org/1999/xlink"
     viewBox="0 0 2.51 20.01">
    <defs>
        <style>.cls-1{fill:none;}.cls-2{clip-path:url(#clip-path);}.cls-3{fill:#9b9b9b;}</style>
        <clipPath id="clip-path" transform="translate(0 0)">
            <rect class="cls-1" x="-8.7" width="20" height="20"/>
        </clipPath>
    </defs>
    <g class="cls-2">
        <path class="cls-3"
              d="M2.41,20a1.51,1.51,0,0,1-1-.33,1,1,0,0,1-.31-.77V11.2A1.08,1.08,0,0,0,0,10.1V9.9A1.07,1.07,0,0,0,1.1,8.8V1.1A1,1,0,0,1,1.41.33,1.62,1.62,0,0,1,2.51,0l0,.2a1.46,1.46,0,0,0-1,.28.81.81,0,0,0-.24.62V8.8A1.36,1.36,0,0,1,.55,10a1.36,1.36,0,0,1,.75,1.2v7.7a.81.81,0,0,0,.24.62,1.46,1.46,0,0,0,1,.28l0,.2Z"
              transform="translate(0 0)"/>
    </g>
</svg>