<svg width="16" height="14" viewBox="0 0 16 14" fill="none" xmlns="http://www.w3.org/2000/svg">
<path d="M2.13508 0C1.82178 0 1.56751 0.253892 1.56751 0.567568V1.13514H0.999941C0.686643 1.13514 0.432373 1.38941 0.432373 1.7027V13.4324C0.432373 13.7457 0.686643 14 0.999941 14H14.9999C15.3132 14 15.5675 13.7457 15.5675 13.4324V1.7027C15.5675 1.38941 15.3132 1.13514 14.9999 1.13514H14.4324V0.567568C14.4324 0.253892 14.1781 0 13.8648 0H10.2702C9.34129 0 8.51794 0.45085 7.99994 1.14253C7.48194 0.45085 6.65859 0 5.72967 0H2.13508ZM2.70264 1.13514H5.72967C6.66843 1.13514 7.43237 1.89908 7.43237 2.83784V11.1622C7.43237 11.4758 7.68664 11.7297 7.99994 11.7297C8.31324 11.7297 8.56751 11.4758 8.56751 11.1622V2.83784C8.56751 1.89908 9.33145 1.13514 10.2702 1.13514H13.2972V11.7297H10.2702C9.35226 11.7297 8.52362 12.1744 7.99994 12.8767C7.47626 12.1744 6.64762 11.7297 5.72967 11.7297H2.70264V1.13514ZM4.40535 3.02703C4.33014 3.02596 4.25547 3.03986 4.18567 3.0679C4.11588 3.09595 4.05236 3.13759 3.9988 3.1904C3.94523 3.2432 3.9027 3.30613 3.87367 3.37552C3.84464 3.44491 3.82969 3.51938 3.82969 3.59459C3.82969 3.66981 3.84464 3.74428 3.87367 3.81367C3.9027 3.88306 3.94523 3.94598 3.9988 3.99879C4.05236 4.0516 4.11588 4.09324 4.18567 4.12129C4.25547 4.14933 4.33014 4.16323 4.40535 4.16216H5.91886C5.99407 4.16323 6.06874 4.14933 6.13853 4.12129C6.20832 4.09324 6.27185 4.0516 6.32541 3.99879C6.37897 3.94598 6.4215 3.88306 6.45053 3.81367C6.47956 3.74428 6.49451 3.66981 6.49451 3.59459C6.49451 3.51938 6.47956 3.44491 6.45053 3.37552C6.4215 3.30613 6.37897 3.2432 6.32541 3.1904C6.27185 3.13759 6.20832 3.09595 6.13853 3.0679C6.06874 3.03986 5.99407 3.02596 5.91886 3.02703H4.40535ZM10.081 3.02703C10.0058 3.02596 9.93114 3.03986 9.86135 3.0679C9.79156 3.09595 9.72803 3.13759 9.67447 3.1904C9.62091 3.2432 9.57838 3.30613 9.54935 3.37552C9.52032 3.44491 9.50537 3.51938 9.50537 3.59459C9.50537 3.66981 9.52032 3.74428 9.54935 3.81367C9.57838 3.88306 9.62091 3.94598 9.67447 3.99879C9.72803 4.0516 9.79156 4.09324 9.86135 4.12129C9.93114 4.14933 10.0058 4.16323 10.081 4.16216H11.5945C11.6697 4.16323 11.7444 4.14933 11.8142 4.12129C11.884 4.09324 11.9475 4.0516 12.0011 3.99879C12.0546 3.94598 12.0972 3.88306 12.1262 3.81367C12.1552 3.74428 12.1702 3.66981 12.1702 3.59459C12.1702 3.51938 12.1552 3.44491 12.1262 3.37552C12.0972 3.30613 12.0546 3.2432 12.0011 3.1904C11.9475 3.13759 11.884 3.09595 11.8142 3.0679C11.7444 3.03986 11.6697 3.02596 11.5945 3.02703H10.081ZM4.40535 4.91892C4.33014 4.91786 4.25547 4.93175 4.18567 4.9598C4.11588 4.98784 4.05236 5.02948 3.9988 5.08229C3.94523 5.1351 3.9027 5.19802 3.87367 5.26741C3.84464 5.3368 3.82969 5.41127 3.82969 5.48649C3.82969 5.5617 3.84464 5.63617 3.87367 5.70556C3.9027 5.77495 3.94523 5.83788 3.9988 5.89069C4.05236 5.94349 4.11588 5.98513 4.18567 6.01318C4.25547 6.04122 4.33014 6.05512 4.40535 6.05405H5.91886C5.99407 6.05512 6.06874 6.04122 6.13853 6.01318C6.20832 5.98513 6.27185 5.94349 6.32541 5.89069C6.37897 5.83788 6.4215 5.77495 6.45053 5.70556C6.47956 5.63617 6.49451 5.5617 6.49451 5.48649C6.49451 5.41127 6.47956 5.3368 6.45053 5.26741C6.4215 5.19802 6.37897 5.1351 6.32541 5.08229C6.27185 5.02948 6.20832 4.98784 6.13853 4.9598C6.06874 4.93175 5.99407 4.91786 5.91886 4.91892H4.40535ZM10.081 4.91892C10.0058 4.91786 9.93114 4.93175 9.86135 4.9598C9.79156 4.98784 9.72803 5.02948 9.67447 5.08229C9.62091 5.1351 9.57838 5.19802 9.54935 5.26741C9.52032 5.3368 9.50537 5.41127 9.50537 5.48649C9.50537 5.5617 9.52032 5.63617 9.54935 5.70556C9.57838 5.77495 9.62091 5.83788 9.67447 5.89069C9.72803 5.94349 9.79156 5.98513 9.86135 6.01318C9.93114 6.04122 10.0058 6.05512 10.081 6.05405H11.5945C11.6697 6.05512 11.7444 6.04122 11.8142 6.01318C11.884 5.98513 11.9475 5.94349 12.0011 5.89069C12.0546 5.83788 12.0972 5.77495 12.1262 5.70556C12.1552 5.63617 12.1702 5.5617 12.1702 5.48649C12.1702 5.41127 12.1552 5.3368 12.1262 5.26741C12.0972 5.19802 12.0546 5.1351 12.0011 5.08229C11.9475 5.02948 11.884 4.98784 11.8142 4.9598C11.7444 4.93175 11.6697 4.91786 11.5945 4.91892H10.081ZM4.40535 6.81081C4.33014 6.80975 4.25547 6.82364 4.18567 6.85169C4.11588 6.87973 4.05236 6.92137 3.9988 6.97418C3.94523 7.02699 3.9027 7.08992 3.87367 7.15931C3.84464 7.22869 3.82969 7.30316 3.82969 7.37838C3.82969 7.4536 3.84464 7.52806 3.87367 7.59745C3.9027 7.66684 3.94523 7.72977 3.9988 7.78258C4.05236 7.83539 4.11588 7.87702 4.18567 7.90507C4.25547 7.93312 4.33014 7.94701 4.40535 7.94595H5.91886C5.99407 7.94701 6.06874 7.93312 6.13853 7.90507C6.20832 7.87702 6.27185 7.83539 6.32541 7.78258C6.37897 7.72977 6.4215 7.66684 6.45053 7.59745C6.47956 7.52806 6.49451 7.4536 6.49451 7.37838C6.49451 7.30316 6.47956 7.22869 6.45053 7.15931C6.4215 7.08992 6.37897 7.02699 6.32541 6.97418C6.27185 6.92137 6.20832 6.87973 6.13853 6.85169C6.06874 6.82364 5.99407 6.80975 5.91886 6.81081H4.40535ZM10.081 6.81081C10.0058 6.80975 9.93114 6.82364 9.86135 6.85169C9.79156 6.87973 9.72803 6.92137 9.67447 6.97418C9.62091 7.02699 9.57838 7.08992 9.54935 7.15931C9.52032 7.22869 9.50537 7.30316 9.50537 7.37838C9.50537 7.4536 9.52032 7.52806 9.54935 7.59745C9.57838 7.66684 9.62091 7.72977 9.67447 7.78258C9.72803 7.83539 9.79156 7.87702 9.86135 7.90507C9.93114 7.93312 10.0058 7.94701 10.081 7.94595H11.5945C11.6697 7.94701 11.7444 7.93312 11.8142 7.90507C11.884 7.87702 11.9475 7.83539 12.0011 7.78258C12.0546 7.72977 12.0972 7.66684 12.1262 7.59745C12.1552 7.52806 12.1702 7.4536 12.1702 7.37838C12.1702 7.30316 12.1552 7.22869 12.1262 7.15931C12.0972 7.08992 12.0546 7.02699 12.0011 6.97418C11.9475 6.92137 11.884 6.87973 11.8142 6.85169C11.7444 6.82364 11.6697 6.80975 11.5945 6.81081H10.081ZM4.40535 8.7027C4.33014 8.70164 4.25547 8.71553 4.18567 8.74358C4.11588 8.77163 4.05236 8.81326 3.9988 8.86607C3.94523 8.91888 3.9027 8.98181 3.87367 9.0512C3.84464 9.12059 3.82969 9.19505 3.82969 9.27027C3.82969 9.34549 3.84464 9.41995 3.87367 9.48934C3.9027 9.55873 3.94523 9.62166 3.9988 9.67447C4.05236 9.72728 4.11588 9.76892 4.18567 9.79696C4.25547 9.82501 4.33014 9.8389 4.40535 9.83784H5.91886C5.99407 9.8389 6.06874 9.82501 6.13853 9.79696C6.20832 9.76892 6.27185 9.72728 6.32541 9.67447C6.37897 9.62166 6.4215 9.55873 6.45053 9.48934C6.47956 9.41995 6.49451 9.34549 6.49451 9.27027C6.49451 9.19505 6.47956 9.12059 6.45053 9.0512C6.4215 8.98181 6.37897 8.91888 6.32541 8.86607C6.27185 8.81326 6.20832 8.77163 6.13853 8.74358C6.06874 8.71553 5.99407 8.70164 5.91886 8.7027H4.40535ZM10.081 8.7027C10.0058 8.70164 9.93114 8.71553 9.86135 8.74358C9.79156 8.77163 9.72803 8.81326 9.67447 8.86607C9.62091 8.91888 9.57838 8.98181 9.54935 9.0512C9.52032 9.12059 9.50537 9.19505 9.50537 9.27027C9.50537 9.34549 9.52032 9.41995 9.54935 9.48934C9.57838 9.55873 9.62091 9.62166 9.67447 9.67447C9.72803 9.72728 9.79156 9.76892 9.86135 9.79696C9.93114 9.82501 10.0058 9.8389 10.081 9.83784H11.5945C11.6697 9.8389 11.7444 9.82501 11.8142 9.79696C11.884 9.76892 11.9475 9.72728 12.0011 9.67447C12.0546 9.62166 12.0972 9.55873 12.1262 9.48934C12.1552 9.41995 12.1702 9.34549 12.1702 9.27027C12.1702 9.19505 12.1552 9.12059 12.1262 9.0512C12.0972 8.98181 12.0546 8.91888 12.0011 8.86607C11.9475 8.81326 11.884 8.77163 11.8142 8.74358C11.7444 8.71553 11.6697 8.70164 11.5945 8.7027H10.081Z" fill="white"/>
</svg>
