<svg width="16" height="16" viewBox="0 0 16 16" fill="none" xmlns="http://www.w3.org/2000/svg">
<path fill-rule="evenodd" clip-rule="evenodd" d="M13.7143 2.28571H14.8571C15.4883 2.28571 16 2.79739 16 3.42857V5.71429H0V3.42857C0 2.79739 0.511675 2.28571 1.14286 2.28571H2.28571V0H4.57143V2.28571H11.4286V0H13.7143V2.28571ZM0 6.85708H16V14.8571C16 15.4883 15.4883 15.9999 14.8571 15.9999H1.14286C0.511675 15.9999 0 15.4883 0 14.8571V6.85708ZM2.28571 10.2857V12.5714H4.57143V10.2857H2.28571ZM6.85714 10.2857V12.5714H9.14286V10.2857H6.85714ZM11.4286 10.2857V12.5714H13.7143V10.2857H11.4286Z" fill="#545E6B"/>
</svg>
