<?xml version="1.0" encoding="UTF-8"?>
<svg id="Layer_1" data-name="Layer 1" xmlns="http://www.w3.org/2000/svg" viewBox="0 0 13.92 14.05">
  <defs>
    <style>
      .cls-1 {
        fill: #555e6b;
        stroke-width: 0px;
      }
    </style>
  </defs>
  <path class="cls-1" d="M0,14.05V2.64c0-.37.08-.71.22-1.04.14-.32.34-.61.6-.86.25-.24.54-.43.87-.56C2.02.06,2.37,0,2.72,0h8.5c.34,0,.68.06,1.01.18.33.13.62.32.88.56.26.25.46.54.6.86.14.32.21.66.22,1.02v6.57c-.02.73-.31,1.4-.82,1.89-.51.49-1.19.74-1.9.74h-6.39c-.12,0-.23.03-.33.07L0,14.05ZM2.68,2c-.1,0-.18.02-.26.05-.08.03-.15.08-.22.14-.07.06-.12.14-.15.22-.04.08-.05.17-.05.25v8.21l1.62-.78c.38-.18.79-.27,1.19-.27h6.41c.19,0,.37-.06.49-.19s.2-.29.21-.47V2.65c0-.09-.02-.17-.05-.25-.04-.08-.09-.16-.15-.22-.06-.06-.14-.11-.22-.14-.08-.03-.19-.04-.26-.05H2.68Z"/>
</svg>