<svg width="112" height="112" viewBox="0 0 112 112" fill="none" xmlns="http://www.w3.org/2000/svg">
<path d="M56 89.25H54.25C46.5185 89.25 40.25 95.5185 40.25 103.25C40.25 105.184 41.8162 106.75 43.75 106.75H66.5C68.4338 106.75 70 105.184 70 103.25C70 95.5185 63.7315 89.25 56 89.25Z" fill="url(#paint0_linear_937_12089)"/>
<path d="M43.75 75.0435C43.75 68.7628 48.8425 63 55.125 63C61.4075 63 66.5 68.7628 66.5 75.0435C66.5 81.326 61.4075 85.75 55.125 85.75C48.8425 85.75 43.75 81.326 43.75 75.0435Z" fill="white"/>
<path d="M65.2137 60.529C59.0205 60.529 58.3852 57.75 52.829 57.75C48.1845 57.75 45.0887 60.2385 45.0887 63.308C45.0887 64.0097 45.3337 64.6782 45.7642 65.2977C44.5235 66.5595 43.75 68.313 43.75 70.2572V74.4257C45.36 74.4257 46.8003 73.388 47.3655 71.8235L48.8723 67.648C50.5943 68.4092 52.773 68.866 55.1495 68.866C57.6222 68.866 59.689 68.3585 61.3568 67.599L62.881 71.8218C63.4462 73.3863 64.8865 74.424 66.4965 74.424V70.2555C66.4965 68.3655 65.765 66.6593 64.5873 65.4062C66.8955 63.1155 67.1195 60.529 65.2137 60.529Z" fill="url(#paint1_linear_937_12089)"/>
<path d="M56 36.75H54.25C46.5185 36.75 40.25 43.0185 40.25 50.75C40.25 52.6838 41.8162 54.25 43.75 54.25H66.5C68.4338 54.25 70 52.6838 70 50.75C70 43.0185 63.7315 36.75 56 36.75Z" fill="url(#paint2_linear_937_12089)"/>
<path d="M43.75 22.5435C43.75 16.2628 48.8425 10.5 55.125 10.5C61.4075 10.5 66.5 16.2628 66.5 22.5435C66.5 28.8242 61.4075 33.25 55.125 33.25C48.8425 33.25 43.75 28.826 43.75 22.5435Z" fill="white"/>
<path d="M65.2137 8.029C59.0222 8.029 58.387 5.25 52.829 5.25C48.1845 5.25 45.0887 7.7385 45.0887 10.808C45.0887 11.5098 45.3337 12.1783 45.7642 12.7978C44.5235 14.0595 43.75 15.813 43.75 17.7573V21.9258C45.36 21.9258 46.8003 20.888 47.3655 19.3235L48.8723 15.148C50.5943 15.9093 52.773 16.366 55.1495 16.366C57.6222 16.366 59.689 15.8585 61.3568 15.099L62.881 19.3218C63.4462 20.8863 64.8865 21.924 66.4965 21.924V17.7555C66.4965 15.8655 65.765 14.1593 64.5873 12.9062C66.8955 10.6155 67.1195 8.029 65.2137 8.029Z" fill="url(#paint3_linear_937_12089)"/>
<path d="M21 63H19.25C11.5185 63 5.25 69.2685 5.25 77C5.25 78.9338 6.81625 80.5 8.75 80.5H31.5C33.4338 80.5 35 78.9338 35 77C35 69.2685 28.7315 63 21 63Z" fill="url(#paint4_linear_937_12089)"/>
<path d="M8.75 48.7935C8.75 42.5128 13.8425 36.75 20.125 36.75C26.4075 36.75 31.5 42.5128 31.5 48.7935C31.5 55.0742 26.4075 59.5 20.125 59.5C13.8425 59.5 8.75 55.076 8.75 48.7935Z" fill="white"/>
<path d="M30.2137 34.279C24.0205 34.279 23.3852 31.5 17.829 31.5C13.1845 31.5 10.0887 33.9885 10.0887 37.058C10.0887 37.7598 10.3338 38.4282 10.7643 39.0477C9.5235 40.3095 8.75 42.063 8.75 44.0072V48.1757C10.36 48.1757 11.8003 47.138 12.3655 45.5735L13.8723 41.398C15.5943 42.1593 17.773 42.616 20.1495 42.616C22.6222 42.616 24.689 42.1085 26.3568 41.349L27.881 45.5718C28.4463 47.1363 29.8865 48.174 31.4965 48.174V44.0055C31.4965 42.1155 30.765 40.4093 29.5872 39.1562C31.8955 36.8655 32.1195 34.279 30.2137 34.279Z" fill="url(#paint5_linear_937_12089)"/>
<path d="M92.75 63H91C83.2685 63 77 69.2685 77 77C77 78.9338 78.5662 80.5 80.5 80.5H103.25C105.184 80.5 106.75 78.9338 106.75 77C106.75 69.2685 100.482 63 92.75 63Z" fill="url(#paint6_linear_937_12089)"/>
<path d="M80.5 48.7935C80.5 42.5128 85.5925 36.75 91.875 36.75C98.1575 36.75 103.25 42.5128 103.25 48.7935C103.25 55.0742 98.1575 59.5 91.875 59.5C85.5925 59.5 80.5 55.076 80.5 48.7935Z" fill="white"/>
<path d="M101.964 34.279C95.7705 34.279 95.1352 31.5 89.579 31.5C84.9345 31.5 81.8387 33.9885 81.8387 37.058C81.8387 37.7598 82.0838 38.4282 82.5143 39.0477C81.2735 40.3095 80.5 42.063 80.5 44.0072V48.1757C82.11 48.1757 83.5503 47.138 84.1155 45.5735L85.6222 41.398C87.3442 42.1593 89.523 42.616 91.8995 42.616C94.3722 42.616 96.439 42.1085 98.1068 41.349L99.631 45.5718C100.196 47.1363 101.637 48.174 103.247 48.174V44.0055C103.247 42.1155 102.515 40.4093 101.337 39.1562C103.646 36.8655 103.869 34.279 101.964 34.279Z" fill="url(#paint7_linear_937_12089)"/>
<defs>
<linearGradient id="paint0_linear_937_12089" x1="55.125" y1="106.75" x2="55.125" y2="89.25" gradientUnits="userSpaceOnUse">
<stop stop-color="#1786E9"/>
<stop offset="0.235" stop-color="#1B87E6"/>
<stop offset="0.651" stop-color="#2C97F5"/>
<stop offset="1" stop-color="#48A9FE"/>
</linearGradient>
<linearGradient id="paint1_linear_937_12089" x1="55.1234" y1="74.4257" x2="55.1234" y2="57.75" gradientUnits="userSpaceOnUse">
<stop stop-color="#1786E9"/>
<stop offset="0.235" stop-color="#1B87E6"/>
<stop offset="0.651" stop-color="#2C97F5"/>
<stop offset="1" stop-color="#48A9FE"/>
</linearGradient>
<linearGradient id="paint2_linear_937_12089" x1="55.125" y1="37.0847" x2="55.125" y2="60.0163" gradientUnits="userSpaceOnUse">
<stop stop-color="#ADADAD"/>
<stop offset="0.412" stop-color="#969696"/>
<stop offset="1" stop-color="#6F6F6F"/>
</linearGradient>
<linearGradient id="paint3_linear_937_12089" x1="55.1234" y1="5.56892" x2="55.1234" y2="27.4204" gradientUnits="userSpaceOnUse">
<stop stop-color="#ADADAD"/>
<stop offset="0.412" stop-color="#969696"/>
<stop offset="1" stop-color="#6F6F6F"/>
</linearGradient>
<linearGradient id="paint4_linear_937_12089" x1="20.125" y1="80.5" x2="20.125" y2="63" gradientUnits="userSpaceOnUse">
<stop stop-color="#1786E9"/>
<stop offset="0.235" stop-color="#1B87E6"/>
<stop offset="0.651" stop-color="#2C97F5"/>
<stop offset="1" stop-color="#48A9FE"/>
</linearGradient>
<linearGradient id="paint5_linear_937_12089" x1="20.1234" y1="48.1757" x2="20.1234" y2="31.5" gradientUnits="userSpaceOnUse">
<stop stop-color="#1786E9"/>
<stop offset="0.235" stop-color="#1B87E6"/>
<stop offset="0.651" stop-color="#2C97F5"/>
<stop offset="1" stop-color="#48A9FE"/>
</linearGradient>
<linearGradient id="paint6_linear_937_12089" x1="91.875" y1="80.5" x2="91.875" y2="63" gradientUnits="userSpaceOnUse">
<stop stop-color="#1786E9"/>
<stop offset="0.235" stop-color="#1B87E6"/>
<stop offset="0.651" stop-color="#2C97F5"/>
<stop offset="1" stop-color="#48A9FE"/>
</linearGradient>
<linearGradient id="paint7_linear_937_12089" x1="91.8734" y1="48.1757" x2="91.8734" y2="31.5" gradientUnits="userSpaceOnUse">
<stop stop-color="#1786E9"/>
<stop offset="0.235" stop-color="#1B87E6"/>
<stop offset="0.651" stop-color="#2C97F5"/>
<stop offset="1" stop-color="#48A9FE"/>
</linearGradient>
</defs>
</svg>
