<svg width="40" height="40" viewBox="0 0 116 116" fill="none" xmlns="http://www.w3.org/2000/svg">
<path fill-rule="evenodd" clip-rule="evenodd" d="M30.3811 19.3334H85.6192C88.5492 19.3334 91.3592 20.4973 93.431 22.5691C95.5029 24.641 96.6668 27.451 96.6668 30.381V85.6191C96.6668 88.5491 95.5029 91.3591 93.431 93.4309C91.3592 95.5028 88.5492 96.6667 85.6192 96.6667H30.3811C27.4511 96.6667 24.6411 95.5028 22.5693 93.4309C20.4974 91.3591 19.3335 88.5491 19.3335 85.6191V30.381C19.3335 27.451 20.4974 24.641 22.5693 22.5691C24.6411 20.4973 27.4511 19.3334 30.3811 19.3334Z" stroke="#878F99" stroke-opacity="0.57" stroke-width="2" stroke-linecap="round" stroke-linejoin="round"/>
<path d="M96.6668 74.5714L80.0954 58L63.524 74.4886M85.6192 96.6667L35.9049 46.9524L19.3335 63.5238" stroke="#878F99" stroke-opacity="0.57" stroke-width="2" stroke-linecap="round" stroke-linejoin="round"/>
<path d="M77.3334 44.1906C80.3841 44.1906 82.8572 41.7175 82.8572 38.6668C82.8572 35.616 80.3841 33.1429 77.3334 33.1429C74.2827 33.1429 71.8096 35.616 71.8096 38.6668C71.8096 41.7175 74.2827 44.1906 77.3334 44.1906Z" fill="#878F99" fill-opacity="0.57"/>
</svg>
