<svg width="14" height="12" viewBox="0 0 14 12" fill="white" xmlns="http://www.w3.org/2000/svg">
<path fill-rule="evenodd" clip-rule="evenodd" d="M10.501 3.5C10.501 4.32843 11.1725 5 12.001 5C12.8294 5 13.501 4.32843 13.501 3.5C13.501 2.67157 12.8294 2 12.001 2C11.1725 2 10.501 2.67157 10.501 3.5ZM10.501 8.5C10.501 9.32843 11.1725 10 12.001 10C12.8294 10 13.501 9.32843 13.501 8.5C13.501 7.67157 12.8294 7 12.001 7C11.1725 7 10.501 7.67157 10.501 8.5ZM2.00098 5C1.17255 5 0.500976 4.32843 0.500976 3.5C0.500977 2.67157 1.17255 2 2.00098 2C2.8294 2 3.50098 2.67157 3.50098 3.5C3.50098 4.32843 2.8294 5 2.00098 5ZM5.49902 8.5C5.49902 9.32843 6.1706 10 6.99902 10C7.82745 10 8.49902 9.32843 8.49902 8.5C8.49902 7.67157 7.82745 7 6.99902 7C6.1706 7 5.49902 7.67157 5.49902 8.5ZM6.99902 5C6.1706 5 5.49902 4.32843 5.49902 3.5C5.49902 2.67157 6.1706 2 6.99902 2C7.82745 2 8.49902 2.67157 8.49902 3.5C8.49902 4.32843 7.82745 5 6.99902 5ZM0.499023 8.5C0.499023 9.32843 1.1706 10 1.99902 10C2.82745 10 3.49902 9.32843 3.49902 8.5C3.49902 7.67157 2.82745 7 1.99902 7C1.1706 7 0.499023 7.67157 0.499023 8.5Z" />
</svg>
