<svg width="22" height="22" viewBox="0 0 14 14" fill="none" xmlns="http://www.w3.org/2000/svg">
<path d="M6.00143 0L5.49399 1.55071C4.7264 1.76241 4.02442 2.13112 3.4248 2.62132L3.78501 1.83834L3.15189 1.49392C2.94216 1.38003 2.68259 1.41766 2.51405 1.58646L1.34405 2.75593L2.08338 4.21462C1.70507 4.8809 1.45526 5.62964 1.37508 6.42946L1.07692 5.62335L0.385968 5.8279C0.157121 5.89548 0 6.10574 0 6.34428V7.99857L1.55071 8.50601C1.76241 9.2736 2.13112 9.97558 2.62132 10.5752L1.83834 10.215L1.49392 10.8481C1.38003 11.0578 1.41766 11.3174 1.58646 11.486L2.75593 12.656L4.21462 11.9166C4.8809 12.2949 5.62964 12.5447 6.42946 12.6249L5.62335 12.9231L5.8279 13.614C5.89548 13.8429 6.10574 14 6.34428 14H7.99857L8.50601 12.4493C9.2736 12.2376 9.97558 11.8689 10.5752 11.3787L10.215 12.1617L10.8481 12.5061C11.0578 12.62 11.3174 12.5823 11.486 12.4135L12.656 11.2441L11.9166 9.78538C12.2949 9.1191 12.5447 8.37036 12.6249 7.57054L12.9231 8.37665L13.614 8.1721C13.8429 8.10452 14 7.89426 14 7.65572V6.00143L12.4493 5.49399C12.2376 4.7264 11.8689 4.02442 11.3787 3.4248L12.1617 3.78501L12.5061 3.15189C12.62 2.94216 12.5823 2.68259 12.4135 2.51405L11.2441 1.34405L9.78538 2.08338C9.1191 1.70507 8.37036 1.45526 7.57054 1.37508L8.37665 1.07692L8.1721 0.385968C8.10452 0.157121 7.89426 0 7.65572 0H6.00143ZM7 2.69231C9.37919 2.69231 11.3077 4.62081 11.3077 7C11.3077 9.37892 9.37919 11.3077 7 11.3077C4.62081 11.3077 2.69231 9.37892 2.69231 7C2.69231 4.62081 4.62081 2.69231 7 2.69231ZM7 3.76923C5.21581 3.76923 3.76923 5.21581 3.76923 7C3.76923 8.78419 5.21581 10.2308 7 10.2308C8.78419 10.2308 10.2308 8.78419 10.2308 7C10.2308 5.21581 8.78419 3.76923 7 3.76923ZM7 5.92308C7.59473 5.92308 8.07692 6.40527 8.07692 7C8.07692 7.59473 7.59473 8.07692 7 8.07692C6.40527 8.07692 5.92308 7.59473 5.92308 7C5.92308 6.40527 6.40527 5.92308 7 5.92308Z" fill="#1b87e6"/>
</svg>
