<svg width="18" height="18" viewBox="0 0 18 18" fill="none" xmlns="http://www.w3.org/2000/svg">
<path d="M9.7094 12.75L8.21567 12.75L8.21567 11.25L9.7094 11.25L9.7094 12.75ZM9.7094 9.75L8.21567 9.75L8.21567 5.25L9.7094 5.25L9.7094 9.75ZM8.96253 16.5C13.0852 16.5 16.4312 13.14 16.4312 9C16.4312 4.86 13.0852 1.5 8.96253 1.5C4.83986 1.5 1.49391 4.86 1.49391 9C1.49391 13.14 4.83986 16.5 8.96253 16.5ZM8.96253 3C12.2562 3 14.9374 5.6925 14.9374 9C14.9374 12.3075 12.2562 15 8.96253 15C5.66887 15 2.98764 12.3075 2.98764 9C2.98764 5.6925 5.66887 3 8.96253 3Z" fill="#FF3838"/>
</svg>
