<svg width="12" height="12" viewBox="0 0 12 12" xmlns="http://www.w3.org/2000/svg"  fill="#545E6B">
    <path d="M10.875 -9.83506e-08C11.175 -7.21238e-08 11.4375 0.1125 11.6625 0.337501C11.8875 0.562501 12 0.825 12 1.125L12 3.80625L10.875 3.80625L10.875 1.125L1.125 1.125L1.125 3.80625L7.1632e-07 3.80625L9.50723e-07 1.125C9.7695e-07 0.824999 0.112501 0.5625 0.337502 0.3375C0.562502 0.112499 0.825001 -9.7695e-07 1.125 -9.50723e-07L10.875 -9.83506e-08ZM6.5625 2.86875L6.5625 9.825L8.8125 7.575L9.61875 8.38125L6 12L2.38125 8.38125L3.1875 7.575L5.4375 9.825L5.4375 2.86875L6.5625 2.86875Z"
         />
</svg>
