<svg width="16" height="16" viewBox="0 0 16 16" fill="#545E6B" xmlns="http://www.w3.org/2000/svg">
<path d="M7.21541 4.25H8.70913V5.75H7.21541V4.25ZM7.21541 7.25H8.70913V11.75H7.21541V7.25ZM7.96227 0.5C3.83959 0.5 0.493652 3.86 0.493652 8C0.493652 12.14 3.83959 15.5 7.96227 15.5C12.0849 15.5 15.4309 12.14 15.4309 8C15.4309 3.86 12.0849 0.5 7.96227 0.5ZM7.96227 14C4.66861 14 1.98738 11.3075 1.98738 8C1.98738 4.6925 4.66861 2 7.96227 2C11.2559 2 13.9372 4.6925 13.9372 8C13.9372 11.3075 11.2559 14 7.96227 14Z" />
</svg>
