<svg width="14" height="14" viewBox="0 0 14 14" fill="none" xmlns="http://www.w3.org/2000/svg">
<path d="M1.25 6.4375C0.697715 6.4375 0.25 5.98978 0.25 5.4375V1.25C0.25 0.697715 0.697715 0.25 1.25 0.25H5.4375C5.98978 0.25 6.4375 0.697715 6.4375 1.25V5.4375C6.4375 5.98978 5.98978 6.4375 5.4375 6.4375H1.25ZM1.25 13.75C0.697715 13.75 0.25 13.3023 0.25 12.75V8.5625C0.25 8.01022 0.697715 7.5625 1.25 7.5625H5.4375C5.98978 7.5625 6.4375 8.01022 6.4375 8.5625V12.75C6.4375 13.3023 5.98978 13.75 5.4375 13.75H1.25ZM8.5625 6.4375C8.01022 6.4375 7.5625 5.98978 7.5625 5.4375V1.25C7.5625 0.697715 8.01022 0.25 8.5625 0.25H12.75C13.3023 0.25 13.75 0.697715 13.75 1.25V5.4375C13.75 5.98978 13.3023 6.4375 12.75 6.4375H8.5625ZM8.5625 13.75C8.01022 13.75 7.5625 13.3023 7.5625 12.75V8.5625C7.5625 8.01022 8.01022 7.5625 8.5625 7.5625H12.75C13.3023 7.5625 13.75 8.01022 13.75 8.5625V12.75C13.75 13.3023 13.3023 13.75 12.75 13.75H8.5625ZM1.375 5.3125H5.3125V1.375H1.375V5.3125ZM8.6875 5.3125H12.625V1.375H8.6875V5.3125ZM8.6875 12.625H12.625V8.6875H8.6875V12.625ZM1.375 12.625H5.3125V8.6875H1.375V12.625Z" fill="#545E6B"/>
</svg>
