<svg width="8" height="231" viewBox="0 0 8 231" fill="none" xmlns="http://www.w3.org/2000/svg">
<path d="M4 230.887L6.88675 228L4 225.113L1.11325 228L4 230.887ZM4.35353 0.625C4.15827 0.429733 3.84169 0.429733 3.64643 0.625L0.464446 3.80698C0.269184 4.00224 0.269184 4.31882 0.464446 4.51408C0.659708 4.70934 0.976291 4.70934 1.17155 4.51408L3.99998 1.68565L6.82841 4.51408C7.02367 4.70934 7.34025 4.70934 7.53551 4.51408C7.73078 4.31882 7.73078 4.00224 7.53551 3.80698L4.35353 0.625ZM4.5 228L4.5 227.004L3.5 227.004L3.5 228L4.5 228ZM4.5 225.013L4.5 223.021L3.5 223.021L3.5 225.013L4.5 225.013ZM4.5 221.03L4.5 219.039L3.5 219.039L3.5 221.03L4.5 221.03ZM4.5 217.047L4.5 215.056L3.5 215.056L3.5 217.047L4.5 217.047ZM4.5 213.064L4.5 211.073L3.5 211.073L3.5 213.064L4.5 213.064ZM4.5 209.082L4.5 207.09L3.5 207.09L3.5 209.082L4.5 209.082ZM4.5 205.099L4.5 203.107L3.5 203.107L3.5 205.099L4.5 205.099ZM4.5 201.116L4.5 199.124L3.5 199.124L3.5 201.116L4.5 201.116ZM4.5 197.133L4.5 195.142L3.5 195.142L3.5 197.133L4.5 197.133ZM4.5 193.15L4.5 191.159L3.5 191.159L3.5 193.15L4.5 193.15ZM4.5 189.167L4.5 187.176L3.5 187.176L3.5 189.167L4.5 189.167ZM4.5 185.185L4.5 183.193L3.5 183.193L3.5 185.185L4.5 185.185ZM4.5 181.202L4.5 179.21L3.5 179.21L3.5 181.202L4.5 181.202ZM4.5 177.219L4.5 175.227L3.5 175.227L3.5 177.219L4.5 177.219ZM4.5 173.236L4.49999 171.245L3.49999 171.245L3.5 173.236L4.5 173.236ZM4.49999 169.253L4.49999 167.262L3.49999 167.262L3.49999 169.253L4.49999 169.253ZM4.49999 165.27L4.49999 163.279L3.49999 163.279L3.49999 165.27L4.49999 165.27ZM4.49999 161.288L4.49999 159.296L3.49999 159.296L3.49999 161.288L4.49999 161.288ZM4.49999 157.305L4.49999 155.313L3.49999 155.313L3.49999 157.305L4.49999 157.305ZM4.49999 153.322L4.49999 151.33L3.49999 151.33L3.49999 153.322L4.49999 153.322ZM4.49999 149.339L4.49999 147.348L3.49999 147.348L3.49999 149.339L4.49999 149.339ZM4.49999 145.356L4.49999 143.365L3.49999 143.365L3.49999 145.356L4.49999 145.356ZM4.49999 141.373L4.49999 139.382L3.49999 139.382L3.49999 141.373L4.49999 141.373ZM4.49999 137.391L4.49999 135.399L3.49999 135.399L3.49999 137.391L4.49999 137.391ZM4.49999 133.408L4.49999 131.416L3.49999 131.416L3.49999 133.408L4.49999 133.408ZM4.49999 129.425L4.49999 127.433L3.49999 127.433L3.49999 129.425L4.49999 129.425ZM4.49999 125.442L4.49999 123.451L3.49999 123.451L3.49999 125.442L4.49999 125.442ZM4.49999 121.459L4.49999 119.468L3.49999 119.468L3.49999 121.459L4.49999 121.459ZM4.49999 117.476L4.49999 115.485L3.49999 115.485L3.49999 117.476L4.49999 117.476ZM4.49999 113.494L4.49999 111.502L3.49999 111.502L3.49999 113.494L4.49999 113.494ZM4.49999 109.511L4.49999 107.519L3.49999 107.519L3.49999 109.511L4.49999 109.511ZM4.49999 105.528L4.49999 103.536L3.49999 103.536L3.49999 105.528L4.49999 105.528ZM4.49999 101.545L4.49999 99.5536L3.49999 99.5536L3.49999 101.545L4.49999 101.545ZM4.49999 97.5622L4.49999 95.5708L3.49999 95.5708L3.49999 97.5622L4.49999 97.5622ZM4.49999 93.5794L4.49999 91.588L3.49999 91.588L3.49999 93.5794L4.49999 93.5794ZM4.49999 89.5966L4.49999 87.6052L3.49999 87.6052L3.49999 89.5966L4.49999 89.5966ZM4.49999 85.6138L4.49999 83.6223L3.49999 83.6223L3.49999 85.6138L4.49999 85.6138ZM4.49999 81.6309L4.49999 79.6395L3.49999 79.6395L3.49999 81.6309L4.49999 81.6309ZM4.49999 77.6481L4.49999 75.6567L3.49999 75.6567L3.49999 77.6481L4.49999 77.6481ZM4.49999 73.6653L4.49999 71.6739L3.49999 71.6739L3.49999 73.6653L4.49999 73.6653ZM4.49999 69.6825L4.49999 67.6911L3.49999 67.6911L3.49999 69.6825L4.49999 69.6825ZM4.49999 65.6997L4.49999 63.7083L3.49999 63.7083L3.49999 65.6997L4.49999 65.6997ZM4.49999 61.7168L4.49998 59.7254L3.49998 59.7254L3.49999 61.7168L4.49999 61.7168ZM4.49998 57.734L4.49998 55.7426L3.49998 55.7426L3.49998 57.734L4.49998 57.734ZM4.49998 53.7512L4.49998 51.7598L3.49998 51.7598L3.49998 53.7512L4.49998 53.7512ZM4.49998 49.7684L4.49998 47.777L3.49998 47.777L3.49998 49.7684L4.49998 49.7684ZM4.49998 45.7856L4.49998 43.7942L3.49998 43.7942L3.49998 45.7856L4.49998 45.7856ZM4.49998 41.8027L4.49998 39.8113L3.49998 39.8113L3.49998 41.8027L4.49998 41.8027ZM4.49998 37.8199L4.49998 35.8285L3.49998 35.8285L3.49998 37.8199L4.49998 37.8199ZM4.49998 33.8371L4.49998 31.8457L3.49998 31.8457L3.49998 33.8371L4.49998 33.8371ZM4.49998 29.8543L4.49998 27.8629L3.49998 27.8629L3.49998 29.8543L4.49998 29.8543ZM4.49998 25.8715L4.49998 23.8801L3.49998 23.8801L3.49998 25.8715L4.49998 25.8715ZM4.49998 21.8887L4.49998 19.8972L3.49998 19.8972L3.49998 21.8887L4.49998 21.8887ZM4.49998 17.9058L4.49998 15.9144L3.49998 15.9144L3.49998 17.9058L4.49998 17.9058ZM4.49998 13.923L4.49998 11.9316L3.49998 11.9316L3.49998 13.923L4.49998 13.923ZM4.49998 9.9402L4.49998 7.94879L3.49998 7.94879L3.49998 9.9402L4.49998 9.9402ZM4.49998 5.95738L4.49998 3.96597L3.49998 3.96597L3.49998 5.95738L4.49998 5.95738ZM4.49998 1.97456L4.49998 0.978546L3.49998 0.978546L3.49998 1.97456L4.49998 1.97456Z" fill="#545E6B"/>
</svg>
