<svg width="21" height="10" viewBox="0 0 21 10" fill="none" xmlns="http://www.w3.org/2000/svg">
<path d="M20.9903 4.82015C20.9903 4.8133 20.9903 4.80644 20.9903 4.79958C20.9847 4.77147 20.9768 4.74394 20.9667 4.7173L20.9602 4.70244C20.9505 4.67903 20.939 4.65648 20.9258 4.63502L20.9172 4.62016C20.9019 4.59652 20.8846 4.57434 20.8656 4.55388C20.8612 4.55028 20.8572 4.54605 20.8538 4.54131C20.8356 4.52417 20.8162 4.50702 20.7958 4.49102L20.7872 4.48417L14.4683 0.0843285C14.4151 0.0472595 14.3556 0.0216833 14.2932 0.00905919C14.2308 -0.00356495 14.1666 -0.00299015 14.1044 0.0107524C14.0421 0.024495 13.9831 0.0511365 13.9305 0.0891536C13.878 0.127171 13.833 0.175819 13.7981 0.232323C13.7277 0.346437 13.7028 0.485619 13.7289 0.619247C13.755 0.752875 13.83 0.870004 13.9373 0.944868L18.9009 4.40074H0.483673C0.355395 4.40074 0.232374 4.45492 0.141668 4.55137C0.050962 4.64781 0 4.77862 0 4.91501C0 5.0514 0.050962 5.18221 0.141668 5.27865C0.232374 5.37509 0.355395 5.42928 0.483673 5.42928H18.9514L13.9588 9.06114C13.9064 9.09926 13.8615 9.14799 13.8268 9.20454C13.792 9.2611 13.7681 9.32437 13.7564 9.39075C13.7447 9.45713 13.7454 9.52531 13.7584 9.59141C13.7715 9.6575 13.7967 9.72022 13.8325 9.77597C13.8684 9.83173 13.9142 9.87943 13.9674 9.91635C14.0206 9.95327 14.0801 9.97869 14.1425 9.99116C14.2049 10.0036 14.2691 10.0029 14.3312 9.98902C14.3934 9.97514 14.4524 9.94837 14.5048 9.91025L20.785 5.33899C20.8069 5.32298 20.8274 5.30501 20.8463 5.28528C20.8507 5.28005 20.8554 5.27509 20.8603 5.27042C20.8792 5.24991 20.8964 5.22774 20.9119 5.20414C20.9115 5.20149 20.9115 5.19879 20.9119 5.19614C20.9256 5.17404 20.9374 5.15072 20.9473 5.12643L20.9559 5.107C20.9656 5.08018 20.9735 5.05269 20.9796 5.02472V5.00643C20.9887 4.97777 20.9956 4.94833 21 4.91844C20.9999 4.91653 20.9999 4.91463 21 4.91272C20.9993 4.88163 20.996 4.85066 20.9903 4.82015Z" fill="#1B87E6"/>
</svg>
