<svg width="14" height="14" viewBox="0 0 14 14" fill="none" xmlns="http://www.w3.org/2000/svg">
<path d="M13.436 0.254741C13.3958 0.248402 13.3549 0.253775 13.3149 0.261277C13.275 0.268743 13.236 0.279868 13.1982 0.294511L9.59378 1.69174C9.37189 1.77775 9.12661 1.78181 8.90199 1.7032L5.07415 0.363451C4.86407 0.289925 4.63547 0.288583 4.42454 0.359639L0.52 1.675C0.3625 1.7275 0.25 1.8625 0.25 2.035V13.375C0.25 13.5642 0.383929 13.7169 0.564033 13.7453C0.604245 13.7516 0.645135 13.7462 0.685147 13.7387C0.724964 13.7313 0.764007 13.7201 0.80178 13.7055L4.40622 12.3083C4.62811 12.2223 4.87339 12.2182 5.09801 12.2968L8.92585 13.6365C9.13593 13.7101 9.36453 13.7114 9.57545 13.6404L13.48 12.325C13.6375 12.2725 13.75 12.1375 13.75 11.965V0.625C13.75 0.435802 13.6161 0.283131 13.436 0.254741ZM9.25 10.8383C9.25 11.5278 8.56868 12.0104 7.91825 11.7817L5.41825 10.9025C5.01789 10.7617 4.75 10.3835 4.75 9.95913V3.1617C4.75 2.47222 5.43132 1.9896 6.08175 2.21833L8.58175 3.0975C8.98211 3.23829 9.25 3.61647 9.25 4.04087V10.8383Z" fill="#545E6B"/>
</svg>
