<svg width="378" height="236" viewBox="0 0 378 236" fill="none" xmlns="http://www.w3.org/2000/svg">
<path fill-rule="evenodd" clip-rule="evenodd" d="M25.1603 156.801L18.9654 168.015L20.9604 172.548H8.70703L18.9654 133.596H41.5087C41.5087 133.596 46.7166 140.343 50.0766 144.694C50.7906 145.621 51.0845 146.804 50.885 147.957C50.6856 149.11 50.0241 150.129 49.0371 150.766V150.767C47.4621 151.787 45.4041 151.637 43.9971 150.402C41.9076 148.569 39.1987 146.193 39.1987 146.193V152.492L45.5406 159.95L43.5246 167.425L47.7246 172.548H35.1247L37.0987 161.94L31.8488 156.801H25.1603Z" fill="#D6E3F5" stroke="#B3C8E6" stroke-width="2.09955"/>
<path fill-rule="evenodd" clip-rule="evenodd" d="M49.7028 108.401C49.7028 104.925 46.8759 102.103 43.4028 102.103H24.5031C21.0219 102.103 18.2031 104.925 18.2031 108.401V127.297C18.2031 130.773 21.0219 133.596 24.5031 133.596H43.4028C46.8759 133.596 49.7028 130.773 49.7028 127.297V108.401Z" fill="#55A0F6" stroke="#0D78F2" stroke-width="2.09955"/>
<path d="M33.1211 111.289H38.2509C43.3808 111.289 43.3808 118.33 38.2509 118.33H33.1211V121.348" stroke="white" stroke-width="3.15123"/>
<path d="M34.5679 126.956C34.5679 127.825 33.8626 128.531 32.9935 128.531C32.1233 128.531 31.418 127.825 31.418 126.956C31.418 126.087 32.1233 125.382 32.9935 125.382C33.8626 125.382 34.5679 126.087 34.5679 126.956Z" fill="white"/>
<rect x="45.1602" y="150.46" width="3.14996" height="16.7964" transform="rotate(-30 45.1602 150.46)" fill="#D1D8E0" stroke="#7585A3" stroke-width="2.09996"/>
<path fill-rule="evenodd" clip-rule="evenodd" d="M45.1569 150.46L43.0574 146.823L33.5428 145.044L29.3438 137.771L32.0717 136.196L35.221 141.65L40.9578 143.187L43.6858 141.612L45.2235 135.875L42.0742 130.421L44.8021 128.846L49.0012 136.119L45.7853 145.248L47.8849 148.885L45.1569 150.46Z" fill="#B4BFCD" stroke="#7585A3" stroke-width="2.09955"/>
<rect x="32.0742" y="136.195" width="11.5499" height="3.10313" transform="rotate(-30 32.0742 136.195)" fill="#D1D8E0" stroke="#7585A3" stroke-width="2.09955"/>
<path fill-rule="evenodd" clip-rule="evenodd" d="M44.819 165.114L50.1291 162.048L49.9349 155.58L55.4393 158.982L60.7495 155.917C60.7495 155.917 70.1696 166.929 59.9077 172.854C49.6458 178.778 44.819 165.114 44.819 165.114Z" fill="#B4BFCD" stroke="#7585A3" stroke-width="2.10108"/>
<path fill-rule="evenodd" clip-rule="evenodd" d="M26.5667 138.166L28.1627 140.937C28.1627 140.937 30.0736 140.26 31.9951 139.575C34.2421 138.776 36.7306 139.819 37.7385 141.982V141.983C38.274 143.128 38.316 144.438 37.8645 145.615C37.413 146.79 36.4996 147.731 35.3341 148.219C31.8691 149.671 27.6482 151.442 27.6482 151.442C27.6482 151.442 21.7787 145.574 18.1983 141.994C14.6178 138.414 16.0248 134.823 18.9648 133.596H24.0782" fill="#D6E3F5"/>
<path d="M26.5667 138.166L28.1627 140.937C28.1627 140.937 30.0736 140.26 31.9951 139.575C34.2421 138.776 36.7306 139.819 37.7385 141.982V141.983C38.274 143.128 38.316 144.438 37.8645 145.615C37.413 146.79 36.4996 147.731 35.3341 148.219C31.8691 149.671 27.6482 151.442 27.6482 151.442C27.6482 151.442 21.7787 145.574 18.1983 141.994C14.6178 138.414 16.0248 134.823 18.9648 133.596H24.0782" stroke="#B3C8E6" stroke-width="2.09955"/>
<path d="M18.2031 127.297C18.2031 130.773 21.0219 133.596 24.5031 133.596" stroke="#0D78F2" stroke-width="2.09955"/>
<path fill-rule="evenodd" clip-rule="evenodd" d="M50.4678 174.347H90.9482C90.9482 167.325 86.3498 167.12 86.3498 167.12C86.3498 167.12 87.8386 161.229 83.4098 159.543C78.9715 157.856 81.9869 144.746 73.7606 142.945C65.5343 141.143 66.9666 145.501 62.2551 147.904C56.4401 150.874 59.7052 159.641 54.45 163.456C49.1938 167.273 50.4678 172.105 50.4678 174.347Z" fill="#E9EDF1" stroke="#7585A3" stroke-width="2.10091"/>
<path d="M0 174.347H378" stroke="#7585A3" stroke-width="2.1006"/>
<path fill-rule="evenodd" clip-rule="evenodd" d="M240.598 174.347H369.282C369.282 174.347 365.402 159.671 352.127 155.966C346.25 154.33 344.804 149.187 336.588 132.146C328.372 115.106 316.789 122.204 311.368 132.146C305.948 142.087 300.889 150.841 292.083 155.966C283.144 161.18 281.204 151.197 270.534 149.069C263.915 147.749 249.613 148.497 240.598 174.347Z" fill="#E9EDF1" stroke="#7585A3" stroke-width="2.10696"/>
<ellipse cx="189.001" cy="212.646" rx="86.2544" ry="21.3533" fill="#55A0F6"/>
<mask id="mask0_3899_178898" style="mask-type:luminance" maskUnits="userSpaceOnUse" x="102" y="191" width="174" height="43">
<ellipse cx="189.001" cy="212.646" rx="86.2544" ry="21.3533" fill="white"/>
</mask>
<g mask="url(#mask0_3899_178898)">
<ellipse cx="189.001" cy="224.785" rx="86.2544" ry="21.3533" fill="#284B8A"/>
</g>
<ellipse cx="189.001" cy="212.646" rx="86.2544" ry="21.3533" stroke="#284B8A" stroke-width="2.10498"/>
<path fill-rule="evenodd" clip-rule="evenodd" d="M184.771 233.973C164.034 233.712 149.46 231.626 149.46 231.626V155.639C149.46 154.621 148.872 153.697 147.959 153.264C147.035 152.83 145.953 152.968 145.166 153.616C141.354 156.769 135.663 161.476 130.875 165.431C128.607 167.309 125.657 168.147 122.738 167.739C119.819 167.332 117.204 165.716 115.535 163.288C106.127 149.607 89.2852 125.104 84.0983 117.556C83.1113 116.131 81.4943 115.28 79.7723 115.28C75.6564 115.28 67.6345 115.28 60.3266 115.28C58.0901 115.28 56.0951 113.855 55.3601 111.735C54.6356 109.614 55.3391 107.265 57.1031 105.889C63.907 100.6 72.2544 94.103 78.5124 89.2414C80.8433 87.4222 83.8463 86.6758 86.7653 87.186C89.6842 87.6951 92.2462 89.4147 93.8317 91.9194C101.15 103.495 113.046 122.332 118.769 131.377C119.588 132.672 120.932 133.544 122.444 133.767C123.956 133.989 125.499 133.54 126.654 132.535C130.56 129.135 136.314 124.136 141.291 119.818C147.434 114.48 156.106 113.172 163.551 116.463L173.253 120.748V113.478C148.998 107.054 131.106 84.9437 131.106 58.6878C131.106 27.4003 156.516 2 187.806 2C219.095 2 244.505 27.4003 244.505 58.6878C244.505 84.0734 227.779 105.584 204.752 112.793V120.748L214.444 116.463C221.888 113.172 230.572 114.48 236.714 119.818C241.68 124.136 247.434 129.135 251.351 132.535C252.506 133.54 254.039 133.989 255.561 133.767C257.073 133.544 258.417 132.672 259.236 131.377L284.173 91.9194C285.748 89.4147 288.321 87.6951 291.24 87.186C294.159 86.6758 297.151 87.4222 299.493 89.2414C305.74 94.103 314.098 100.6 320.892 105.889C322.666 107.265 323.37 109.614 322.635 111.735C321.91 113.855 319.915 115.28 317.668 115.28C310.371 115.28 302.338 115.28 298.233 115.28C296.5 115.28 294.883 116.131 293.907 117.556C288.72 125.104 271.878 149.607 262.47 163.288C260.801 165.716 258.186 167.332 255.267 167.739C252.348 168.147 249.398 167.309 247.119 165.431C242.342 161.476 236.651 156.769 232.84 153.616C232.052 152.968 230.96 152.83 230.047 153.264C229.123 153.697 228.535 154.621 228.535 155.639V231.626C228.535 231.626 211.966 234 189.003 234L184.771 233.973Z" fill="#D6E3F5" stroke="#284B8A" stroke-width="2.09955"/>
<path d="M168.318 46.2646V59.4778" stroke="#284B8A" stroke-width="4.19517"/>
<path d="M209.689 46.2646V59.4778" stroke="#284B8A" stroke-width="4.19517"/>
<path d="M178.891 71.1102C178.891 71.1102 182.327 66.875 188.98 66.875C195.633 66.875 199.094 71.1102 199.094 71.1102" stroke="#284B8A" stroke-width="3.14393"/>
</svg>
