<svg width="16" height="16" viewBox="0 0 16 16" fill="#545E6B" xmlns="http://www.w3.org/2000/svg">
<path d="M6 14C6 14.5523 5.55228 15 5 15H3C1.89543 15 1 14.1046 1 13V3C1 1.89543 1.89543 1 3 1H13C14.1046 1 15 1.89543 15 3V5C15 5.55228 14.5523 6 14 6C13.4477 6 13 5.55228 13 5V3H3V13H5C5.55228 13 6 13.4477 6 14Z" />
<path d="M12 5H4V7H12V5Z" />
<path d="M13.6045 8.86702L14.114 8.35752C14.6768 7.79474 15.2604 7.97539 15.6425 8.35752C16.0246 8.73964 16.2053 9.32324 15.6425 9.88601L15.133 10.3955L13.6045 8.86702Z" />
<path d="M8 16L8.5095 13.962L13.095 9.37652L14.6235 10.905L10.038 15.4905L8 16Z" />
<path d="M4 9H9V11H4V9Z" />
</svg>
