<svg width="89" height="52" viewBox="0 0 89 52" fill="none" xmlns="http://www.w3.org/2000/svg">
<g clip-path="url(#clip0_1665_85189)">
<path d="M81.4018 35.2245H66C66 33.0518 65.6692 30.9327 65.0271 28.9128C64.3276 26.7126 63.2632 24.6465 61.8816 22.7925C60.2234 20.5672 58.1348 18.6836 55.7467 17.2619C52.512 15.3362 48.8168 14.3061 44.9509 14.3061C41.085 14.3061 37.3898 15.3362 34.1551 17.2619C31.767 18.6836 29.6784 20.5672 28.0202 22.7925C26.6386 24.6465 25.5742 26.7126 24.8747 28.9128C24.2326 30.9327 23.9018 33.0518 23.9018 35.2245H8.5C8.5 31.4828 9.07348 27.8088 10.1885 24.3016C11.404 20.4782 13.2508 16.8934 15.6428 13.6834C18.5065 9.84045 22.111 6.58969 26.2403 4.13145C31.8501 0.791806 38.2777 -1 44.9509 -1C51.6241 -1 58.0517 0.791806 63.6615 4.13145C67.7908 6.58969 71.3953 9.84045 74.259 13.6834C76.651 16.8934 78.4978 20.4782 79.7133 24.3016C80.8283 27.8088 81.4018 31.4828 81.4018 35.2245Z" fill="#FF7681" stroke="white" stroke-width="3.08036"/>
<path d="M74.259 13.6834L61.8816 22.7925C60.2234 20.5672 58.1348 18.6836 55.7467 17.2619C52.512 15.3362 48.8168 14.3061 44.9509 14.3061C41.085 14.3061 37.3898 15.3362 34.1551 17.2619C31.767 18.6836 29.6784 20.5672 28.0202 22.7925C26.6386 24.6465 25.5742 26.7126 24.8747 28.9128C24.2326 30.9327 23.9018 33.0518 23.9018 35.2245H8.5C8.5 31.4828 9.07348 27.8088 10.1885 24.3016C11.404 20.4782 13.2508 16.8934 15.6428 13.6834C18.5065 9.84045 22.111 6.58969 26.2403 4.13145C31.8501 0.791806 38.2777 -1 44.9509 -1C51.6241 -1 58.0517 0.791806 63.6615 4.13145C67.7908 6.58969 71.3953 9.84045 74.259 13.6834Z" fill="#FFCB47" stroke="white" stroke-width="3.08036"/>
<path d="M44.9509 -1V14.3061C41.085 14.3061 37.3898 15.3362 34.1551 17.2619C31.767 18.6836 29.6784 20.5672 28.0202 22.7925C26.6386 24.6465 25.5742 26.7126 24.8747 28.9128C24.2326 30.9327 23.9018 33.0518 23.9018 35.2245H8.5C8.5 31.4828 9.07348 27.8088 10.1885 24.3016C11.404 20.4782 13.2508 16.8934 15.6428 13.6834C18.5065 9.84045 22.111 6.58969 26.2403 4.13145C31.8501 0.791806 38.2777 -1 44.9509 -1Z" fill="#1BA758" stroke="white" stroke-width="3.08" stroke-linecap="round" stroke-linejoin="round"/>
<path d="M17.6029 48.2462C19.3787 48.2462 20.5625 47.3583 21.1544 45.5826H14.0515C14.6434 47.3583 15.8272 48.2462 17.6029 48.2462Z" fill="#1BA758"/>
<path d="M21.1544 42.919C21.1544 43.4094 20.7569 43.8069 20.2665 43.8069C19.7762 43.8069 19.3787 43.4094 19.3787 42.919C19.3787 42.4286 19.7762 42.0311 20.2665 42.0311C20.7569 42.0311 21.1544 42.4286 21.1544 42.919Z" fill="#1BA758"/>
<path d="M14.9393 43.8069C15.4297 43.8069 15.8272 43.4094 15.8272 42.919C15.8272 42.4286 15.4297 42.0311 14.9393 42.0311C14.449 42.0311 14.0515 42.4286 14.0515 42.919C14.0515 43.4094 14.449 43.8069 14.9393 43.8069Z" fill="#1BA758"/>
<path fill-rule="evenodd" clip-rule="evenodd" d="M17.6029 37.5918C21.5258 37.5918 24.7059 40.7719 24.7059 44.6947C24.7059 48.6176 21.5258 51.7977 17.6029 51.7977C13.6801 51.7977 10.5 48.6176 10.5 44.6947C10.5 40.7719 13.6801 37.5918 17.6029 37.5918ZM17.6029 39.3675C14.6608 39.3675 12.2757 41.7526 12.2757 44.6947C12.2757 47.6369 14.6608 50.0219 17.6029 50.0219C20.5451 50.0219 22.9301 47.6369 22.9301 44.6947C22.9301 41.7526 20.5451 39.3675 17.6029 39.3675Z" fill="#1BA758"/>
<path fill-rule="evenodd" clip-rule="evenodd" d="M44.9994 37.5918C48.9223 37.5918 52.1024 40.7719 52.1024 44.6947C52.1024 48.6176 48.9223 51.7977 44.9994 51.7977C41.0766 51.7977 37.8965 48.6176 37.8965 44.6947C37.8965 40.7719 41.0766 37.5918 44.9994 37.5918ZM44.9994 39.3675C42.0573 39.3675 39.6722 41.7526 39.6722 44.6947C39.6722 47.6369 42.0573 50.0219 44.9994 50.0219C47.9416 50.0219 50.3266 47.6369 50.3266 44.6947C50.3266 41.7526 47.9416 39.3675 44.9994 39.3675ZM48.5509 46.4705C48.5509 45.9801 48.1534 45.5826 47.663 45.5826H42.3358C41.8455 45.5826 41.448 45.9801 41.448 46.4705C41.448 46.9608 41.8455 47.3583 42.3358 47.3583H47.663C48.1534 47.3583 48.5509 46.9608 48.5509 46.4705ZM42.3358 42.0311C42.8262 42.0311 43.2237 42.4286 43.2237 42.919C43.2237 43.4094 42.8262 43.8069 42.3358 43.8069C41.8455 43.8069 41.448 43.4094 41.448 42.919C41.448 42.4286 41.8455 42.0311 42.3358 42.0311ZM48.5509 42.919C48.5509 42.4286 48.1534 42.0311 47.663 42.0311C47.1727 42.0311 46.7752 42.4286 46.7752 42.919C46.7752 43.4094 47.1727 43.8069 47.663 43.8069C48.1534 43.8069 48.5509 43.4094 48.5509 42.919Z" fill="#FFCB47"/>
<path d="M75.8755 47.1495C75.2618 45.513 74.1026 44.6947 72.3979 44.6947C70.6221 44.6947 69.4383 45.5826 68.8464 47.3583H75.9493L75.8755 47.1495Z" fill="#FF7681"/>
<path d="M70.6221 42.919C70.6221 43.4094 70.2246 43.8069 69.7343 43.8069C69.2439 43.8069 68.8464 43.4094 68.8464 42.919C68.8464 42.4286 69.2439 42.0311 69.7343 42.0311C70.2246 42.0311 70.6221 42.4286 70.6221 42.919Z" fill="#FF7681"/>
<path d="M75.0615 43.8069C75.5518 43.8069 75.9493 43.4094 75.9493 42.919C75.9493 42.4286 75.5518 42.0311 75.0615 42.0311C74.5711 42.0311 74.1736 42.4286 74.1736 42.919C74.1736 43.4094 74.5711 43.8069 75.0615 43.8069Z" fill="#FF7681"/>
<path fill-rule="evenodd" clip-rule="evenodd" d="M72.3979 37.5918C76.3207 37.5918 79.5008 40.7719 79.5008 44.6947C79.5008 48.6176 76.3207 51.7977 72.3979 51.7977C68.475 51.7977 65.2949 48.6176 65.2949 44.6947C65.2949 40.7719 68.475 37.5918 72.3979 37.5918ZM72.3979 39.3675C69.4557 39.3675 67.0707 41.7526 67.0707 44.6947C67.0707 47.6369 69.4557 50.0219 72.3979 50.0219C75.34 50.0219 77.7251 47.6369 77.7251 44.6947C77.7251 41.7526 75.34 39.3675 72.3979 39.3675Z" fill="#FF7681"/>
</g>
<defs>
<clipPath id="clip0_1665_85189">
<rect width="89" height="52" fill="white"/>
</clipPath>
</defs>
</svg>
