<svg width="128" height="106" viewBox="0 0 128 106" fill="none" xmlns="http://www.w3.org/2000/svg">
<path d="M79.1334 1.62525L63.795 16.7919L48.8721 1.62525C47.2374 -0.00944827 44.766 -0.458297 42.6603 0.494814L3.25025 18.3934C-0.185384 19.956 -1.08862 24.4168 1.46594 27.193L13.9229 40.8857V76.1563C13.9229 80.329 16.2669 84.1525 19.9906 86.0421L58.2536 105.448V55.1103L25.0056 39.589L61.5286 22.8763C62.9416 22.1559 64.6373 22.1559 66.0503 22.8763L102.584 39.5835L69.3363 55.1048V105.453L107.599 86.031C111.323 84.1414 113.667 80.3234 113.667 76.1508V40.8857L126.534 27.193C129.089 24.4168 128.185 19.956 124.75 18.3934L85.3397 0.494814C83.2395 -0.458297 80.7681 -0.00944827 79.1334 1.62525Z" fill="url(#paint0_linear_909_11328)"/>
<defs>
<linearGradient id="paint0_linear_909_11328" x1="64" y1="105.453" x2="64" y2="0" gradientUnits="userSpaceOnUse">
<stop stop-color="#1786E9"/>
<stop offset="0.235" stop-color="#1B87E6"/>
<stop offset="1" stop-color="#48A9FE"/>
</linearGradient>
</defs>
</svg>
