<svg width="24" height="24" viewBox="0 0 32 32" fill="none" xmlns="http://www.w3.org/2000/svg">
<rect x="1" y="1" width="30" height="30" rx="3" stroke="#1B3380" stroke-width="2" stroke-dasharray="8 4"/>
<path fill-rule="evenodd" clip-rule="evenodd" d="M5 4C4.44772 4 4 4.44772 4 5V27C4 27.5523 4.44772 28 5 28H27C27.5523 28 28 27.5523 28 27V5C28 4.44772 27.5523 4 27 4H5ZM11 12C11 10.3431 12.3431 9 14 9C15.0035 9 15.8919 9.49267 16.4365 10.2493C14.492 10.8889 13.0742 12.6891 13.0028 14.8303C11.8362 14.4193 11 13.3073 11 12ZM13.52 17.2227C13.3299 16.8403 13.1873 16.4302 13.1 16H11C9.34315 16 8 17.3431 8 19H10.9996C11.6245 18.1681 12.5028 17.5374 13.52 17.2227ZM15 15C15 13.3431 16.3431 12 18 12C19.6569 12 21 13.3431 21 15C21 16.6569 19.6569 18 18 18C16.3431 18 15 16.6569 15 15ZM15 19C13.3431 19 12 20.3431 12 22H24C24 20.3431 22.6569 19 21 19H15Z" fill="#1B3380"/>
</svg>
