<svg width="125" height="24" viewBox="0 0 125 24" fill="none" xmlns="http://www.w3.org/2000/svg">
<g clip-path="url(#clip0_921_336)">
<path d="M21.0272 0H2.83563C1.26955 0 0 1.26955 0 2.83563V21.0237C0 22.5898 1.26955 23.8594 2.83563 23.8594H21.0272C22.5933 23.8594 23.8629 22.5898 23.8629 21.0237V2.83563C23.8629 1.26955 22.5933 0 21.0272 0Z" fill="#1B3380"/>
<path d="M10.4072 18.9548C10.4072 19.2302 10.3255 19.4994 10.1726 19.7284C10.0196 19.9573 9.80212 20.1358 9.5477 20.2412C9.29329 20.3465 9.01334 20.3741 8.74325 20.3204C8.47317 20.2667 8.22508 20.1341 8.03036 19.9393C7.83564 19.7446 7.70304 19.4965 7.64931 19.2265C7.59559 18.9564 7.62316 18.6764 7.72854 18.422C7.83393 18.1676 8.01238 17.9501 8.24135 17.7971C8.47032 17.6442 8.73951 17.5625 9.01488 17.5625C9.38401 17.563 9.73788 17.7098 9.99889 17.9708C10.2599 18.2318 10.4067 18.5857 10.4072 18.9548Z" fill="white"/>
<path d="M14.3171 4.1084H7.68945V6.75944H14.3171C14.5782 6.75944 14.8367 6.81087 15.0779 6.91079C15.3192 7.01071 15.5384 7.15716 15.723 7.34179C15.9076 7.52642 16.0541 7.74561 16.154 7.98684C16.2539 8.22807 16.3053 8.48661 16.3053 8.74772C16.3053 9.00882 16.2539 9.26737 16.154 9.5086C16.0541 9.74983 15.9076 9.96902 15.723 10.1536C15.5384 10.3383 15.3192 10.4847 15.0779 10.5846C14.8367 10.6846 14.5782 10.736 14.3171 10.736H7.68945V13.387V16.0381H10.3405V13.387H14.3171C15.5475 13.387 16.7275 12.8983 17.5975 12.0282C18.4676 11.1582 18.9564 9.97814 18.9564 8.74772C18.9564 7.51729 18.4676 6.33727 17.5975 5.46722C16.7275 4.59718 15.5475 4.1084 14.3171 4.1084Z" fill="white"/>
<path d="M35.2178 16.2174V17.0525C35.2178 18.0141 35.4235 18.1741 36.4097 18.1741H37.533C37.7616 18.1741 37.9444 18.2672 37.9444 18.4958V19.1603C37.9444 19.482 37.3731 19.6191 36.3868 19.6191C34.5058 19.6191 33.4985 19.1146 33.4985 17.0982V16.2192C30.9547 15.8992 29.165 14.0885 29.165 10.242V7.73516C29.165 3.47205 31.366 1.70703 34.3704 1.70703C37.3748 1.70703 39.5547 3.47556 39.5547 7.73516V10.2122C39.5776 14.0797 37.7967 15.9203 35.2231 16.2174M37.8354 7.76153C37.8354 4.5286 36.5292 3.29097 34.4214 3.29097C32.3136 3.29097 30.9828 4.52156 30.9828 7.76153V10.2368C30.9828 13.4679 32.3118 14.7056 34.4214 14.7056C36.531 14.7056 37.8354 13.475 37.8354 10.2368V7.76153Z" fill="#1B3380"/>
<path d="M49.0479 16.1256H48.0863C48.036 16.1257 47.9863 16.1155 47.9402 16.0957C47.894 16.0758 47.8525 16.0467 47.818 16.0101C47.7836 15.9735 47.757 15.9303 47.74 15.883C47.7229 15.8358 47.7157 15.7855 47.7188 15.7354V15.3697C46.664 15.9657 45.7938 16.2628 44.6705 16.2628C42.3552 16.2628 41.3303 14.8195 41.3303 12.2757V5.94691C41.3334 5.84438 41.3755 5.7469 41.4481 5.67437C41.5206 5.60184 41.6181 5.55973 41.7206 5.55664H42.6365C42.7392 5.55931 42.8369 5.60128 42.9095 5.6739C42.9821 5.74652 43.0241 5.84425 43.0268 5.94691V12.2757C43.0268 14.2235 43.6913 14.8195 45.1364 14.8195C45.938 14.8195 46.8311 14.4977 47.7259 14.0635V5.95043C47.7328 5.84922 47.7762 5.75396 47.8479 5.68222C47.9197 5.61049 48.0149 5.56713 48.1161 5.56016H49.0479C49.1439 5.57128 49.2326 5.61705 49.2974 5.6889C49.3621 5.76074 49.3984 5.85373 49.3995 5.95043V15.7582C49.4009 15.8534 49.3648 15.9453 49.299 16.014C49.2332 16.0828 49.143 16.1229 49.0479 16.1256Z" fill="#1B3380"/>
<path d="M59.1034 11.3834H52.6604V11.6576C52.6604 13.943 53.5552 14.7974 55.3431 14.7974C56.4846 14.7936 57.6251 14.7249 58.7588 14.5917H58.8503C58.8896 14.5873 58.9295 14.5911 58.9673 14.6027C59.0052 14.6143 59.0403 14.6336 59.0704 14.6593C59.1006 14.685 59.1251 14.7166 59.1426 14.7521C59.16 14.7877 59.17 14.8264 59.172 14.866V15.5305C59.172 15.7836 59.0805 15.9207 58.7817 15.9665C57.6501 16.1947 56.4974 16.3019 55.3431 16.2864C53.1421 16.2864 50.9885 15.2562 50.9885 11.6805V9.93833C50.9815 7.18884 52.5004 5.4502 55.2517 5.4502C58.0644 5.4502 59.4919 7.20818 59.4919 9.94184V10.9703C59.4691 11.2217 59.3319 11.3834 59.1034 11.3834ZM57.7498 9.91548C57.7498 7.73909 56.9253 6.88998 55.2288 6.88998C53.5781 6.88998 52.6393 7.83051 52.6393 9.91548V10.0913H57.7498V9.91548Z" fill="#1B3380"/>
<path d="M64.0768 16.2635C63.3736 16.2635 61.9672 16.2178 61.0285 15.9664C60.7771 15.9207 60.6153 15.7906 60.6153 15.5761V14.9432C60.6177 14.9002 60.6288 14.8581 60.648 14.8195C60.6672 14.7809 60.6941 14.7467 60.7271 14.7189C60.76 14.691 60.7982 14.6702 60.8395 14.6577C60.8807 14.6452 60.9241 14.6413 60.9669 14.6461H61.0583C61.976 14.7604 63.3736 14.8747 64.0838 14.8747C65.3443 14.8747 65.9877 14.5547 65.9877 13.4999C65.9877 12.9268 65.6361 12.5594 64.5427 11.8949L62.5843 10.7241C61.4152 10.0209 60.6118 9.18935 60.6118 7.97458C60.6118 5.95817 62.1026 5.43078 64.0961 5.43078C65.1024 5.42715 66.1071 5.51127 67.0988 5.68217C67.3519 5.72788 67.4662 5.85797 67.4662 6.07244V6.6807C67.4716 6.72341 67.4674 6.76678 67.4539 6.80764C67.4403 6.8485 67.4178 6.88581 67.388 6.91684C67.3581 6.94786 67.3217 6.9718 67.2814 6.98692C67.2411 7.00203 67.1979 7.00793 67.155 7.00417H67.1076C66.4448 6.95846 65.2054 6.8442 64.1278 6.8442C63.0501 6.8442 62.3399 6.98132 62.3399 7.96755C62.3399 8.54065 62.7759 8.90807 63.669 9.43371L65.5728 10.5571C67.1779 11.4976 67.6824 12.315 67.6824 13.4683C67.6824 15.439 66.2374 16.2635 64.0821 16.2635" fill="#1B3380"/>
<path d="M74.644 16.1732C74.2257 16.2256 73.8049 16.2561 73.3835 16.2646C71.6255 16.2646 70.7711 15.8075 70.7711 13.6751V6.9578L68.8918 6.72926C68.6615 6.70641 68.5244 6.59214 68.5244 6.37767V5.85027C68.5244 5.80274 68.534 5.75569 68.5526 5.71196C68.5713 5.66824 68.5986 5.62875 68.6329 5.59589C68.6673 5.56302 68.7079 5.53746 68.7524 5.52076C68.7969 5.50405 68.8443 5.49653 68.8918 5.49867H70.7711V3.63521C70.7754 3.53948 70.8128 3.44819 70.8769 3.377C70.941 3.3058 71.0279 3.25912 71.1227 3.24494L72.1072 3.08496H72.1529C72.1935 3.08632 72.2335 3.09568 72.2705 3.1125C72.3075 3.12932 72.3409 3.15328 72.3686 3.18299C72.3964 3.21271 72.418 3.2476 72.4323 3.28568C72.4465 3.32376 72.4532 3.36428 72.4518 3.40491V5.5145H74.5139C74.6152 5.51726 74.7114 5.5597 74.7818 5.63269C74.8521 5.70569 74.891 5.80339 74.8901 5.90477V6.56929C74.8865 6.67151 74.8442 6.76855 74.7718 6.84071C74.6993 6.91287 74.602 6.95473 74.4998 6.9578H72.4447V13.6733C72.4447 14.7281 72.719 14.8881 73.4749 14.8881H74.5525C74.8285 14.8881 74.9657 14.9795 74.9657 15.1623V15.8216C74.9885 15.9974 74.8971 16.1187 74.644 16.1644" fill="#1B3380"/>
<path d="M77.5781 3.86802H76.5937C76.5424 3.86872 76.4914 3.85917 76.4439 3.83991C76.3963 3.82066 76.3531 3.7921 76.3167 3.7559C76.2804 3.71971 76.2516 3.67661 76.2322 3.62915C76.2127 3.58168 76.2029 3.5308 76.2034 3.4795V1.93423C76.2029 1.88285 76.2127 1.83189 76.2321 1.78433C76.2516 1.73677 76.2803 1.69356 76.3166 1.65722C76.353 1.62089 76.3962 1.59216 76.4438 1.57271C76.4913 1.55327 76.5423 1.54349 76.5937 1.54396H77.5781C77.6295 1.54349 77.6805 1.55327 77.728 1.57271C77.7756 1.59216 77.8188 1.62089 77.8551 1.65722C77.8915 1.69356 77.9202 1.73677 77.9396 1.78433C77.9591 1.83189 77.9689 1.88285 77.9684 1.93423V3.47071C77.9701 3.52274 77.9612 3.57457 77.9422 3.62307C77.9233 3.67156 77.8947 3.71571 77.8583 3.75285C77.8218 3.78999 77.7781 3.81934 77.73 3.83914C77.6818 3.85893 77.6302 3.86876 77.5781 3.86802ZM77.5271 16.1264H76.6112C76.5599 16.1269 76.5089 16.1171 76.4613 16.0977C76.4138 16.0782 76.3706 16.0495 76.3342 16.0132C76.2979 15.9768 76.2692 15.9336 76.2497 15.8861C76.2303 15.8385 76.2205 15.7875 76.221 15.7362V5.92837C76.2236 5.82571 76.2656 5.72798 76.3382 5.65536C76.4108 5.58274 76.5086 5.54077 76.6112 5.5381H77.5271C77.5785 5.53763 77.6295 5.54741 77.677 5.56685C77.7246 5.5863 77.7678 5.61503 77.8042 5.65136C77.8405 5.6877 77.8692 5.73091 77.8887 5.77847C77.9081 5.82603 77.9179 5.87699 77.9174 5.92837V15.7362C77.9199 15.7881 77.9116 15.84 77.8928 15.8884C77.8741 15.9369 77.8454 15.981 77.8087 16.0177C77.7719 16.0545 77.7279 16.0831 77.6794 16.1019C77.6309 16.1206 77.5791 16.129 77.5271 16.1264Z" fill="#1B3380"/>
<path d="M83.8136 16.2636C81.0009 16.2636 79.5505 14.3843 79.5505 11.5662V10.1212C79.5505 7.30839 80.9938 5.42383 83.8136 5.42383C86.6335 5.42383 88.0996 7.30311 88.0996 10.1212V11.5891C88.0996 14.4019 86.6335 16.2636 83.8136 16.2636ZM86.4032 10.1212C86.4032 8.15046 85.6015 6.91284 83.8136 6.91284C82.0258 6.91284 81.2189 8.15046 81.2189 10.1212V11.5891C81.2189 13.5598 81.9748 14.7974 83.8084 14.7974C85.5962 14.7974 86.3979 13.5668 86.3979 11.5891L86.4032 10.1212Z" fill="#1B3380"/>
<path d="M97.3606 16.1259H96.4447C96.3933 16.1263 96.3423 16.1165 96.2948 16.0971C96.2472 16.0777 96.204 16.0489 96.1677 16.0126C96.1313 15.9763 96.1026 15.933 96.0831 15.8855C96.0637 15.8379 96.0539 15.787 96.0544 15.7356V9.40684C96.0544 7.45899 95.3899 6.86303 93.9448 6.86303C93.1414 6.86303 92.2484 7.18474 91.3535 7.62072V15.7356C91.3466 15.8368 91.3032 15.9321 91.2315 16.0038C91.1597 16.0755 91.0645 16.1189 90.9633 16.1259H90.0263C89.927 16.1188 89.8341 16.0748 89.7657 16.0026C89.6974 15.9303 89.6586 15.835 89.6571 15.7356V5.92779C89.6547 5.82749 89.6919 5.73029 89.7607 5.65725C89.8295 5.5842 89.9243 5.54118 90.0245 5.53751H90.9861C91.0364 5.53742 91.0861 5.54762 91.1322 5.5675C91.1783 5.58738 91.2199 5.6165 91.2544 5.65308C91.2888 5.68965 91.3154 5.7329 91.3324 5.78015C91.3495 5.8274 91.3567 5.87765 91.3535 5.92779V6.29345C92.4083 5.69749 93.2873 5.40039 94.4019 5.40039C96.7172 5.40039 97.7421 6.8437 97.7421 9.3875V15.7162C97.7435 15.8223 97.7036 15.9248 97.6307 16.002C97.5579 16.0791 97.4578 16.1248 97.3518 16.1294" fill="#1B3380"/>
<path d="M103.391 10.4428C102.772 10.4428 101.968 10.3971 101.457 10.3514V15.759C101.46 15.8555 101.427 15.9498 101.363 16.0223C101.299 16.0949 101.21 16.1403 101.114 16.1493H100.082C99.9844 16.1421 99.8933 16.0974 99.8278 16.0247C99.7623 15.952 99.7274 15.8568 99.7304 15.759V2.3526C99.7299 2.22592 99.7796 2.10419 99.8685 2.01396C99.9574 1.92372 100.078 1.87231 100.205 1.87091C101.264 1.76429 102.328 1.7109 103.392 1.71094C106.509 1.71094 108.779 2.78858 108.779 5.88263V6.13403C108.779 9.34235 106.509 10.4428 103.392 10.4428M107.037 5.88263C107.037 3.93303 105.868 3.19995 103.415 3.19995C102.819 3.19995 101.947 3.24566 101.481 3.29137V8.93098C101.917 8.95207 102.904 9.02239 103.415 9.02239C106.052 9.02239 107.037 8.17329 107.037 6.17973V5.88263Z" fill="#1B87E6"/>
<path d="M114.554 6.88999C113.659 6.88999 112.857 7.12028 111.917 7.69163V15.7362C111.91 15.8372 111.867 15.9325 111.796 16.0042C111.724 16.076 111.629 16.1194 111.528 16.1264H110.588C110.49 16.1174 110.399 16.0725 110.332 16.0005C110.265 15.9285 110.227 15.8344 110.226 15.7362V5.92837C110.223 5.82807 110.261 5.73088 110.329 5.65783C110.398 5.58478 110.493 5.54177 110.593 5.5381H111.486C111.586 5.54177 111.681 5.58478 111.75 5.65783C111.819 5.73088 111.856 5.82807 111.854 5.92837V6.33974C112.817 5.67522 113.687 5.42383 114.559 5.42383C114.833 5.42383 114.97 5.5381 114.97 5.76663V6.57003C114.948 6.77572 114.811 6.88999 114.559 6.88999" fill="#1B87E6"/>
<path d="M119.78 16.2636C116.959 16.2636 115.515 14.3843 115.515 11.5662V10.1212C115.515 7.30839 116.959 5.42383 119.78 5.42383C122.602 5.42383 124.066 7.30311 124.066 10.1212V11.5891C124.066 14.4019 122.598 16.2636 119.78 16.2636ZM122.37 10.1212C122.37 8.15046 121.568 6.91284 119.78 6.91284C117.992 6.91284 117.189 8.14343 117.189 10.1212V11.5891C117.189 13.5598 117.945 14.7974 119.78 14.7974C121.568 14.7974 122.37 13.5668 122.37 11.5891V10.1212Z" fill="#1B87E6"/>
<path d="M97.809 18.248L96.5784 23.9088H95.9578L94.7273 18.8106L93.4967 23.9175H92.8937L91.6455 18.2568H92.1184L93.1925 23.4552L94.4319 18.2568H94.9857L96.2497 23.4552L97.3326 18.2568L97.809 18.248Z" fill="#707070"/>
<path d="M101.687 20.0863C102.011 20.4801 102.172 21.0298 102.171 21.7353C102.169 22.4409 102.006 22.9929 101.68 23.3913C101.512 23.5819 101.306 23.7346 101.075 23.8395C100.844 23.9444 100.593 23.9991 100.339 24C100.085 24.0008 99.8339 23.9477 99.6021 23.8444C99.3702 23.741 99.1629 23.5896 98.9939 23.4001C98.6716 23.0005 98.5104 22.4508 98.5104 21.7511C98.5019 21.341 98.5779 20.9335 98.7337 20.554C98.8599 20.2327 99.0828 19.9587 99.3716 19.7697C99.6605 19.5807 100.001 19.4862 100.346 19.4992C100.6 19.4863 100.853 19.5327 101.086 19.6346C101.318 19.7365 101.524 19.8911 101.687 20.0863ZM99.3701 20.3711C99.138 20.6858 99.0185 21.1464 99.0185 21.7511C99.0185 22.3559 99.1327 22.8059 99.3701 23.1224C99.4796 23.2757 99.6258 23.3991 99.7953 23.4814C99.9648 23.5637 100.152 23.6022 100.34 23.5935C100.53 23.6018 100.718 23.5631 100.889 23.4809C101.06 23.3987 101.208 23.2756 101.32 23.1224C101.554 22.8095 101.671 22.3471 101.671 21.7353C101.671 21.1235 101.554 20.6676 101.32 20.3676C101.202 20.221 101.054 20.1027 100.884 20.0214C100.715 19.94 100.53 19.8978 100.342 19.8978C100.155 19.8978 99.9692 19.94 99.8 20.0214C99.6308 20.1027 99.4821 20.221 99.3648 20.3676L99.3701 20.3711Z" fill="#707070"/>
<path d="M105.683 19.545L105.592 20.0003C105.468 19.9669 105.34 19.9503 105.212 19.9511C105.078 19.9469 104.946 19.9732 104.824 20.0281C104.702 20.0829 104.594 20.1648 104.509 20.2675C104.288 20.5662 104.133 20.9084 104.055 21.2713V23.9083H103.575V19.5872H103.988L104.031 20.5541C104.113 20.2499 104.278 19.974 104.505 19.7559C104.714 19.5792 104.981 19.4864 105.254 19.4958C105.399 19.4925 105.543 19.509 105.683 19.545Z" fill="#707070"/>
<path d="M107.372 18.3392C107.305 18.4135 107.253 18.5011 107.221 18.5965C107.189 18.6918 107.177 18.7928 107.186 18.893V19.5962H108.327L108.26 19.9847H107.186V23.9085H106.71V19.9759H105.959V19.5874H106.71V18.8842C106.702 18.7341 106.727 18.5842 106.782 18.4444C106.837 18.3046 106.922 18.1783 107.03 18.0738C107.273 17.8638 107.588 17.7572 107.909 17.7767C108.258 17.78 108.602 17.8586 108.918 18.007L108.751 18.3586C108.494 18.2387 108.216 18.174 107.933 18.1687C107.731 18.1513 107.53 18.2124 107.372 18.3392Z" fill="#707070"/>
<path d="M112.057 20.0863C112.38 20.4801 112.541 21.0298 112.541 21.7353C112.541 22.4409 112.377 22.9929 112.049 23.3913C111.881 23.5818 111.675 23.7346 111.444 23.8395C111.213 23.9444 110.962 23.999 110.708 23.9999C110.455 24.0007 110.204 23.9477 109.972 23.8443C109.74 23.7409 109.533 23.5895 109.364 23.4001C109.041 23.0005 108.879 22.4508 108.881 21.7511C108.871 21.3409 108.947 20.9333 109.104 20.554C109.229 20.2326 109.452 19.9583 109.741 19.7692C110.029 19.5802 110.369 19.4858 110.714 19.4992C110.968 19.4863 111.222 19.5327 111.455 19.6346C111.688 19.7365 111.894 19.8911 112.057 20.0863ZM109.739 20.3711C109.504 20.6864 109.387 21.1464 109.387 21.7511C109.387 22.3559 109.504 22.813 109.739 23.1224C109.848 23.2757 109.994 23.3991 110.164 23.4814C110.333 23.5637 110.521 23.6022 110.709 23.5935C110.898 23.6018 111.087 23.5631 111.258 23.4809C111.429 23.3987 111.576 23.2756 111.688 23.1224C111.924 22.8095 112.04 22.3471 112.04 21.7353C112.04 21.1235 111.925 20.6805 111.697 20.3676C111.58 20.221 111.431 20.1027 111.262 20.0214C111.093 19.94 110.907 19.8978 110.719 19.8978C110.532 19.8978 110.346 19.94 110.177 20.0214C110.008 20.1027 109.859 20.221 109.742 20.3676L109.739 20.3711Z" fill="#707070"/>
<path d="M116.052 19.5449L115.962 20.0003C115.838 19.9667 115.709 19.9502 115.58 19.951C115.447 19.9469 115.314 19.9732 115.192 20.028C115.07 20.0829 114.963 20.1648 114.877 20.2675C114.658 20.5642 114.504 20.9039 114.425 21.2643V23.9012H113.947V19.5871H114.36L114.401 20.554C114.484 20.2494 114.648 19.9734 114.877 19.7559C115.085 19.5794 115.352 19.4867 115.624 19.4957C115.768 19.4926 115.912 19.5092 116.052 19.5449Z" fill="#707070"/>
<path d="M118.919 19.6002C119.125 19.6764 119.316 19.7896 119.481 19.9342L119.241 20.2489C118.975 20.0203 118.633 19.8993 118.282 19.9096C118.094 19.9035 117.906 19.9436 117.737 20.0263C117.567 20.109 117.42 20.2319 117.308 20.3843C117.066 20.7024 116.945 21.163 116.945 21.7695C116.945 22.376 117.064 22.8243 117.296 23.1232C117.41 23.2709 117.558 23.3893 117.727 23.4684C117.896 23.5476 118.082 23.5854 118.268 23.5785C118.448 23.5816 118.627 23.5506 118.796 23.4871C118.966 23.4192 119.126 23.3275 119.27 23.2146L119.502 23.5363C119.162 23.8356 118.725 24.0006 118.272 24.0004C117.931 24.0077 117.595 23.9154 117.305 23.735C117.021 23.549 116.798 23.2829 116.665 22.9702C116.504 22.5935 116.426 22.1863 116.437 21.7766C116.428 21.3642 116.505 20.9545 116.665 20.5741C116.798 20.2529 117.02 19.9765 117.305 19.7777C117.588 19.5874 117.922 19.4892 118.263 19.4965C118.486 19.4937 118.708 19.5288 118.919 19.6002Z" fill="#707070"/>
<path d="M123.563 21.9344H120.679C120.707 22.4957 120.84 22.913 121.079 23.186C121.197 23.3201 121.342 23.4263 121.506 23.4969C121.67 23.5674 121.847 23.6006 122.025 23.5939C122.23 23.5984 122.433 23.5632 122.625 23.4902C122.826 23.4056 123.016 23.2964 123.191 23.1649L123.414 23.4708C123.216 23.6366 122.993 23.77 122.753 23.8664C122.513 23.9574 122.257 24.0027 122.001 24C121.746 24.0122 121.492 23.9655 121.259 23.8637C121.025 23.7619 120.818 23.6076 120.654 23.4128C120.329 23.0202 120.167 22.4776 120.167 21.7849C120.159 21.3742 120.23 20.9658 120.378 20.5825C120.499 20.2635 120.708 19.9854 120.981 19.7808C121.246 19.5896 121.566 19.4897 121.893 19.496C122.132 19.4812 122.371 19.5241 122.589 19.6211C122.808 19.7181 122.999 19.8664 123.148 20.0533C123.435 20.426 123.579 20.9323 123.579 21.5863C123.584 21.7082 123.579 21.8242 123.563 21.9344ZM123.108 21.4474C123.132 21.0456 123.026 20.6469 122.806 20.31C122.702 20.1734 122.566 20.0646 122.41 19.9935C122.253 19.9223 122.082 19.8909 121.911 19.9021C121.744 19.8972 121.578 19.9321 121.427 20.004C121.276 20.0758 121.144 20.1825 121.042 20.3152C120.823 20.5895 120.702 21.0079 120.679 21.5704H123.108V21.4474Z" fill="#707070"/>
</g>
<defs>
<clipPath id="clip0_921_336">
<rect width="124.066" height="24" fill="white"/>
</clipPath>
</defs>
</svg>
