<svg width="16" height="16" viewBox="0 0 16 16" fill="none" xmlns="http://www.w3.org/2000/svg">
<path fill-rule="evenodd" clip-rule="evenodd" d="M8 0C12.4183 0 16 3.58172 16 8C16 12.4183 12.4183 16 8 16C3.58172 16 0 12.4183 0 8C0 3.58172 3.58172 0 8 0ZM8 11C7.44772 11 7 11.4477 7 12C7 12.5523 7.44772 13 8 13C8.55229 13 9 12.5523 9 12C9 11.4477 8.55229 11 8 11ZM7.9999 3C6.34283 3.00016 5 4.10802 5 6H7C7 5.30669 7.37166 5.00006 8.0001 5C8.65208 4.99994 9 5.28211 9 6C9 6.60602 8.91464 6.77751 8.47628 7.091C7.41402 7.85068 7 8.93659 7 10H9C9 9.52228 9.18189 9.0452 9.63969 8.7178C10.6113 8.02299 11 7.24199 11 6C11 4.07438 9.6751 2.99984 7.9999 3Z" fill="#1B3380"/>
</svg>
