<svg width="75" height="75" viewBox="0 0 75 75" fill="none" xmlns="http://www.w3.org/2000/svg">
<rect width="74.75" height="74.75" rx="37.375" fill="white"/>
<path d="M39.228 18.842C39.228 18.3504 39.0327 17.879 38.6851 17.5315C38.3376 17.1839 37.8662 16.9886 37.3746 16.9886C36.8831 16.9886 36.4117 17.1839 36.0642 17.5315C35.7166 17.879 35.5213 18.3504 35.5213 18.842V35.5217H18.8416C18.3501 35.5217 17.8787 35.717 17.5311 36.0645C17.1835 36.4121 16.9883 36.8835 16.9883 37.375C16.9883 37.8665 17.1835 38.3379 17.5311 38.6855C17.8787 39.0331 18.3501 39.2283 18.8416 39.2283H35.5213V55.9081C35.5213 56.3996 35.7166 56.871 36.0642 57.2186C36.4117 57.5661 36.8831 57.7614 37.3746 57.7614C37.8662 57.7614 38.3376 57.5661 38.6851 57.2186C39.0327 56.871 39.228 56.3996 39.228 55.9081V39.2283H55.9077C56.3992 39.2283 56.8706 39.0331 57.2182 38.6855C57.5658 38.3379 57.761 37.8665 57.761 37.375C57.761 36.8835 57.5658 36.4121 57.2182 36.0645C56.8706 35.717 56.3992 35.5217 55.9077 35.5217H39.228V18.842Z" fill="#1B87E6"/>
</svg>
