<svg width="9" height="16" viewBox="0 0 9 16" fill="none" xmlns="http://www.w3.org/2000/svg">
<path d="M0.212554 7.50156L7.84997 0.190146C7.9774 0.0680896 8.14671 3.56104e-07 8.32277 3.638e-07C8.49883 3.71496e-07 8.66813 0.0680897 8.79557 0.190146L8.80379 0.198407C8.86578 0.257578 8.91514 0.328801 8.94887 0.407743C8.98261 0.486686 9 0.571698 9 0.657608C9 0.743518 8.98261 0.82853 8.94887 0.907473C8.91514 0.986415 8.86578 1.05764 8.80379 1.11681L1.61176 8.00138L8.80379 14.8832C8.86578 14.9424 8.91514 15.0136 8.94887 15.0925C8.98261 15.1715 9 15.2565 9 15.3424C9 15.4283 8.98261 15.5133 8.94887 15.5923C8.91514 15.6712 8.86578 15.7424 8.80379 15.8016L8.79556 15.8099C8.66813 15.9319 8.49883 16 8.32277 16C8.14671 16 7.9774 15.9319 7.84997 15.8099L0.212554 8.49844C0.145386 8.43414 0.091913 8.35681 0.0553762 8.27113C0.0188395 8.18545 -3.53766e-07 8.09321 -3.49691e-07 8C-3.45617e-07 7.90679 0.0188395 7.81455 0.0553762 7.72887C0.091913 7.64319 0.145386 7.56585 0.212554 7.50156Z" fill="#878F99"/>
</svg>
