<svg width="42" height="42" viewBox="0 0 42 42" fill="none" xmlns="http://www.w3.org/2000/svg">
<path d="M23.228 2.84195C23.228 2.35043 23.0327 1.87903 22.6851 1.53147C22.3376 1.18391 21.8662 0.988647 21.3746 0.988647C20.8831 0.988647 20.4117 1.18391 20.0642 1.53147C19.7166 1.87903 19.5213 2.35043 19.5213 2.84195V19.5217H2.84159C2.35006 19.5217 1.87866 19.717 1.5311 20.0645C1.18354 20.4121 0.988281 20.8835 0.988281 21.375C0.988281 21.8665 1.18354 22.3379 1.5311 22.6855C1.87866 23.0331 2.35006 23.2283 2.84159 23.2283H19.5213V39.9081C19.5213 40.3996 19.7166 40.871 20.0642 41.2186C20.4117 41.5661 20.8831 41.7614 21.3746 41.7614C21.8662 41.7614 22.3376 41.5661 22.6851 41.2186C23.0327 40.871 23.228 40.3996 23.228 39.9081V23.2283H39.9077C40.3992 23.2283 40.8706 23.0331 41.2182 22.6855C41.5658 22.3379 41.761 21.8665 41.761 21.375C41.761 20.8835 41.5658 20.4121 41.2182 20.0645C40.8706 19.717 40.3992 19.5217 39.9077 19.5217H23.228V2.84195Z" fill="#1B87E6"/>
</svg>
